G04 #@! TF.GenerationSoftware,KiCad,Pcbnew,6.0.8-1.fc36*
G04 #@! TF.CreationDate,2022-11-01T17:46:47+01:00*
G04 #@! TF.ProjectId,avr32dd20_eval,61767233-3264-4643-9230-5f6576616c2e,rev?*
G04 #@! TF.SameCoordinates,Original*
G04 #@! TF.FileFunction,Copper,L1,Top*
G04 #@! TF.FilePolarity,Positive*
%FSLAX46Y46*%
G04 Gerber Fmt 4.6, Leading zero omitted, Abs format (unit mm)*
G04 Created by KiCad (PCBNEW 6.0.8-1.fc36) date 2022-11-01 17:46:47*
%MOMM*%
%LPD*%
G01*
G04 APERTURE LIST*
G04 Aperture macros list*
%AMRoundRect*
0 Rectangle with rounded corners*
0 $1 Rounding radius*
0 $2 $3 $4 $5 $6 $7 $8 $9 X,Y pos of 4 corners*
0 Add a 4 corners polygon primitive as box body*
4,1,4,$2,$3,$4,$5,$6,$7,$8,$9,$2,$3,0*
0 Add four circle primitives for the rounded corners*
1,1,$1+$1,$2,$3*
1,1,$1+$1,$4,$5*
1,1,$1+$1,$6,$7*
1,1,$1+$1,$8,$9*
0 Add four rect primitives between the rounded corners*
20,1,$1+$1,$2,$3,$4,$5,0*
20,1,$1+$1,$4,$5,$6,$7,0*
20,1,$1+$1,$6,$7,$8,$9,0*
20,1,$1+$1,$8,$9,$2,$3,0*%
G04 Aperture macros list end*
G04 #@! TA.AperFunction,ComponentPad*
%ADD10R,1.700000X1.700000*%
G04 #@! TD*
G04 #@! TA.AperFunction,ComponentPad*
%ADD11O,1.700000X1.700000*%
G04 #@! TD*
G04 #@! TA.AperFunction,SMDPad,CuDef*
%ADD12RoundRect,0.250000X0.412500X0.650000X-0.412500X0.650000X-0.412500X-0.650000X0.412500X-0.650000X0*%
G04 #@! TD*
G04 #@! TA.AperFunction,SMDPad,CuDef*
%ADD13RoundRect,0.150000X-0.875000X-0.150000X0.875000X-0.150000X0.875000X0.150000X-0.875000X0.150000X0*%
G04 #@! TD*
G04 #@! TA.AperFunction,SMDPad,CuDef*
%ADD14RoundRect,0.250000X-0.412500X-0.650000X0.412500X-0.650000X0.412500X0.650000X-0.412500X0.650000X0*%
G04 #@! TD*
G04 #@! TA.AperFunction,ViaPad*
%ADD15C,0.800000*%
G04 #@! TD*
G04 #@! TA.AperFunction,Conductor*
%ADD16C,0.250000*%
G04 #@! TD*
G04 #@! TA.AperFunction,Conductor*
%ADD17C,0.500000*%
G04 #@! TD*
G04 APERTURE END LIST*
D10*
X101585000Y-71877000D03*
D11*
X101585000Y-74417000D03*
X99045000Y-71877000D03*
X99045000Y-74417000D03*
X96505000Y-71877000D03*
X96505000Y-74417000D03*
D12*
X104051500Y-94996000D03*
X100926500Y-94996000D03*
D13*
X94410000Y-80645000D03*
X94410000Y-81915000D03*
X94410000Y-83185000D03*
X94410000Y-84455000D03*
X94410000Y-85725000D03*
X94410000Y-86995000D03*
X94410000Y-88265000D03*
X94410000Y-89535000D03*
X94410000Y-90805000D03*
X94410000Y-92075000D03*
X103710000Y-92075000D03*
X103710000Y-90805000D03*
X103710000Y-89535000D03*
X103710000Y-88265000D03*
X103710000Y-86995000D03*
X103710000Y-85725000D03*
X103710000Y-84455000D03*
X103710000Y-83185000D03*
X103710000Y-81915000D03*
X103710000Y-80645000D03*
D14*
X94068500Y-94996000D03*
X97193500Y-94996000D03*
D12*
X103924500Y-77978000D03*
X100799500Y-77978000D03*
D14*
X94068500Y-77978000D03*
X97193500Y-77978000D03*
D10*
X107950000Y-95245000D03*
D11*
X107950000Y-92705000D03*
X107950000Y-90165000D03*
X107950000Y-87625000D03*
X107950000Y-85085000D03*
X107950000Y-82545000D03*
X107950000Y-80005000D03*
X107950000Y-77465000D03*
X107950000Y-74925000D03*
X107950000Y-72385000D03*
D10*
X90170000Y-72395000D03*
D11*
X90170000Y-74935000D03*
X90170000Y-77475000D03*
X90170000Y-80015000D03*
X90170000Y-82555000D03*
X90170000Y-85095000D03*
X90170000Y-87635000D03*
X90170000Y-90175000D03*
X90170000Y-92715000D03*
X90170000Y-95255000D03*
D15*
X93980000Y-96901000D03*
X97282000Y-83820000D03*
X104013000Y-96774000D03*
X101092000Y-83312000D03*
X101092000Y-92456000D03*
X103505000Y-71755000D03*
X101092000Y-85090000D03*
X94107000Y-72517000D03*
X94107000Y-75311000D03*
X94107000Y-71120000D03*
X94107000Y-73914000D03*
X97282000Y-90170000D03*
X101092000Y-90678000D03*
X104775000Y-71120000D03*
X101092000Y-81788000D03*
X97028000Y-80391000D03*
X101092000Y-89154000D03*
X102362000Y-77978000D03*
X97282000Y-91694000D03*
X104140000Y-75946000D03*
X97282000Y-88646000D03*
X97282000Y-86741000D03*
D16*
X97282000Y-86741000D02*
X96266000Y-85725000D01*
X96266000Y-85725000D02*
X94410000Y-85725000D01*
X103710000Y-83185000D02*
X104394000Y-83185000D01*
X104394000Y-83185000D02*
X106172000Y-81407000D01*
X106172000Y-81407000D02*
X106172000Y-79243000D01*
X106172000Y-79243000D02*
X107950000Y-77465000D01*
X103710000Y-84455000D02*
X104965500Y-84455000D01*
X107950000Y-80641751D02*
X107950000Y-80005000D01*
X104965500Y-84455000D02*
X105664000Y-83756500D01*
X105664000Y-83756500D02*
X105664000Y-82927751D01*
X105664000Y-82927751D02*
X107950000Y-80641751D01*
X91440000Y-83312000D02*
X92583000Y-84455000D01*
X91440000Y-81285000D02*
X91440000Y-83312000D01*
X96647000Y-84455000D02*
X94410000Y-84455000D01*
X92583000Y-84455000D02*
X94410000Y-84455000D01*
X97282000Y-83820000D02*
X96647000Y-84455000D01*
X90170000Y-80015000D02*
X91440000Y-81285000D01*
X90170000Y-82555000D02*
X90170000Y-83312000D01*
X92583000Y-85725000D02*
X94410000Y-85725000D01*
X90170000Y-83312000D02*
X92583000Y-85725000D01*
D17*
X100838000Y-86995000D02*
X103710000Y-86995000D01*
X107066000Y-85085000D02*
X105156000Y-86995000D01*
X99187000Y-94996000D02*
X99187000Y-88646000D01*
X105156000Y-86995000D02*
X103710000Y-86995000D01*
X97193500Y-94996000D02*
X99187000Y-94996000D01*
X99187000Y-88646000D02*
X100838000Y-86995000D01*
X107950000Y-85085000D02*
X107066000Y-85085000D01*
X99187000Y-94996000D02*
X100926500Y-94996000D01*
X103881000Y-74417000D02*
X101585000Y-74417000D01*
X100799500Y-77978000D02*
X100799500Y-75202500D01*
X98806000Y-77978000D02*
X100799500Y-77978000D01*
X97193500Y-77978000D02*
X98806000Y-77978000D01*
X99060000Y-80264000D02*
X99060000Y-78232000D01*
X99060000Y-78232000D02*
X98806000Y-77978000D01*
X100799500Y-75202500D02*
X101585000Y-74417000D01*
X107950000Y-72385000D02*
X105923000Y-72385000D01*
X99441000Y-80645000D02*
X99060000Y-80264000D01*
X103710000Y-80645000D02*
X99441000Y-80645000D01*
X103886000Y-74422000D02*
X103881000Y-74417000D01*
X105923000Y-72385000D02*
X103886000Y-74422000D01*
D16*
X92456000Y-81534000D02*
X92456000Y-77221000D01*
X92456000Y-77221000D02*
X90170000Y-74935000D01*
X92837000Y-81915000D02*
X92456000Y-81534000D01*
X94410000Y-81915000D02*
X92837000Y-81915000D01*
X90170000Y-77475000D02*
X91948000Y-79253000D01*
X91948000Y-82613500D02*
X92519500Y-83185000D01*
X91948000Y-79253000D02*
X91948000Y-82613500D01*
X92519500Y-83185000D02*
X94410000Y-83185000D01*
X92070000Y-86995000D02*
X94410000Y-86995000D01*
X90170000Y-85095000D02*
X92070000Y-86995000D01*
X91445000Y-87635000D02*
X92075000Y-88265000D01*
X90170000Y-87635000D02*
X91445000Y-87635000D01*
X92075000Y-88265000D02*
X94410000Y-88265000D01*
X90800000Y-90175000D02*
X91440000Y-89535000D01*
X90170000Y-90175000D02*
X90800000Y-90175000D01*
X91440000Y-89535000D02*
X94410000Y-89535000D01*
X92080000Y-90805000D02*
X94410000Y-90805000D01*
X90170000Y-92715000D02*
X92080000Y-90805000D01*
X90170000Y-95255000D02*
X93350000Y-92075000D01*
X93350000Y-92075000D02*
X94410000Y-92075000D01*
X104780000Y-92075000D02*
X107950000Y-95245000D01*
X103710000Y-92075000D02*
X104780000Y-92075000D01*
X103710000Y-90805000D02*
X106050000Y-90805000D01*
X106050000Y-90805000D02*
X107950000Y-92705000D01*
X107320000Y-89535000D02*
X107950000Y-90165000D01*
X103710000Y-89535000D02*
X107320000Y-89535000D01*
X103710000Y-88265000D02*
X107310000Y-88265000D01*
X107310000Y-88265000D02*
X107950000Y-87625000D01*
X103710000Y-85725000D02*
X104770000Y-85725000D01*
X104770000Y-85725000D02*
X107950000Y-82545000D01*
X103710000Y-81915000D02*
X104330500Y-81915000D01*
X104330500Y-81915000D02*
X105410000Y-80835500D01*
X105410000Y-77465000D02*
X107950000Y-74925000D01*
X105410000Y-80835500D02*
X105410000Y-77465000D01*
G04 #@! TA.AperFunction,Conductor*
G36*
X96054965Y-70378502D02*
G01*
X96101458Y-70432158D01*
X96111562Y-70502432D01*
X96082068Y-70567012D01*
X96025991Y-70604265D01*
X95976756Y-70620357D01*
X95778607Y-70723507D01*
X95774474Y-70726610D01*
X95774471Y-70726612D01*
X95604100Y-70854530D01*
X95599965Y-70857635D01*
X95560525Y-70898907D01*
X95506280Y-70955671D01*
X95445629Y-71019138D01*
X95442720Y-71023403D01*
X95442714Y-71023411D01*
X95363243Y-71139912D01*
X95319743Y-71203680D01*
X95279048Y-71291351D01*
X95237129Y-71381658D01*
X95225688Y-71406305D01*
X95165989Y-71621570D01*
X95142251Y-71843695D01*
X95142548Y-71848848D01*
X95142548Y-71848851D01*
X95148422Y-71950720D01*
X95155110Y-72066715D01*
X95156247Y-72071761D01*
X95156248Y-72071767D01*
X95171851Y-72141000D01*
X95204222Y-72284639D01*
X95248980Y-72394865D01*
X95273361Y-72454908D01*
X95288266Y-72491616D01*
X95325685Y-72552678D01*
X95402291Y-72677688D01*
X95404987Y-72682088D01*
X95551250Y-72850938D01*
X95723126Y-72993632D01*
X95796445Y-73036476D01*
X95796955Y-73036774D01*
X95845679Y-73088412D01*
X95858750Y-73158195D01*
X95832019Y-73223967D01*
X95791562Y-73257327D01*
X95783457Y-73261546D01*
X95774738Y-73267036D01*
X95604433Y-73394905D01*
X95596726Y-73401748D01*
X95449590Y-73555717D01*
X95443104Y-73563727D01*
X95323098Y-73739649D01*
X95318000Y-73748623D01*
X95228338Y-73941783D01*
X95224775Y-73951470D01*
X95169389Y-74151183D01*
X95170912Y-74159607D01*
X95183292Y-74163000D01*
X96633000Y-74163000D01*
X96701121Y-74183002D01*
X96747614Y-74236658D01*
X96759000Y-74289000D01*
X96759000Y-75735517D01*
X96763064Y-75749359D01*
X96776478Y-75751393D01*
X96783184Y-75750534D01*
X96793262Y-75748392D01*
X96997255Y-75687191D01*
X97006842Y-75683433D01*
X97198095Y-75589739D01*
X97206945Y-75584464D01*
X97380328Y-75460792D01*
X97388200Y-75454139D01*
X97539052Y-75303811D01*
X97545730Y-75295965D01*
X97673022Y-75118819D01*
X97674279Y-75119722D01*
X97721373Y-75076362D01*
X97791311Y-75064145D01*
X97856751Y-75091678D01*
X97884579Y-75123511D01*
X97891251Y-75134399D01*
X97944987Y-75222088D01*
X98091250Y-75390938D01*
X98263126Y-75533632D01*
X98456000Y-75646338D01*
X98664692Y-75726030D01*
X98669760Y-75727061D01*
X98669763Y-75727062D01*
X98764862Y-75746410D01*
X98883597Y-75770567D01*
X98888772Y-75770757D01*
X98888774Y-75770757D01*
X99101673Y-75778564D01*
X99101677Y-75778564D01*
X99106837Y-75778753D01*
X99111957Y-75778097D01*
X99111959Y-75778097D01*
X99323288Y-75751025D01*
X99323289Y-75751025D01*
X99328416Y-75750368D01*
X99333366Y-75748883D01*
X99537429Y-75687661D01*
X99537434Y-75687659D01*
X99542384Y-75686174D01*
X99742994Y-75587896D01*
X99841832Y-75517396D01*
X99908905Y-75494122D01*
X99977914Y-75510806D01*
X100026948Y-75562150D01*
X100041000Y-75619975D01*
X100041000Y-76579895D01*
X100020998Y-76648016D01*
X99981303Y-76687039D01*
X99912652Y-76729522D01*
X99787695Y-76854697D01*
X99783855Y-76860927D01*
X99783854Y-76860928D01*
X99714772Y-76973000D01*
X99694885Y-77005262D01*
X99686441Y-77030720D01*
X99652461Y-77133167D01*
X99612031Y-77191527D01*
X99546466Y-77218764D01*
X99532868Y-77219500D01*
X98893941Y-77219500D01*
X98882740Y-77219001D01*
X98881050Y-77218850D01*
X98873885Y-77217360D01*
X98813225Y-77219001D01*
X98796479Y-77219454D01*
X98793072Y-77219500D01*
X98460219Y-77219500D01*
X98392098Y-77199498D01*
X98345605Y-77145842D01*
X98340695Y-77133376D01*
X98340626Y-77133167D01*
X98297550Y-77004054D01*
X98204478Y-76853652D01*
X98079303Y-76728695D01*
X97948418Y-76648016D01*
X97934968Y-76639725D01*
X97934966Y-76639724D01*
X97928738Y-76635885D01*
X97848995Y-76609436D01*
X97767389Y-76582368D01*
X97767387Y-76582368D01*
X97760861Y-76580203D01*
X97754025Y-76579503D01*
X97754022Y-76579502D01*
X97710969Y-76575091D01*
X97656400Y-76569500D01*
X96730600Y-76569500D01*
X96727354Y-76569837D01*
X96727350Y-76569837D01*
X96631692Y-76579762D01*
X96631688Y-76579763D01*
X96624834Y-76580474D01*
X96618298Y-76582655D01*
X96618296Y-76582655D01*
X96601928Y-76588116D01*
X96457054Y-76636450D01*
X96306652Y-76729522D01*
X96181695Y-76854697D01*
X96177855Y-76860927D01*
X96177854Y-76860928D01*
X96108772Y-76973000D01*
X96088885Y-77005262D01*
X96033203Y-77173139D01*
X96022500Y-77277600D01*
X96022500Y-78678400D01*
X96022837Y-78681646D01*
X96022837Y-78681650D01*
X96032752Y-78777206D01*
X96033474Y-78784166D01*
X96035655Y-78790702D01*
X96035655Y-78790704D01*
X96045986Y-78821669D01*
X96089450Y-78951946D01*
X96182522Y-79102348D01*
X96307697Y-79227305D01*
X96313927Y-79231145D01*
X96313928Y-79231146D01*
X96451288Y-79315816D01*
X96458262Y-79320115D01*
X96510378Y-79337401D01*
X96619611Y-79373632D01*
X96619613Y-79373632D01*
X96626139Y-79375797D01*
X96632975Y-79376497D01*
X96632978Y-79376498D01*
X96676031Y-79380909D01*
X96730600Y-79386500D01*
X97656400Y-79386500D01*
X97659646Y-79386163D01*
X97659650Y-79386163D01*
X97755308Y-79376238D01*
X97755312Y-79376237D01*
X97762166Y-79375526D01*
X97768702Y-79373345D01*
X97768704Y-79373345D01*
X97908122Y-79326831D01*
X97929946Y-79319550D01*
X98080348Y-79226478D01*
X98085523Y-79221294D01*
X98086330Y-79220486D01*
X98087018Y-79220110D01*
X98091258Y-79216749D01*
X98091833Y-79217475D01*
X98148614Y-79186409D01*
X98219434Y-79191415D01*
X98276305Y-79233914D01*
X98301171Y-79300413D01*
X98301500Y-79309507D01*
X98301500Y-80196930D01*
X98300067Y-80215880D01*
X98296801Y-80237349D01*
X98297394Y-80244641D01*
X98297394Y-80244644D01*
X98301085Y-80290018D01*
X98301500Y-80300233D01*
X98301500Y-80308293D01*
X98301925Y-80311937D01*
X98304789Y-80336507D01*
X98305222Y-80340882D01*
X98309299Y-80391000D01*
X98311140Y-80413637D01*
X98313396Y-80420601D01*
X98314587Y-80426560D01*
X98315971Y-80432415D01*
X98316818Y-80439681D01*
X98341735Y-80508327D01*
X98343152Y-80512455D01*
X98365649Y-80581899D01*
X98369445Y-80588154D01*
X98371951Y-80593628D01*
X98374670Y-80599058D01*
X98377167Y-80605937D01*
X98381180Y-80612057D01*
X98381180Y-80612058D01*
X98417186Y-80666976D01*
X98419523Y-80670680D01*
X98457405Y-80733107D01*
X98461121Y-80737315D01*
X98461122Y-80737316D01*
X98464803Y-80741484D01*
X98464776Y-80741508D01*
X98467429Y-80744500D01*
X98470132Y-80747733D01*
X98474144Y-80753852D01*
X98479456Y-80758884D01*
X98530383Y-80807128D01*
X98532825Y-80809506D01*
X98857230Y-81133911D01*
X98869616Y-81148323D01*
X98878149Y-81159918D01*
X98878154Y-81159923D01*
X98882492Y-81165818D01*
X98888070Y-81170557D01*
X98888073Y-81170560D01*
X98922768Y-81200035D01*
X98930284Y-81206965D01*
X98935979Y-81212660D01*
X98938861Y-81214940D01*
X98958251Y-81230281D01*
X98961655Y-81233072D01*
X99011703Y-81275591D01*
X99017285Y-81280333D01*
X99023801Y-81283661D01*
X99028850Y-81287028D01*
X99033979Y-81290195D01*
X99039716Y-81294734D01*
X99105875Y-81325655D01*
X99109769Y-81327558D01*
X99174808Y-81360769D01*
X99181916Y-81362508D01*
X99187559Y-81364607D01*
X99193322Y-81366524D01*
X99199950Y-81369622D01*
X99207112Y-81371112D01*
X99207113Y-81371112D01*
X99271412Y-81384486D01*
X99275696Y-81385456D01*
X99346610Y-81402808D01*
X99352212Y-81403156D01*
X99352215Y-81403156D01*
X99357764Y-81403500D01*
X99357762Y-81403536D01*
X99361755Y-81403775D01*
X99365947Y-81404149D01*
X99373115Y-81405640D01*
X99450520Y-81403546D01*
X99453928Y-81403500D01*
X102086481Y-81403500D01*
X102154602Y-81423502D01*
X102201095Y-81477158D01*
X102211199Y-81547432D01*
X102207478Y-81564652D01*
X102181233Y-81654989D01*
X102181232Y-81654993D01*
X102179438Y-81661169D01*
X102176500Y-81698498D01*
X102176500Y-82131502D01*
X102179438Y-82168831D01*
X102225855Y-82328601D01*
X102310547Y-82471807D01*
X102313229Y-82474489D01*
X102338502Y-82538861D01*
X102324600Y-82608484D01*
X102314428Y-82624312D01*
X102310547Y-82628193D01*
X102225855Y-82771399D01*
X102179438Y-82931169D01*
X102178934Y-82937574D01*
X102178933Y-82937579D01*
X102177358Y-82957596D01*
X102176500Y-82968498D01*
X102176500Y-83401502D01*
X102176693Y-83403950D01*
X102176693Y-83403958D01*
X102178294Y-83424292D01*
X102179438Y-83438831D01*
X102181233Y-83445008D01*
X102221186Y-83582529D01*
X102225855Y-83598601D01*
X102310547Y-83741807D01*
X102313229Y-83744489D01*
X102338502Y-83808861D01*
X102324600Y-83878484D01*
X102314428Y-83894312D01*
X102310547Y-83898193D01*
X102225855Y-84041399D01*
X102179438Y-84201169D01*
X102176500Y-84238498D01*
X102176500Y-84671502D01*
X102176693Y-84673950D01*
X102176693Y-84673958D01*
X102177650Y-84686109D01*
X102179438Y-84708831D01*
X102225855Y-84868601D01*
X102310547Y-85011807D01*
X102313229Y-85014489D01*
X102338502Y-85078861D01*
X102324600Y-85148484D01*
X102314428Y-85164312D01*
X102310547Y-85168193D01*
X102225855Y-85311399D01*
X102223644Y-85319010D01*
X102223643Y-85319012D01*
X102221467Y-85326502D01*
X102179438Y-85471169D01*
X102176500Y-85508498D01*
X102176500Y-85941502D01*
X102176693Y-85943950D01*
X102176693Y-85943958D01*
X102178294Y-85964292D01*
X102179438Y-85978831D01*
X102181232Y-85985007D01*
X102181233Y-85985011D01*
X102207478Y-86075348D01*
X102207275Y-86146344D01*
X102168721Y-86205960D01*
X102104056Y-86235268D01*
X102086481Y-86236500D01*
X100905070Y-86236500D01*
X100886120Y-86235067D01*
X100871885Y-86232901D01*
X100871881Y-86232901D01*
X100864651Y-86231801D01*
X100857359Y-86232394D01*
X100857356Y-86232394D01*
X100811982Y-86236085D01*
X100801767Y-86236500D01*
X100793707Y-86236500D01*
X100790073Y-86236924D01*
X100790067Y-86236924D01*
X100777042Y-86238443D01*
X100765480Y-86239791D01*
X100761132Y-86240221D01*
X100739059Y-86242016D01*
X100695662Y-86245546D01*
X100695659Y-86245547D01*
X100688364Y-86246140D01*
X100681400Y-86248396D01*
X100675461Y-86249583D01*
X100669590Y-86250970D01*
X100662319Y-86251818D01*
X100655443Y-86254314D01*
X100655434Y-86254316D01*
X100593702Y-86276725D01*
X100589598Y-86278135D01*
X100520101Y-86300648D01*
X100513846Y-86304444D01*
X100508387Y-86306943D01*
X100502939Y-86309671D01*
X100496063Y-86312167D01*
X100435010Y-86352195D01*
X100431337Y-86354513D01*
X100368893Y-86392405D01*
X100360517Y-86399802D01*
X100360493Y-86399775D01*
X100357499Y-86402430D01*
X100354268Y-86405132D01*
X100348148Y-86409144D01*
X100317337Y-86441669D01*
X100294872Y-86465383D01*
X100292494Y-86467825D01*
X98698089Y-88062230D01*
X98683677Y-88074616D01*
X98672082Y-88083149D01*
X98672077Y-88083154D01*
X98666182Y-88087492D01*
X98661443Y-88093070D01*
X98661440Y-88093073D01*
X98631965Y-88127768D01*
X98625035Y-88135284D01*
X98619340Y-88140979D01*
X98617060Y-88143861D01*
X98601719Y-88163251D01*
X98598928Y-88166655D01*
X98556409Y-88216703D01*
X98551667Y-88222285D01*
X98548339Y-88228801D01*
X98544972Y-88233850D01*
X98541805Y-88238979D01*
X98537266Y-88244716D01*
X98506345Y-88310875D01*
X98504442Y-88314769D01*
X98471231Y-88379808D01*
X98469492Y-88386916D01*
X98467393Y-88392559D01*
X98465476Y-88398322D01*
X98462378Y-88404950D01*
X98460888Y-88412112D01*
X98460888Y-88412113D01*
X98447514Y-88476412D01*
X98446544Y-88480696D01*
X98429192Y-88551610D01*
X98428500Y-88562764D01*
X98428464Y-88562762D01*
X98428225Y-88566755D01*
X98427851Y-88570947D01*
X98426360Y-88578115D01*
X98426558Y-88585432D01*
X98428454Y-88655521D01*
X98428500Y-88658928D01*
X98428500Y-93793840D01*
X98408498Y-93861961D01*
X98354842Y-93908454D01*
X98284568Y-93918558D01*
X98219988Y-93889064D01*
X98206592Y-93875068D01*
X98204478Y-93871652D01*
X98079303Y-93746695D01*
X97990961Y-93692240D01*
X97934968Y-93657725D01*
X97934966Y-93657724D01*
X97928738Y-93653885D01*
X97848995Y-93627436D01*
X97767389Y-93600368D01*
X97767387Y-93600368D01*
X97760861Y-93598203D01*
X97754025Y-93597503D01*
X97754022Y-93597502D01*
X97710969Y-93593091D01*
X97656400Y-93587500D01*
X96730600Y-93587500D01*
X96727354Y-93587837D01*
X96727350Y-93587837D01*
X96631692Y-93597762D01*
X96631688Y-93597763D01*
X96624834Y-93598474D01*
X96618298Y-93600655D01*
X96618296Y-93600655D01*
X96601928Y-93606116D01*
X96457054Y-93654450D01*
X96306652Y-93747522D01*
X96181695Y-93872697D01*
X96177855Y-93878927D01*
X96177854Y-93878928D01*
X96104237Y-93998357D01*
X96088885Y-94023262D01*
X96033203Y-94191139D01*
X96022500Y-94295600D01*
X96022500Y-95696400D01*
X96022837Y-95699646D01*
X96022837Y-95699650D01*
X96032752Y-95795206D01*
X96033474Y-95802166D01*
X96035655Y-95808702D01*
X96035655Y-95808704D01*
X96046374Y-95840833D01*
X96089450Y-95969946D01*
X96182522Y-96120348D01*
X96307697Y-96245305D01*
X96313927Y-96249145D01*
X96313928Y-96249146D01*
X96451288Y-96333816D01*
X96458262Y-96338115D01*
X96469086Y-96341705D01*
X96619611Y-96391632D01*
X96619613Y-96391632D01*
X96626139Y-96393797D01*
X96632975Y-96394497D01*
X96632978Y-96394498D01*
X96676031Y-96398909D01*
X96730600Y-96404500D01*
X97656400Y-96404500D01*
X97659646Y-96404163D01*
X97659650Y-96404163D01*
X97755308Y-96394238D01*
X97755312Y-96394237D01*
X97762166Y-96393526D01*
X97768702Y-96391345D01*
X97768704Y-96391345D01*
X97917492Y-96341705D01*
X97929946Y-96337550D01*
X98080348Y-96244478D01*
X98205305Y-96119303D01*
X98241806Y-96060088D01*
X98294275Y-95974968D01*
X98294276Y-95974966D01*
X98298115Y-95968738D01*
X98340539Y-95840833D01*
X98380969Y-95782473D01*
X98446534Y-95755236D01*
X98460132Y-95754500D01*
X99159165Y-95754500D01*
X99166966Y-95754742D01*
X99228298Y-95758547D01*
X99241260Y-95756320D01*
X99262596Y-95754500D01*
X99659781Y-95754500D01*
X99727902Y-95774502D01*
X99774395Y-95828158D01*
X99779303Y-95840618D01*
X99822450Y-95969946D01*
X99915522Y-96120348D01*
X100040697Y-96245305D01*
X100046927Y-96249145D01*
X100046928Y-96249146D01*
X100184288Y-96333816D01*
X100191262Y-96338115D01*
X100202086Y-96341705D01*
X100352611Y-96391632D01*
X100352613Y-96391632D01*
X100359139Y-96393797D01*
X100365975Y-96394497D01*
X100365978Y-96394498D01*
X100409031Y-96398909D01*
X100463600Y-96404500D01*
X101389400Y-96404500D01*
X101392646Y-96404163D01*
X101392650Y-96404163D01*
X101488308Y-96394238D01*
X101488312Y-96394237D01*
X101495166Y-96393526D01*
X101501702Y-96391345D01*
X101501704Y-96391345D01*
X101650492Y-96341705D01*
X101662946Y-96337550D01*
X101813348Y-96244478D01*
X101938305Y-96119303D01*
X101974806Y-96060088D01*
X102027275Y-95974968D01*
X102027276Y-95974966D01*
X102031115Y-95968738D01*
X102086797Y-95800861D01*
X102091133Y-95758547D01*
X102097167Y-95699650D01*
X102097500Y-95696400D01*
X102097500Y-95693095D01*
X102881001Y-95693095D01*
X102881338Y-95699614D01*
X102891257Y-95795206D01*
X102894149Y-95808600D01*
X102945588Y-95962784D01*
X102951761Y-95975962D01*
X103037063Y-96113807D01*
X103046099Y-96125208D01*
X103160829Y-96239739D01*
X103172240Y-96248751D01*
X103310243Y-96333816D01*
X103323424Y-96339963D01*
X103477710Y-96391138D01*
X103491086Y-96394005D01*
X103585438Y-96403672D01*
X103591854Y-96404000D01*
X103779385Y-96404000D01*
X103794624Y-96399525D01*
X103795829Y-96398135D01*
X103797500Y-96390452D01*
X103797500Y-96385884D01*
X104305500Y-96385884D01*
X104309975Y-96401123D01*
X104311365Y-96402328D01*
X104319048Y-96403999D01*
X104511095Y-96403999D01*
X104517614Y-96403662D01*
X104613206Y-96393743D01*
X104626600Y-96390851D01*
X104780784Y-96339412D01*
X104793962Y-96333239D01*
X104931807Y-96247937D01*
X104943208Y-96238901D01*
X105057739Y-96124171D01*
X105066751Y-96112760D01*
X105151816Y-95974757D01*
X105157963Y-95961576D01*
X105209138Y-95807290D01*
X105212005Y-95793914D01*
X105221672Y-95699562D01*
X105222000Y-95693145D01*
X105222000Y-95268115D01*
X105217525Y-95252876D01*
X105216135Y-95251671D01*
X105208452Y-95250000D01*
X104323615Y-95250000D01*
X104308376Y-95254475D01*
X104307171Y-95255865D01*
X104305500Y-95263548D01*
X104305500Y-96385884D01*
X103797500Y-96385884D01*
X103797500Y-95268115D01*
X103793025Y-95252876D01*
X103791635Y-95251671D01*
X103783952Y-95250000D01*
X102899116Y-95250000D01*
X102883877Y-95254475D01*
X102882672Y-95255865D01*
X102881001Y-95263548D01*
X102881001Y-95693095D01*
X102097500Y-95693095D01*
X102097500Y-94723885D01*
X102881000Y-94723885D01*
X102885475Y-94739124D01*
X102886865Y-94740329D01*
X102894548Y-94742000D01*
X103779385Y-94742000D01*
X103794624Y-94737525D01*
X103795829Y-94736135D01*
X103797500Y-94728452D01*
X103797500Y-94723885D01*
X104305500Y-94723885D01*
X104309975Y-94739124D01*
X104311365Y-94740329D01*
X104319048Y-94742000D01*
X105203884Y-94742000D01*
X105219123Y-94737525D01*
X105220328Y-94736135D01*
X105221999Y-94728452D01*
X105221999Y-94298905D01*
X105221662Y-94292386D01*
X105211743Y-94196794D01*
X105208851Y-94183400D01*
X105157412Y-94029216D01*
X105151239Y-94016038D01*
X105065937Y-93878193D01*
X105056901Y-93866792D01*
X104942171Y-93752261D01*
X104930760Y-93743249D01*
X104792757Y-93658184D01*
X104779576Y-93652037D01*
X104625290Y-93600862D01*
X104611914Y-93597995D01*
X104517562Y-93588328D01*
X104511145Y-93588000D01*
X104323615Y-93588000D01*
X104308376Y-93592475D01*
X104307171Y-93593865D01*
X104305500Y-93601548D01*
X104305500Y-94723885D01*
X103797500Y-94723885D01*
X103797500Y-93606116D01*
X103793025Y-93590877D01*
X103791635Y-93589672D01*
X103783952Y-93588001D01*
X103591905Y-93588001D01*
X103585386Y-93588338D01*
X103489794Y-93598257D01*
X103476400Y-93601149D01*
X103322216Y-93652588D01*
X103309038Y-93658761D01*
X103171193Y-93744063D01*
X103159792Y-93753099D01*
X103045261Y-93867829D01*
X103036249Y-93879240D01*
X102951184Y-94017243D01*
X102945037Y-94030424D01*
X102893862Y-94184710D01*
X102890995Y-94198086D01*
X102881328Y-94292438D01*
X102881000Y-94298855D01*
X102881000Y-94723885D01*
X102097500Y-94723885D01*
X102097500Y-94295600D01*
X102097163Y-94292350D01*
X102087238Y-94196692D01*
X102087237Y-94196688D01*
X102086526Y-94189834D01*
X102072668Y-94148295D01*
X102032868Y-94029002D01*
X102030550Y-94022054D01*
X101937478Y-93871652D01*
X101812303Y-93746695D01*
X101723961Y-93692240D01*
X101667968Y-93657725D01*
X101667966Y-93657724D01*
X101661738Y-93653885D01*
X101581995Y-93627436D01*
X101500389Y-93600368D01*
X101500387Y-93600368D01*
X101493861Y-93598203D01*
X101487025Y-93597503D01*
X101487022Y-93597502D01*
X101443969Y-93593091D01*
X101389400Y-93587500D01*
X100463600Y-93587500D01*
X100460354Y-93587837D01*
X100460350Y-93587837D01*
X100364692Y-93597762D01*
X100364688Y-93597763D01*
X100357834Y-93598474D01*
X100351298Y-93600655D01*
X100351296Y-93600655D01*
X100334928Y-93606116D01*
X100190054Y-93654450D01*
X100141557Y-93684461D01*
X100137803Y-93686784D01*
X100069351Y-93705622D01*
X100001581Y-93684461D01*
X99956010Y-93630020D01*
X99945500Y-93579640D01*
X99945500Y-89012371D01*
X99965502Y-88944250D01*
X99982405Y-88923276D01*
X101115276Y-87790405D01*
X101177588Y-87756379D01*
X101204371Y-87753500D01*
X102086481Y-87753500D01*
X102154602Y-87773502D01*
X102201095Y-87827158D01*
X102211199Y-87897432D01*
X102207478Y-87914652D01*
X102181233Y-88004989D01*
X102181232Y-88004993D01*
X102179438Y-88011169D01*
X102176500Y-88048498D01*
X102176500Y-88481502D01*
X102176693Y-88483950D01*
X102176693Y-88483958D01*
X102178294Y-88504292D01*
X102179438Y-88518831D01*
X102198787Y-88585432D01*
X102222202Y-88666026D01*
X102225855Y-88678601D01*
X102310547Y-88821807D01*
X102313229Y-88824489D01*
X102338502Y-88888861D01*
X102324600Y-88958484D01*
X102314428Y-88974312D01*
X102310547Y-88978193D01*
X102225855Y-89121399D01*
X102179438Y-89281169D01*
X102176500Y-89318498D01*
X102176500Y-89751502D01*
X102179438Y-89788831D01*
X102225855Y-89948601D01*
X102310547Y-90091807D01*
X102313229Y-90094489D01*
X102338502Y-90158861D01*
X102324600Y-90228484D01*
X102314428Y-90244312D01*
X102310547Y-90248193D01*
X102225855Y-90391399D01*
X102179438Y-90551169D01*
X102176500Y-90588498D01*
X102176500Y-91021502D01*
X102176693Y-91023950D01*
X102176693Y-91023958D01*
X102178294Y-91044292D01*
X102179438Y-91058831D01*
X102181233Y-91065008D01*
X102221186Y-91202529D01*
X102225855Y-91218601D01*
X102310547Y-91361807D01*
X102313229Y-91364489D01*
X102338502Y-91428861D01*
X102324600Y-91498484D01*
X102314428Y-91514312D01*
X102310547Y-91518193D01*
X102225855Y-91661399D01*
X102179438Y-91821169D01*
X102176500Y-91858498D01*
X102176500Y-92291502D01*
X102176693Y-92293950D01*
X102176693Y-92293958D01*
X102178192Y-92312994D01*
X102179438Y-92328831D01*
X102208472Y-92428769D01*
X102214516Y-92449570D01*
X102225855Y-92488601D01*
X102229892Y-92495427D01*
X102306509Y-92624980D01*
X102306511Y-92624983D01*
X102310547Y-92631807D01*
X102428193Y-92749453D01*
X102435017Y-92753489D01*
X102435020Y-92753491D01*
X102503497Y-92793988D01*
X102571399Y-92834145D01*
X102579010Y-92836356D01*
X102579012Y-92836357D01*
X102631231Y-92851528D01*
X102731169Y-92880562D01*
X102737574Y-92881066D01*
X102737579Y-92881067D01*
X102766042Y-92883307D01*
X102766050Y-92883307D01*
X102768498Y-92883500D01*
X104640406Y-92883500D01*
X104708527Y-92903502D01*
X104729501Y-92920405D01*
X105643337Y-93834242D01*
X106554595Y-94745500D01*
X106588621Y-94807812D01*
X106591500Y-94834595D01*
X106591500Y-96143134D01*
X106598255Y-96205316D01*
X106649385Y-96341705D01*
X106736739Y-96458261D01*
X106853295Y-96545615D01*
X106989684Y-96596745D01*
X107051866Y-96603500D01*
X108848134Y-96603500D01*
X108910316Y-96596745D01*
X109046705Y-96545615D01*
X109163261Y-96458261D01*
X109250615Y-96341705D01*
X109301745Y-96205316D01*
X109308500Y-96143134D01*
X109308500Y-94346866D01*
X109301745Y-94284684D01*
X109250615Y-94148295D01*
X109163261Y-94031739D01*
X109046705Y-93944385D01*
X109034132Y-93939672D01*
X108928203Y-93899960D01*
X108871439Y-93857318D01*
X108846739Y-93790756D01*
X108861947Y-93721408D01*
X108883493Y-93692727D01*
X108917578Y-93658761D01*
X108988096Y-93588489D01*
X109118453Y-93407077D01*
X109156737Y-93329616D01*
X109215136Y-93211453D01*
X109215137Y-93211451D01*
X109217430Y-93206811D01*
X109269008Y-93037050D01*
X109280865Y-92998023D01*
X109280865Y-92998021D01*
X109282370Y-92993069D01*
X109311529Y-92771590D01*
X109313156Y-92705000D01*
X109294852Y-92482361D01*
X109240431Y-92265702D01*
X109151354Y-92060840D01*
X109030014Y-91873277D01*
X108879670Y-91708051D01*
X108875619Y-91704852D01*
X108875615Y-91704848D01*
X108708414Y-91572800D01*
X108708410Y-91572798D01*
X108704359Y-91569598D01*
X108663053Y-91546796D01*
X108613084Y-91496364D01*
X108598312Y-91426921D01*
X108623428Y-91360516D01*
X108650780Y-91333909D01*
X108714684Y-91288327D01*
X108829860Y-91206173D01*
X108988096Y-91048489D01*
X109118453Y-90867077D01*
X109156737Y-90789616D01*
X109215136Y-90671453D01*
X109215137Y-90671451D01*
X109217430Y-90666811D01*
X109282370Y-90453069D01*
X109311529Y-90231590D01*
X109312630Y-90186526D01*
X109313074Y-90168365D01*
X109313074Y-90168361D01*
X109313156Y-90165000D01*
X109294852Y-89942361D01*
X109240431Y-89725702D01*
X109151354Y-89520840D01*
X109030014Y-89333277D01*
X108879670Y-89168051D01*
X108875619Y-89164852D01*
X108875615Y-89164848D01*
X108708414Y-89032800D01*
X108708410Y-89032798D01*
X108704359Y-89029598D01*
X108663053Y-89006796D01*
X108613084Y-88956364D01*
X108598312Y-88886921D01*
X108623428Y-88820516D01*
X108650780Y-88793909D01*
X108720960Y-88743850D01*
X108829860Y-88666173D01*
X108837131Y-88658928D01*
X108978061Y-88518489D01*
X108988096Y-88508489D01*
X109118453Y-88327077D01*
X109125493Y-88312834D01*
X109215136Y-88131453D01*
X109215137Y-88131451D01*
X109217430Y-88126811D01*
X109282370Y-87913069D01*
X109311529Y-87691590D01*
X109311611Y-87688240D01*
X109313074Y-87628365D01*
X109313074Y-87628361D01*
X109313156Y-87625000D01*
X109294852Y-87402361D01*
X109240431Y-87185702D01*
X109151354Y-86980840D01*
X109030014Y-86793277D01*
X108879670Y-86628051D01*
X108875619Y-86624852D01*
X108875615Y-86624848D01*
X108708414Y-86492800D01*
X108708410Y-86492798D01*
X108704359Y-86489598D01*
X108663053Y-86466796D01*
X108613084Y-86416364D01*
X108598312Y-86346921D01*
X108623428Y-86280516D01*
X108650780Y-86253909D01*
X108720671Y-86204056D01*
X108829860Y-86126173D01*
X108988096Y-85968489D01*
X109001467Y-85949882D01*
X109115435Y-85791277D01*
X109118453Y-85787077D01*
X109156737Y-85709616D01*
X109215136Y-85591453D01*
X109215137Y-85591451D01*
X109217430Y-85586811D01*
X109282370Y-85373069D01*
X109311529Y-85151590D01*
X109312501Y-85111819D01*
X109313074Y-85088365D01*
X109313074Y-85088361D01*
X109313156Y-85085000D01*
X109294852Y-84862361D01*
X109240431Y-84645702D01*
X109151354Y-84440840D01*
X109030014Y-84253277D01*
X108879670Y-84088051D01*
X108875619Y-84084852D01*
X108875615Y-84084848D01*
X108708414Y-83952800D01*
X108708410Y-83952798D01*
X108704359Y-83949598D01*
X108663053Y-83926796D01*
X108613084Y-83876364D01*
X108598312Y-83806921D01*
X108623428Y-83740516D01*
X108650780Y-83713909D01*
X108759114Y-83636635D01*
X108829860Y-83586173D01*
X108988096Y-83428489D01*
X109118453Y-83247077D01*
X109146586Y-83190155D01*
X109215136Y-83051453D01*
X109215137Y-83051451D01*
X109217430Y-83046811D01*
X109282370Y-82833069D01*
X109311529Y-82611590D01*
X109313034Y-82550000D01*
X109313074Y-82548365D01*
X109313074Y-82548361D01*
X109313156Y-82545000D01*
X109294852Y-82322361D01*
X109240431Y-82105702D01*
X109151354Y-81900840D01*
X109030014Y-81713277D01*
X108879670Y-81548051D01*
X108875619Y-81544852D01*
X108875615Y-81544848D01*
X108708414Y-81412800D01*
X108708410Y-81412798D01*
X108704359Y-81409598D01*
X108663053Y-81386796D01*
X108613084Y-81336364D01*
X108598312Y-81266921D01*
X108623428Y-81200516D01*
X108650780Y-81173909D01*
X108745284Y-81106500D01*
X108829860Y-81046173D01*
X108988096Y-80888489D01*
X109033472Y-80825342D01*
X109115435Y-80711277D01*
X109118453Y-80707077D01*
X109156737Y-80629616D01*
X109215136Y-80511453D01*
X109215137Y-80511451D01*
X109217430Y-80506811D01*
X109268509Y-80338692D01*
X109280865Y-80298023D01*
X109280865Y-80298021D01*
X109282370Y-80293069D01*
X109311529Y-80071590D01*
X109313156Y-80005000D01*
X109294852Y-79782361D01*
X109240431Y-79565702D01*
X109151354Y-79360840D01*
X109061621Y-79222134D01*
X109032822Y-79177617D01*
X109032820Y-79177614D01*
X109030014Y-79173277D01*
X108879670Y-79008051D01*
X108875619Y-79004852D01*
X108875615Y-79004848D01*
X108708414Y-78872800D01*
X108708410Y-78872798D01*
X108704359Y-78869598D01*
X108663053Y-78846796D01*
X108613084Y-78796364D01*
X108598312Y-78726921D01*
X108623428Y-78660516D01*
X108650780Y-78633909D01*
X108714684Y-78588327D01*
X108829860Y-78506173D01*
X108988096Y-78348489D01*
X109058785Y-78250115D01*
X109115435Y-78171277D01*
X109118453Y-78167077D01*
X109156737Y-78089616D01*
X109215136Y-77971453D01*
X109215137Y-77971451D01*
X109217430Y-77966811D01*
X109282370Y-77753069D01*
X109311529Y-77531590D01*
X109312426Y-77494875D01*
X109313074Y-77468365D01*
X109313074Y-77468361D01*
X109313156Y-77465000D01*
X109294852Y-77242361D01*
X109240431Y-77025702D01*
X109151354Y-76820840D01*
X109090040Y-76726063D01*
X109032822Y-76637617D01*
X109032820Y-76637614D01*
X109030014Y-76633277D01*
X108879670Y-76468051D01*
X108875619Y-76464852D01*
X108875615Y-76464848D01*
X108708414Y-76332800D01*
X108708410Y-76332798D01*
X108704359Y-76329598D01*
X108663053Y-76306796D01*
X108613084Y-76256364D01*
X108598312Y-76186921D01*
X108623428Y-76120516D01*
X108650780Y-76093909D01*
X108714684Y-76048327D01*
X108829860Y-75966173D01*
X108988096Y-75808489D01*
X109009464Y-75778753D01*
X109115435Y-75631277D01*
X109118453Y-75627077D01*
X109136907Y-75589739D01*
X109215136Y-75431453D01*
X109215137Y-75431451D01*
X109217430Y-75426811D01*
X109277827Y-75228022D01*
X109280865Y-75218023D01*
X109280865Y-75218021D01*
X109282370Y-75213069D01*
X109311529Y-74991590D01*
X109311991Y-74972685D01*
X109313074Y-74928365D01*
X109313074Y-74928361D01*
X109313156Y-74925000D01*
X109294852Y-74702361D01*
X109240431Y-74485702D01*
X109151354Y-74280840D01*
X109039291Y-74107617D01*
X109032822Y-74097617D01*
X109032820Y-74097614D01*
X109030014Y-74093277D01*
X108879670Y-73928051D01*
X108875619Y-73924852D01*
X108875615Y-73924848D01*
X108708414Y-73792800D01*
X108708410Y-73792798D01*
X108704359Y-73789598D01*
X108663053Y-73766796D01*
X108613084Y-73716364D01*
X108598312Y-73646921D01*
X108623428Y-73580516D01*
X108650780Y-73553909D01*
X108694603Y-73522650D01*
X108829860Y-73426173D01*
X108836004Y-73420051D01*
X108984435Y-73272137D01*
X108988096Y-73268489D01*
X108995061Y-73258797D01*
X109115435Y-73091277D01*
X109118453Y-73087077D01*
X109125650Y-73072516D01*
X109215136Y-72891453D01*
X109215137Y-72891451D01*
X109217430Y-72886811D01*
X109282370Y-72673069D01*
X109311529Y-72451590D01*
X109313156Y-72385000D01*
X109294852Y-72162361D01*
X109240431Y-71945702D01*
X109151354Y-71740840D01*
X109086290Y-71640267D01*
X109032822Y-71557617D01*
X109032820Y-71557614D01*
X109030014Y-71553277D01*
X108879670Y-71388051D01*
X108875619Y-71384852D01*
X108875615Y-71384848D01*
X108708414Y-71252800D01*
X108708410Y-71252798D01*
X108704359Y-71249598D01*
X108508789Y-71141638D01*
X108503920Y-71139914D01*
X108503916Y-71139912D01*
X108303087Y-71068795D01*
X108303083Y-71068794D01*
X108298212Y-71067069D01*
X108293119Y-71066162D01*
X108293116Y-71066161D01*
X108083373Y-71028800D01*
X108083367Y-71028799D01*
X108078284Y-71027894D01*
X108004452Y-71026992D01*
X107860081Y-71025228D01*
X107860079Y-71025228D01*
X107854911Y-71025165D01*
X107634091Y-71058955D01*
X107421756Y-71128357D01*
X107223607Y-71231507D01*
X107219474Y-71234610D01*
X107219471Y-71234612D01*
X107049100Y-71362530D01*
X107044965Y-71365635D01*
X106890629Y-71527138D01*
X106860363Y-71571507D01*
X106805455Y-71616507D01*
X106756277Y-71626500D01*
X105990070Y-71626500D01*
X105971120Y-71625067D01*
X105956885Y-71622901D01*
X105956881Y-71622901D01*
X105949651Y-71621801D01*
X105942359Y-71622394D01*
X105942356Y-71622394D01*
X105896982Y-71626085D01*
X105886767Y-71626500D01*
X105878707Y-71626500D01*
X105865417Y-71628049D01*
X105850493Y-71629789D01*
X105846118Y-71630222D01*
X105780661Y-71635546D01*
X105780658Y-71635547D01*
X105773363Y-71636140D01*
X105766399Y-71638396D01*
X105760440Y-71639587D01*
X105754585Y-71640971D01*
X105747319Y-71641818D01*
X105678673Y-71666735D01*
X105674545Y-71668152D01*
X105612064Y-71688393D01*
X105612062Y-71688394D01*
X105605101Y-71690649D01*
X105598846Y-71694445D01*
X105593372Y-71696951D01*
X105587942Y-71699670D01*
X105581063Y-71702167D01*
X105574943Y-71706180D01*
X105574942Y-71706180D01*
X105520024Y-71742186D01*
X105516320Y-71744523D01*
X105453893Y-71782405D01*
X105445516Y-71789803D01*
X105445492Y-71789776D01*
X105442500Y-71792429D01*
X105439267Y-71795132D01*
X105433148Y-71799144D01*
X105428116Y-71804456D01*
X105379872Y-71855383D01*
X105377494Y-71857825D01*
X103613724Y-73621595D01*
X103551412Y-73655621D01*
X103524629Y-73658500D01*
X102780939Y-73658500D01*
X102712818Y-73638498D01*
X102675147Y-73600941D01*
X102672025Y-73596114D01*
X102665014Y-73585277D01*
X102645405Y-73563727D01*
X102517798Y-73423488D01*
X102486746Y-73359642D01*
X102495141Y-73289143D01*
X102540317Y-73234375D01*
X102566761Y-73220706D01*
X102673297Y-73180767D01*
X102681705Y-73177615D01*
X102798261Y-73090261D01*
X102885615Y-72973705D01*
X102936745Y-72837316D01*
X102943500Y-72775134D01*
X102943500Y-70978866D01*
X102936745Y-70916684D01*
X102885615Y-70780295D01*
X102798261Y-70663739D01*
X102693635Y-70585326D01*
X102651120Y-70528467D01*
X102646094Y-70457648D01*
X102680154Y-70395355D01*
X102742485Y-70361365D01*
X102769200Y-70358500D01*
X107900633Y-70358500D01*
X107920018Y-70360000D01*
X107934851Y-70362310D01*
X107934855Y-70362310D01*
X107943724Y-70363691D01*
X107952626Y-70362527D01*
X107952629Y-70362527D01*
X107960012Y-70361561D01*
X107984591Y-70360767D01*
X108011442Y-70362527D01*
X108206922Y-70375340D01*
X108223262Y-70377491D01*
X108313071Y-70395355D01*
X108467696Y-70426112D01*
X108483606Y-70430375D01*
X108719600Y-70510484D01*
X108734826Y-70516791D01*
X108958342Y-70627016D01*
X108972616Y-70635257D01*
X109179829Y-70773713D01*
X109192905Y-70783746D01*
X109380278Y-70948068D01*
X109391932Y-70959722D01*
X109556254Y-71147095D01*
X109566287Y-71160171D01*
X109704743Y-71367384D01*
X109712984Y-71381658D01*
X109823209Y-71605174D01*
X109829515Y-71620398D01*
X109909625Y-71856394D01*
X109913889Y-71872307D01*
X109962509Y-72116738D01*
X109964660Y-72133078D01*
X109978763Y-72348236D01*
X109977733Y-72371350D01*
X109977690Y-72374854D01*
X109976309Y-72383724D01*
X109977473Y-72392626D01*
X109977473Y-72392628D01*
X109980436Y-72415283D01*
X109981500Y-72431621D01*
X109981500Y-95200633D01*
X109980000Y-95220018D01*
X109977690Y-95234851D01*
X109977690Y-95234855D01*
X109976309Y-95243724D01*
X109977473Y-95252626D01*
X109977473Y-95252629D01*
X109978439Y-95260012D01*
X109979233Y-95284591D01*
X109964660Y-95506922D01*
X109962509Y-95523262D01*
X109915799Y-95758093D01*
X109913889Y-95767693D01*
X109909625Y-95783606D01*
X109829516Y-96019600D01*
X109823209Y-96034826D01*
X109712984Y-96258342D01*
X109704743Y-96272616D01*
X109566287Y-96479829D01*
X109556254Y-96492905D01*
X109391932Y-96680278D01*
X109380278Y-96691932D01*
X109192905Y-96856254D01*
X109179829Y-96866287D01*
X108972616Y-97004743D01*
X108958342Y-97012984D01*
X108734826Y-97123209D01*
X108719602Y-97129515D01*
X108483606Y-97209625D01*
X108467696Y-97213888D01*
X108345477Y-97238199D01*
X108223262Y-97262509D01*
X108206922Y-97264660D01*
X108058134Y-97274413D01*
X107991763Y-97278763D01*
X107968650Y-97277733D01*
X107965146Y-97277690D01*
X107956276Y-97276309D01*
X107947374Y-97277473D01*
X107947372Y-97277473D01*
X107933915Y-97279233D01*
X107924714Y-97280436D01*
X107908379Y-97281500D01*
X90219367Y-97281500D01*
X90199982Y-97280000D01*
X90185149Y-97277690D01*
X90185145Y-97277690D01*
X90176276Y-97276309D01*
X90167374Y-97277473D01*
X90167371Y-97277473D01*
X90159988Y-97278439D01*
X90135409Y-97279233D01*
X90090799Y-97276309D01*
X89913078Y-97264660D01*
X89896738Y-97262509D01*
X89774523Y-97238199D01*
X89652304Y-97213888D01*
X89636394Y-97209625D01*
X89400398Y-97129515D01*
X89385174Y-97123209D01*
X89161658Y-97012984D01*
X89147384Y-97004743D01*
X88940171Y-96866287D01*
X88927095Y-96856254D01*
X88739722Y-96691932D01*
X88728068Y-96680278D01*
X88563746Y-96492905D01*
X88553713Y-96479829D01*
X88415257Y-96272616D01*
X88407016Y-96258342D01*
X88296791Y-96034826D01*
X88290484Y-96019600D01*
X88210375Y-95783606D01*
X88206111Y-95767693D01*
X88204202Y-95758093D01*
X88157491Y-95523262D01*
X88155340Y-95506922D01*
X88141476Y-95295407D01*
X88142650Y-95272232D01*
X88142334Y-95272204D01*
X88142770Y-95267344D01*
X88143576Y-95262552D01*
X88143729Y-95250000D01*
X88139773Y-95222376D01*
X88139724Y-95221695D01*
X88807251Y-95221695D01*
X88807548Y-95226848D01*
X88807548Y-95226851D01*
X88813011Y-95321590D01*
X88820110Y-95444715D01*
X88821247Y-95449761D01*
X88821248Y-95449767D01*
X88841119Y-95537939D01*
X88869222Y-95662639D01*
X88923093Y-95795308D01*
X88941579Y-95840833D01*
X88953266Y-95869616D01*
X88955965Y-95874020D01*
X89049969Y-96027421D01*
X89069987Y-96060088D01*
X89216250Y-96228938D01*
X89388126Y-96371632D01*
X89581000Y-96484338D01*
X89585825Y-96486180D01*
X89585826Y-96486181D01*
X89658612Y-96513975D01*
X89789692Y-96564030D01*
X89794760Y-96565061D01*
X89794763Y-96565062D01*
X89902017Y-96586883D01*
X90008597Y-96608567D01*
X90013772Y-96608757D01*
X90013774Y-96608757D01*
X90226673Y-96616564D01*
X90226677Y-96616564D01*
X90231837Y-96616753D01*
X90236957Y-96616097D01*
X90236959Y-96616097D01*
X90448288Y-96589025D01*
X90448289Y-96589025D01*
X90453416Y-96588368D01*
X90458366Y-96586883D01*
X90662429Y-96525661D01*
X90662434Y-96525659D01*
X90667384Y-96524174D01*
X90867994Y-96425896D01*
X91049860Y-96296173D01*
X91073500Y-96272616D01*
X91204435Y-96142137D01*
X91208096Y-96138489D01*
X91217415Y-96125521D01*
X91335435Y-95961277D01*
X91338453Y-95957077D01*
X91396008Y-95840624D01*
X91435136Y-95761453D01*
X91435137Y-95761451D01*
X91437430Y-95756811D01*
X91456788Y-95693095D01*
X92898001Y-95693095D01*
X92898338Y-95699614D01*
X92908257Y-95795206D01*
X92911149Y-95808600D01*
X92962588Y-95962784D01*
X92968761Y-95975962D01*
X93054063Y-96113807D01*
X93063099Y-96125208D01*
X93177829Y-96239739D01*
X93189240Y-96248751D01*
X93327243Y-96333816D01*
X93340424Y-96339963D01*
X93494710Y-96391138D01*
X93508086Y-96394005D01*
X93602438Y-96403672D01*
X93608854Y-96404000D01*
X93796385Y-96404000D01*
X93811624Y-96399525D01*
X93812829Y-96398135D01*
X93814500Y-96390452D01*
X93814500Y-96385884D01*
X94322500Y-96385884D01*
X94326975Y-96401123D01*
X94328365Y-96402328D01*
X94336048Y-96403999D01*
X94528095Y-96403999D01*
X94534614Y-96403662D01*
X94630206Y-96393743D01*
X94643600Y-96390851D01*
X94797784Y-96339412D01*
X94810962Y-96333239D01*
X94948807Y-96247937D01*
X94960208Y-96238901D01*
X95074739Y-96124171D01*
X95083751Y-96112760D01*
X95168816Y-95974757D01*
X95174963Y-95961576D01*
X95226138Y-95807290D01*
X95229005Y-95793914D01*
X95238672Y-95699562D01*
X95239000Y-95693146D01*
X95239000Y-95268115D01*
X95234525Y-95252876D01*
X95233135Y-95251671D01*
X95225452Y-95250000D01*
X94340615Y-95250000D01*
X94325376Y-95254475D01*
X94324171Y-95255865D01*
X94322500Y-95263548D01*
X94322500Y-96385884D01*
X93814500Y-96385884D01*
X93814500Y-95268115D01*
X93810025Y-95252876D01*
X93808635Y-95251671D01*
X93800952Y-95250000D01*
X92916116Y-95250000D01*
X92900877Y-95254475D01*
X92899672Y-95255865D01*
X92898001Y-95263548D01*
X92898001Y-95693095D01*
X91456788Y-95693095D01*
X91502370Y-95543069D01*
X91531529Y-95321590D01*
X91532947Y-95263548D01*
X91533074Y-95258365D01*
X91533074Y-95258361D01*
X91533156Y-95255000D01*
X91514852Y-95032361D01*
X91486821Y-94920765D01*
X91489625Y-94849823D01*
X91519930Y-94800974D01*
X91597019Y-94723885D01*
X92898000Y-94723885D01*
X92902475Y-94739124D01*
X92903865Y-94740329D01*
X92911548Y-94742000D01*
X93796385Y-94742000D01*
X93811624Y-94737525D01*
X93812829Y-94736135D01*
X93814500Y-94728452D01*
X93814500Y-94723885D01*
X94322500Y-94723885D01*
X94326975Y-94739124D01*
X94328365Y-94740329D01*
X94336048Y-94742000D01*
X95220884Y-94742000D01*
X95236123Y-94737525D01*
X95237328Y-94736135D01*
X95238999Y-94728452D01*
X95238999Y-94298905D01*
X95238662Y-94292386D01*
X95228743Y-94196794D01*
X95225851Y-94183400D01*
X95174412Y-94029216D01*
X95168239Y-94016038D01*
X95082937Y-93878193D01*
X95073901Y-93866792D01*
X94959171Y-93752261D01*
X94947760Y-93743249D01*
X94809757Y-93658184D01*
X94796576Y-93652037D01*
X94642290Y-93600862D01*
X94628914Y-93597995D01*
X94534562Y-93588328D01*
X94528145Y-93588000D01*
X94340615Y-93588000D01*
X94325376Y-93592475D01*
X94324171Y-93593865D01*
X94322500Y-93601548D01*
X94322500Y-94723885D01*
X93814500Y-94723885D01*
X93814500Y-93606116D01*
X93810025Y-93590877D01*
X93808635Y-93589672D01*
X93800952Y-93588001D01*
X93608905Y-93588001D01*
X93602386Y-93588338D01*
X93506794Y-93598257D01*
X93493400Y-93601149D01*
X93339216Y-93652588D01*
X93326038Y-93658761D01*
X93188193Y-93744063D01*
X93176792Y-93753099D01*
X93062261Y-93867829D01*
X93053249Y-93879240D01*
X92968184Y-94017243D01*
X92962037Y-94030424D01*
X92910862Y-94184710D01*
X92907995Y-94198086D01*
X92898328Y-94292438D01*
X92898000Y-94298855D01*
X92898000Y-94723885D01*
X91597019Y-94723885D01*
X92458944Y-93861961D01*
X93400500Y-92920405D01*
X93462812Y-92886379D01*
X93489595Y-92883500D01*
X95351502Y-92883500D01*
X95353950Y-92883307D01*
X95353958Y-92883307D01*
X95382421Y-92881067D01*
X95382426Y-92881066D01*
X95388831Y-92880562D01*
X95488769Y-92851528D01*
X95540988Y-92836357D01*
X95540990Y-92836356D01*
X95548601Y-92834145D01*
X95616503Y-92793988D01*
X95684980Y-92753491D01*
X95684983Y-92753489D01*
X95691807Y-92749453D01*
X95809453Y-92631807D01*
X95813489Y-92624983D01*
X95813491Y-92624980D01*
X95890108Y-92495427D01*
X95894145Y-92488601D01*
X95905485Y-92449570D01*
X95911528Y-92428769D01*
X95940562Y-92328831D01*
X95941809Y-92312994D01*
X95943307Y-92293958D01*
X95943307Y-92293950D01*
X95943500Y-92291502D01*
X95943500Y-91858498D01*
X95940562Y-91821169D01*
X95894145Y-91661399D01*
X95809453Y-91518193D01*
X95806771Y-91515511D01*
X95781498Y-91451139D01*
X95795400Y-91381516D01*
X95805572Y-91365688D01*
X95809453Y-91361807D01*
X95894145Y-91218601D01*
X95898815Y-91202529D01*
X95938767Y-91065008D01*
X95940562Y-91058831D01*
X95941707Y-91044292D01*
X95943307Y-91023958D01*
X95943307Y-91023950D01*
X95943500Y-91021502D01*
X95943500Y-90588498D01*
X95940562Y-90551169D01*
X95894145Y-90391399D01*
X95809453Y-90248193D01*
X95806771Y-90245511D01*
X95781498Y-90181139D01*
X95795400Y-90111516D01*
X95805572Y-90095688D01*
X95809453Y-90091807D01*
X95894145Y-89948601D01*
X95940562Y-89788831D01*
X95943500Y-89751502D01*
X95943500Y-89318498D01*
X95940562Y-89281169D01*
X95894145Y-89121399D01*
X95809453Y-88978193D01*
X95806771Y-88975511D01*
X95781498Y-88911139D01*
X95795400Y-88841516D01*
X95805572Y-88825688D01*
X95809453Y-88821807D01*
X95894145Y-88678601D01*
X95897799Y-88666026D01*
X95921213Y-88585432D01*
X95940562Y-88518831D01*
X95941707Y-88504292D01*
X95943307Y-88483958D01*
X95943307Y-88483950D01*
X95943500Y-88481502D01*
X95943500Y-88048498D01*
X95940562Y-88011169D01*
X95894145Y-87851399D01*
X95809453Y-87708193D01*
X95806771Y-87705511D01*
X95781498Y-87641139D01*
X95795400Y-87571516D01*
X95805572Y-87555688D01*
X95809453Y-87551807D01*
X95894145Y-87408601D01*
X95905485Y-87369570D01*
X95938767Y-87255008D01*
X95940562Y-87248831D01*
X95943500Y-87211502D01*
X95943500Y-86778498D01*
X95943099Y-86773401D01*
X95941067Y-86747579D01*
X95941066Y-86747574D01*
X95940562Y-86741169D01*
X95905178Y-86619373D01*
X95894960Y-86584203D01*
X95895163Y-86513207D01*
X95933717Y-86453591D01*
X95998382Y-86424283D01*
X96068627Y-86434587D01*
X96105052Y-86459956D01*
X96334878Y-86689782D01*
X96368904Y-86752094D01*
X96371092Y-86765703D01*
X96388458Y-86930928D01*
X96447473Y-87112556D01*
X96542960Y-87277944D01*
X96547378Y-87282851D01*
X96547379Y-87282852D01*
X96630085Y-87374706D01*
X96670747Y-87419866D01*
X96763930Y-87487568D01*
X96813252Y-87523402D01*
X96825248Y-87532118D01*
X96831276Y-87534802D01*
X96831278Y-87534803D01*
X96969992Y-87596562D01*
X96999712Y-87609794D01*
X97087081Y-87628365D01*
X97180056Y-87648128D01*
X97180061Y-87648128D01*
X97186513Y-87649500D01*
X97377487Y-87649500D01*
X97383939Y-87648128D01*
X97383944Y-87648128D01*
X97476919Y-87628365D01*
X97564288Y-87609794D01*
X97594008Y-87596562D01*
X97732722Y-87534803D01*
X97732724Y-87534802D01*
X97738752Y-87532118D01*
X97750749Y-87523402D01*
X97800070Y-87487568D01*
X97893253Y-87419866D01*
X97933915Y-87374706D01*
X98016621Y-87282852D01*
X98016622Y-87282851D01*
X98021040Y-87277944D01*
X98116527Y-87112556D01*
X98175542Y-86930928D01*
X98195504Y-86741000D01*
X98182328Y-86615635D01*
X98176232Y-86557635D01*
X98176232Y-86557633D01*
X98175542Y-86551072D01*
X98116527Y-86369444D01*
X98111075Y-86360000D01*
X98063426Y-86277470D01*
X98021040Y-86204056D01*
X98001093Y-86181902D01*
X97897675Y-86067045D01*
X97897674Y-86067044D01*
X97893253Y-86062134D01*
X97738752Y-85949882D01*
X97732724Y-85947198D01*
X97732722Y-85947197D01*
X97570319Y-85874891D01*
X97570318Y-85874891D01*
X97564288Y-85872206D01*
X97470888Y-85852353D01*
X97383944Y-85833872D01*
X97383939Y-85833872D01*
X97377487Y-85832500D01*
X97321595Y-85832500D01*
X97253474Y-85812498D01*
X97232499Y-85795595D01*
X96769647Y-85332742D01*
X96762113Y-85324463D01*
X96758000Y-85317982D01*
X96743721Y-85304573D01*
X96729357Y-85291084D01*
X96693392Y-85229871D01*
X96696231Y-85158932D01*
X96736972Y-85100788D01*
X96790682Y-85078092D01*
X96790257Y-85076438D01*
X96797930Y-85074468D01*
X96805797Y-85073474D01*
X96813168Y-85070555D01*
X96813170Y-85070555D01*
X96846912Y-85057196D01*
X96858142Y-85053351D01*
X96892983Y-85043229D01*
X96892984Y-85043229D01*
X96900593Y-85041018D01*
X96907412Y-85036985D01*
X96907417Y-85036983D01*
X96918028Y-85030707D01*
X96935776Y-85022012D01*
X96954617Y-85014552D01*
X96990387Y-84988564D01*
X97000307Y-84982048D01*
X97031535Y-84963580D01*
X97031538Y-84963578D01*
X97038362Y-84959542D01*
X97052683Y-84945221D01*
X97067717Y-84932380D01*
X97077694Y-84925131D01*
X97084107Y-84920472D01*
X97112298Y-84886395D01*
X97120288Y-84877616D01*
X97232499Y-84765405D01*
X97294811Y-84731379D01*
X97321594Y-84728500D01*
X97377487Y-84728500D01*
X97383939Y-84727128D01*
X97383944Y-84727128D01*
X97500178Y-84702421D01*
X97564288Y-84688794D01*
X97570319Y-84686109D01*
X97732722Y-84613803D01*
X97732724Y-84613802D01*
X97738752Y-84611118D01*
X97893253Y-84498866D01*
X98021040Y-84356944D01*
X98116527Y-84191556D01*
X98175542Y-84009928D01*
X98187388Y-83897225D01*
X98194814Y-83826565D01*
X98195504Y-83820000D01*
X98187920Y-83747842D01*
X98176232Y-83636635D01*
X98176232Y-83636633D01*
X98175542Y-83630072D01*
X98116527Y-83448444D01*
X98088000Y-83399033D01*
X98067767Y-83363990D01*
X98021040Y-83283056D01*
X97988645Y-83247077D01*
X97897675Y-83146045D01*
X97897674Y-83146044D01*
X97893253Y-83141134D01*
X97763429Y-83046811D01*
X97744094Y-83032763D01*
X97744093Y-83032762D01*
X97738752Y-83028882D01*
X97732724Y-83026198D01*
X97732722Y-83026197D01*
X97570319Y-82953891D01*
X97570318Y-82953891D01*
X97564288Y-82951206D01*
X97440962Y-82924992D01*
X97383944Y-82912872D01*
X97383939Y-82912872D01*
X97377487Y-82911500D01*
X97186513Y-82911500D01*
X97180061Y-82912872D01*
X97180056Y-82912872D01*
X97123038Y-82924992D01*
X96999712Y-82951206D01*
X96993682Y-82953891D01*
X96993681Y-82953891D01*
X96831278Y-83026197D01*
X96831276Y-83026198D01*
X96825248Y-83028882D01*
X96819907Y-83032762D01*
X96819906Y-83032763D01*
X96800571Y-83046811D01*
X96670747Y-83141134D01*
X96666326Y-83146044D01*
X96666325Y-83146045D01*
X96575356Y-83247077D01*
X96542960Y-83283056D01*
X96496233Y-83363990D01*
X96476001Y-83399033D01*
X96447473Y-83448444D01*
X96388458Y-83630072D01*
X96387769Y-83636631D01*
X96387768Y-83636634D01*
X96380197Y-83708671D01*
X96353184Y-83774327D01*
X96294962Y-83814957D01*
X96254887Y-83821500D01*
X95983224Y-83821500D01*
X95915103Y-83801498D01*
X95868610Y-83747842D01*
X95858506Y-83677568D01*
X95874769Y-83631364D01*
X95894145Y-83598601D01*
X95898815Y-83582529D01*
X95938767Y-83445008D01*
X95940562Y-83438831D01*
X95941707Y-83424292D01*
X95943307Y-83403958D01*
X95943307Y-83403950D01*
X95943500Y-83401502D01*
X95943500Y-82968498D01*
X95942642Y-82957596D01*
X95941067Y-82937579D01*
X95941066Y-82937574D01*
X95940562Y-82931169D01*
X95894145Y-82771399D01*
X95809453Y-82628193D01*
X95806771Y-82625511D01*
X95781498Y-82561139D01*
X95795400Y-82491516D01*
X95805572Y-82475688D01*
X95809453Y-82471807D01*
X95894145Y-82328601D01*
X95940562Y-82168831D01*
X95943500Y-82131502D01*
X95943500Y-81698498D01*
X95940562Y-81661169D01*
X95894145Y-81501399D01*
X95831237Y-81395027D01*
X95813493Y-81365024D01*
X95813492Y-81365023D01*
X95809453Y-81358193D01*
X95806513Y-81355253D01*
X95781180Y-81290734D01*
X95795079Y-81221111D01*
X95807126Y-81202364D01*
X95813090Y-81194676D01*
X95889648Y-81065221D01*
X95895893Y-81050790D01*
X95934939Y-80916395D01*
X95934899Y-80902294D01*
X95927630Y-80899000D01*
X94282000Y-80899000D01*
X94213879Y-80878998D01*
X94167386Y-80825342D01*
X94156000Y-80773000D01*
X94156000Y-80372885D01*
X94664000Y-80372885D01*
X94668475Y-80388124D01*
X94669865Y-80389329D01*
X94677548Y-80391000D01*
X95921878Y-80391000D01*
X95935409Y-80387027D01*
X95936544Y-80379129D01*
X95895893Y-80239210D01*
X95889648Y-80224779D01*
X95813089Y-80095322D01*
X95803449Y-80082896D01*
X95697104Y-79976551D01*
X95684678Y-79966911D01*
X95555221Y-79890352D01*
X95540790Y-79884107D01*
X95394935Y-79841731D01*
X95382333Y-79839430D01*
X95353916Y-79837193D01*
X95348986Y-79837000D01*
X94682115Y-79837000D01*
X94666876Y-79841475D01*
X94665671Y-79842865D01*
X94664000Y-79850548D01*
X94664000Y-80372885D01*
X94156000Y-80372885D01*
X94156000Y-79855116D01*
X94151525Y-79839877D01*
X94150135Y-79838672D01*
X94142452Y-79837001D01*
X93471017Y-79837001D01*
X93466080Y-79837195D01*
X93437664Y-79839430D01*
X93425069Y-79841730D01*
X93279207Y-79884108D01*
X93265540Y-79890022D01*
X93195078Y-79898719D01*
X93131100Y-79867940D01*
X93093918Y-79807459D01*
X93089500Y-79774385D01*
X93089500Y-79394952D01*
X93109502Y-79326831D01*
X93163158Y-79280338D01*
X93233432Y-79270234D01*
X93281615Y-79287692D01*
X93327238Y-79315814D01*
X93340424Y-79321963D01*
X93494710Y-79373138D01*
X93508086Y-79376005D01*
X93602438Y-79385672D01*
X93608854Y-79386000D01*
X93796385Y-79386000D01*
X93811624Y-79381525D01*
X93812829Y-79380135D01*
X93814500Y-79372452D01*
X93814500Y-79367884D01*
X94322500Y-79367884D01*
X94326975Y-79383123D01*
X94328365Y-79384328D01*
X94336048Y-79385999D01*
X94528095Y-79385999D01*
X94534614Y-79385662D01*
X94630206Y-79375743D01*
X94643600Y-79372851D01*
X94797784Y-79321412D01*
X94810962Y-79315239D01*
X94948807Y-79229937D01*
X94960208Y-79220901D01*
X95074739Y-79106171D01*
X95083751Y-79094760D01*
X95168816Y-78956757D01*
X95174963Y-78943576D01*
X95226138Y-78789290D01*
X95229005Y-78775914D01*
X95238672Y-78681562D01*
X95239000Y-78675146D01*
X95239000Y-78250115D01*
X95234525Y-78234876D01*
X95233135Y-78233671D01*
X95225452Y-78232000D01*
X94340615Y-78232000D01*
X94325376Y-78236475D01*
X94324171Y-78237865D01*
X94322500Y-78245548D01*
X94322500Y-79367884D01*
X93814500Y-79367884D01*
X93814500Y-77705885D01*
X94322500Y-77705885D01*
X94326975Y-77721124D01*
X94328365Y-77722329D01*
X94336048Y-77724000D01*
X95220884Y-77724000D01*
X95236123Y-77719525D01*
X95237328Y-77718135D01*
X95238999Y-77710452D01*
X95238999Y-77280905D01*
X95238662Y-77274386D01*
X95228743Y-77178794D01*
X95225851Y-77165400D01*
X95174412Y-77011216D01*
X95168239Y-76998038D01*
X95082937Y-76860193D01*
X95073901Y-76848792D01*
X94959171Y-76734261D01*
X94947760Y-76725249D01*
X94809757Y-76640184D01*
X94796576Y-76634037D01*
X94642290Y-76582862D01*
X94628914Y-76579995D01*
X94534562Y-76570328D01*
X94528145Y-76570000D01*
X94340615Y-76570000D01*
X94325376Y-76574475D01*
X94324171Y-76575865D01*
X94322500Y-76583548D01*
X94322500Y-77705885D01*
X93814500Y-77705885D01*
X93814500Y-76588116D01*
X93810025Y-76572877D01*
X93808635Y-76571672D01*
X93800952Y-76570001D01*
X93608905Y-76570001D01*
X93602386Y-76570338D01*
X93506794Y-76580257D01*
X93493400Y-76583149D01*
X93339216Y-76634588D01*
X93326038Y-76640761D01*
X93188193Y-76726063D01*
X93176792Y-76735099D01*
X93112821Y-76799181D01*
X93050538Y-76833260D01*
X92979718Y-76828257D01*
X92934162Y-76793640D01*
X92931558Y-76796085D01*
X92926133Y-76790308D01*
X92921472Y-76783893D01*
X92887406Y-76755711D01*
X92878627Y-76747722D01*
X91521218Y-75390313D01*
X91487192Y-75328001D01*
X91489755Y-75264589D01*
X91500865Y-75228022D01*
X91502370Y-75223069D01*
X91531529Y-75001590D01*
X91533156Y-74935000D01*
X91514852Y-74712361D01*
X91507971Y-74684966D01*
X95173257Y-74684966D01*
X95203565Y-74819446D01*
X95206645Y-74829275D01*
X95286770Y-75026603D01*
X95291413Y-75035794D01*
X95402694Y-75217388D01*
X95408777Y-75225699D01*
X95548213Y-75386667D01*
X95555580Y-75393883D01*
X95719434Y-75529916D01*
X95727881Y-75535831D01*
X95911756Y-75643279D01*
X95921042Y-75647729D01*
X96120001Y-75723703D01*
X96129899Y-75726579D01*
X96233250Y-75747606D01*
X96247299Y-75746410D01*
X96251000Y-75736065D01*
X96251000Y-74689115D01*
X96246525Y-74673876D01*
X96245135Y-74672671D01*
X96237452Y-74671000D01*
X95188225Y-74671000D01*
X95174694Y-74674973D01*
X95173257Y-74684966D01*
X91507971Y-74684966D01*
X91460431Y-74495702D01*
X91371354Y-74290840D01*
X91331906Y-74229862D01*
X91252822Y-74107617D01*
X91252820Y-74107614D01*
X91250014Y-74103277D01*
X91246540Y-74099459D01*
X91246533Y-74099450D01*
X91102435Y-73941088D01*
X91071383Y-73877242D01*
X91079779Y-73806744D01*
X91124956Y-73751976D01*
X91151400Y-73738307D01*
X91258052Y-73698325D01*
X91273649Y-73689786D01*
X91375724Y-73613285D01*
X91388285Y-73600724D01*
X91464786Y-73498649D01*
X91473324Y-73483054D01*
X91518478Y-73362606D01*
X91522105Y-73347351D01*
X91527631Y-73296486D01*
X91528000Y-73289672D01*
X91528000Y-72667115D01*
X91523525Y-72651876D01*
X91522135Y-72650671D01*
X91514452Y-72649000D01*
X88830116Y-72649000D01*
X88814877Y-72653475D01*
X88813672Y-72654865D01*
X88812001Y-72662548D01*
X88812001Y-73289669D01*
X88812371Y-73296490D01*
X88817895Y-73347352D01*
X88821521Y-73362604D01*
X88866676Y-73483054D01*
X88875214Y-73498649D01*
X88951715Y-73600724D01*
X88964276Y-73613285D01*
X89066351Y-73689786D01*
X89081946Y-73698324D01*
X89190827Y-73739142D01*
X89247591Y-73781784D01*
X89272291Y-73848345D01*
X89257083Y-73917694D01*
X89237691Y-73944175D01*
X89235656Y-73946305D01*
X89110629Y-74077138D01*
X89107715Y-74081410D01*
X89107714Y-74081411D01*
X89099620Y-74093277D01*
X88984743Y-74261680D01*
X88969003Y-74295590D01*
X88893013Y-74459297D01*
X88890688Y-74464305D01*
X88830989Y-74679570D01*
X88807251Y-74901695D01*
X88807548Y-74906848D01*
X88807548Y-74906851D01*
X88819812Y-75119547D01*
X88820110Y-75124715D01*
X88821247Y-75129761D01*
X88821248Y-75129767D01*
X88840022Y-75213069D01*
X88869222Y-75342639D01*
X88930673Y-75493976D01*
X88947669Y-75535831D01*
X88953266Y-75549616D01*
X88955965Y-75554020D01*
X89062005Y-75727062D01*
X89069987Y-75740088D01*
X89216250Y-75908938D01*
X89388126Y-76051632D01*
X89458595Y-76092811D01*
X89461445Y-76094476D01*
X89510169Y-76146114D01*
X89523240Y-76215897D01*
X89496509Y-76281669D01*
X89456055Y-76315027D01*
X89443607Y-76321507D01*
X89439474Y-76324610D01*
X89439471Y-76324612D01*
X89428566Y-76332800D01*
X89264965Y-76455635D01*
X89199346Y-76524301D01*
X89155840Y-76569828D01*
X89110629Y-76617138D01*
X89107715Y-76621410D01*
X89107714Y-76621411D01*
X89099620Y-76633277D01*
X88984743Y-76801680D01*
X88957728Y-76859880D01*
X88893038Y-76999243D01*
X88890688Y-77004305D01*
X88830989Y-77219570D01*
X88807251Y-77441695D01*
X88807548Y-77446848D01*
X88807548Y-77446851D01*
X88813011Y-77541590D01*
X88820110Y-77664715D01*
X88821247Y-77669761D01*
X88821248Y-77669767D01*
X88840022Y-77753069D01*
X88869222Y-77882639D01*
X88953266Y-78089616D01*
X88955965Y-78094020D01*
X89051620Y-78250115D01*
X89069987Y-78280088D01*
X89216250Y-78448938D01*
X89388126Y-78591632D01*
X89458595Y-78632811D01*
X89461445Y-78634476D01*
X89510169Y-78686114D01*
X89523240Y-78755897D01*
X89496509Y-78821669D01*
X89456055Y-78855027D01*
X89443607Y-78861507D01*
X89439474Y-78864610D01*
X89439471Y-78864612D01*
X89269100Y-78992530D01*
X89264965Y-78995635D01*
X89199346Y-79064301D01*
X89134390Y-79132274D01*
X89110629Y-79157138D01*
X89107715Y-79161410D01*
X89107714Y-79161411D01*
X89099620Y-79173277D01*
X88984743Y-79341680D01*
X88890688Y-79544305D01*
X88830989Y-79759570D01*
X88807251Y-79981695D01*
X88807548Y-79986848D01*
X88807548Y-79986851D01*
X88819661Y-80196930D01*
X88820110Y-80204715D01*
X88821247Y-80209761D01*
X88821248Y-80209767D01*
X88839334Y-80290018D01*
X88869222Y-80422639D01*
X88953266Y-80629616D01*
X88955965Y-80634020D01*
X89041132Y-80773000D01*
X89069987Y-80820088D01*
X89216250Y-80988938D01*
X89388126Y-81131632D01*
X89429579Y-81155855D01*
X89461445Y-81174476D01*
X89510169Y-81226114D01*
X89523240Y-81295897D01*
X89496509Y-81361669D01*
X89456055Y-81395027D01*
X89443607Y-81401507D01*
X89439474Y-81404610D01*
X89439471Y-81404612D01*
X89269100Y-81532530D01*
X89264965Y-81535635D01*
X89237236Y-81564652D01*
X89150908Y-81654989D01*
X89110629Y-81697138D01*
X89107715Y-81701410D01*
X89107714Y-81701411D01*
X89099620Y-81713277D01*
X88984743Y-81881680D01*
X88890688Y-82084305D01*
X88830989Y-82299570D01*
X88807251Y-82521695D01*
X88807548Y-82526848D01*
X88807548Y-82526851D01*
X88813785Y-82635022D01*
X88820110Y-82744715D01*
X88821247Y-82749761D01*
X88821248Y-82749767D01*
X88840022Y-82833069D01*
X88869222Y-82962639D01*
X88953266Y-83169616D01*
X89069987Y-83360088D01*
X89216250Y-83528938D01*
X89388126Y-83671632D01*
X89451511Y-83708671D01*
X89461445Y-83714476D01*
X89510169Y-83766114D01*
X89523240Y-83835897D01*
X89496509Y-83901669D01*
X89456055Y-83935027D01*
X89443607Y-83941507D01*
X89439474Y-83944610D01*
X89439471Y-83944612D01*
X89269100Y-84072530D01*
X89264965Y-84075635D01*
X89110629Y-84237138D01*
X89107715Y-84241410D01*
X89107714Y-84241411D01*
X89099620Y-84253277D01*
X88984743Y-84421680D01*
X88951194Y-84493955D01*
X88898611Y-84607237D01*
X88890688Y-84624305D01*
X88830989Y-84839570D01*
X88807251Y-85061695D01*
X88807548Y-85066848D01*
X88807548Y-85066851D01*
X88816948Y-85229871D01*
X88820110Y-85284715D01*
X88821247Y-85289761D01*
X88821248Y-85289767D01*
X88840022Y-85373069D01*
X88869222Y-85502639D01*
X88953266Y-85709616D01*
X89069987Y-85900088D01*
X89216250Y-86068938D01*
X89388126Y-86211632D01*
X89430683Y-86236500D01*
X89461445Y-86254476D01*
X89510169Y-86306114D01*
X89523240Y-86375897D01*
X89496509Y-86441669D01*
X89456055Y-86475027D01*
X89443607Y-86481507D01*
X89439474Y-86484610D01*
X89439471Y-86484612D01*
X89273305Y-86609373D01*
X89264965Y-86615635D01*
X89199346Y-86684301D01*
X89150908Y-86734989D01*
X89110629Y-86777138D01*
X89107715Y-86781410D01*
X89107714Y-86781411D01*
X89099620Y-86793277D01*
X88984743Y-86961680D01*
X88937715Y-87062993D01*
X88893013Y-87159297D01*
X88890688Y-87164305D01*
X88830989Y-87379570D01*
X88807251Y-87601695D01*
X88807548Y-87606848D01*
X88807548Y-87606851D01*
X88813785Y-87715022D01*
X88820110Y-87824715D01*
X88821247Y-87829761D01*
X88821248Y-87829767D01*
X88840022Y-87913069D01*
X88869222Y-88042639D01*
X88910324Y-88143861D01*
X88939902Y-88216703D01*
X88953266Y-88249616D01*
X88955965Y-88254020D01*
X89037984Y-88387863D01*
X89069987Y-88440088D01*
X89216250Y-88608938D01*
X89292846Y-88672529D01*
X89378753Y-88743850D01*
X89388126Y-88751632D01*
X89439386Y-88781586D01*
X89461445Y-88794476D01*
X89510169Y-88846114D01*
X89523240Y-88915897D01*
X89496509Y-88981669D01*
X89456055Y-89015027D01*
X89443607Y-89021507D01*
X89439474Y-89024610D01*
X89439471Y-89024612D01*
X89269100Y-89152530D01*
X89264965Y-89155635D01*
X89110629Y-89317138D01*
X89107715Y-89321410D01*
X89107714Y-89321411D01*
X89099620Y-89333277D01*
X88984743Y-89501680D01*
X88890688Y-89704305D01*
X88830989Y-89919570D01*
X88807251Y-90141695D01*
X88807548Y-90146848D01*
X88807548Y-90146851D01*
X88816405Y-90300458D01*
X88820110Y-90364715D01*
X88821247Y-90369761D01*
X88821248Y-90369767D01*
X88840022Y-90453069D01*
X88869222Y-90582639D01*
X88953266Y-90789616D01*
X89069987Y-90980088D01*
X89216250Y-91148938D01*
X89388126Y-91291632D01*
X89458595Y-91332811D01*
X89461445Y-91334476D01*
X89510169Y-91386114D01*
X89523240Y-91455897D01*
X89496509Y-91521669D01*
X89456055Y-91555027D01*
X89449549Y-91558414D01*
X89443607Y-91561507D01*
X89439474Y-91564610D01*
X89439471Y-91564612D01*
X89282130Y-91682747D01*
X89264965Y-91695635D01*
X89110629Y-91857138D01*
X89107715Y-91861410D01*
X89107714Y-91861411D01*
X89099620Y-91873277D01*
X88984743Y-92041680D01*
X88890688Y-92244305D01*
X88830989Y-92459570D01*
X88807251Y-92681695D01*
X88807548Y-92686848D01*
X88807548Y-92686851D01*
X88818614Y-92878767D01*
X88820110Y-92904715D01*
X88821247Y-92909761D01*
X88821248Y-92909767D01*
X88840022Y-92993069D01*
X88869222Y-93122639D01*
X88953266Y-93329616D01*
X89069987Y-93520088D01*
X89216250Y-93688938D01*
X89388126Y-93831632D01*
X89405592Y-93841838D01*
X89461445Y-93874476D01*
X89510169Y-93926114D01*
X89523240Y-93995897D01*
X89496509Y-94061669D01*
X89456055Y-94095027D01*
X89443607Y-94101507D01*
X89439474Y-94104610D01*
X89439471Y-94104612D01*
X89269100Y-94232530D01*
X89264965Y-94235635D01*
X89110629Y-94397138D01*
X88984743Y-94581680D01*
X88982564Y-94586375D01*
X88908701Y-94745500D01*
X88890688Y-94784305D01*
X88830989Y-94999570D01*
X88807251Y-95221695D01*
X88139724Y-95221695D01*
X88138500Y-95204514D01*
X88138500Y-72443250D01*
X88140246Y-72422345D01*
X88142770Y-72407344D01*
X88142770Y-72407341D01*
X88143576Y-72402552D01*
X88143729Y-72390000D01*
X88142003Y-72377947D01*
X88141001Y-72351845D01*
X88155340Y-72133078D01*
X88156682Y-72122885D01*
X88812000Y-72122885D01*
X88816475Y-72138124D01*
X88817865Y-72139329D01*
X88825548Y-72141000D01*
X89897885Y-72141000D01*
X89913124Y-72136525D01*
X89914329Y-72135135D01*
X89916000Y-72127452D01*
X89916000Y-72122885D01*
X90424000Y-72122885D01*
X90428475Y-72138124D01*
X90429865Y-72139329D01*
X90437548Y-72141000D01*
X91509884Y-72141000D01*
X91525123Y-72136525D01*
X91526328Y-72135135D01*
X91527999Y-72127452D01*
X91527999Y-71500331D01*
X91527629Y-71493510D01*
X91522105Y-71442648D01*
X91518479Y-71427396D01*
X91473324Y-71306946D01*
X91464786Y-71291351D01*
X91388285Y-71189276D01*
X91375724Y-71176715D01*
X91273649Y-71100214D01*
X91258054Y-71091676D01*
X91137606Y-71046522D01*
X91122351Y-71042895D01*
X91071486Y-71037369D01*
X91064672Y-71037000D01*
X90442115Y-71037000D01*
X90426876Y-71041475D01*
X90425671Y-71042865D01*
X90424000Y-71050548D01*
X90424000Y-72122885D01*
X89916000Y-72122885D01*
X89916000Y-71055116D01*
X89911525Y-71039877D01*
X89910135Y-71038672D01*
X89902452Y-71037001D01*
X89275331Y-71037001D01*
X89268510Y-71037371D01*
X89217648Y-71042895D01*
X89202396Y-71046521D01*
X89081946Y-71091676D01*
X89066351Y-71100214D01*
X88964276Y-71176715D01*
X88951715Y-71189276D01*
X88875214Y-71291351D01*
X88866676Y-71306946D01*
X88821522Y-71427394D01*
X88817895Y-71442649D01*
X88812369Y-71493514D01*
X88812000Y-71500328D01*
X88812000Y-72122885D01*
X88156682Y-72122885D01*
X88157491Y-72116738D01*
X88206111Y-71872307D01*
X88210375Y-71856394D01*
X88290485Y-71620398D01*
X88296791Y-71605174D01*
X88407016Y-71381658D01*
X88415257Y-71367384D01*
X88553713Y-71160171D01*
X88563746Y-71147095D01*
X88728068Y-70959722D01*
X88739722Y-70948068D01*
X88927095Y-70783746D01*
X88940171Y-70773713D01*
X89147384Y-70635257D01*
X89161658Y-70627016D01*
X89385174Y-70516791D01*
X89400400Y-70510484D01*
X89636394Y-70430375D01*
X89652304Y-70426112D01*
X89806929Y-70395355D01*
X89896738Y-70377491D01*
X89913078Y-70375340D01*
X90061866Y-70365587D01*
X90128237Y-70361237D01*
X90151350Y-70362267D01*
X90154854Y-70362310D01*
X90163724Y-70363691D01*
X90172626Y-70362527D01*
X90172628Y-70362527D01*
X90189449Y-70360327D01*
X90195286Y-70359564D01*
X90211621Y-70358500D01*
X95986844Y-70358500D01*
X96054965Y-70378502D01*
G37*
G04 #@! TD.AperFunction*
G04 #@! TA.AperFunction,Conductor*
G36*
X106820612Y-73163502D02*
G01*
X106849402Y-73190595D01*
X106849987Y-73190088D01*
X106996250Y-73358938D01*
X107168126Y-73501632D01*
X107238595Y-73542811D01*
X107241445Y-73544476D01*
X107290169Y-73596114D01*
X107303240Y-73665897D01*
X107276509Y-73731669D01*
X107236055Y-73765027D01*
X107223607Y-73771507D01*
X107219474Y-73774610D01*
X107219471Y-73774612D01*
X107049100Y-73902530D01*
X107044965Y-73905635D01*
X106890629Y-74067138D01*
X106887715Y-74071410D01*
X106887714Y-74071411D01*
X106875404Y-74089457D01*
X106764743Y-74251680D01*
X106670688Y-74454305D01*
X106610989Y-74669570D01*
X106587251Y-74891695D01*
X106587548Y-74896848D01*
X106587548Y-74896851D01*
X106595963Y-75042793D01*
X106600110Y-75114715D01*
X106601247Y-75119761D01*
X106601248Y-75119767D01*
X106633453Y-75262668D01*
X106628917Y-75333520D01*
X106599631Y-75379464D01*
X105118507Y-76860588D01*
X105056195Y-76894614D01*
X104985380Y-76889549D01*
X104935659Y-76853388D01*
X104935083Y-76853965D01*
X104931405Y-76850294D01*
X104930666Y-76849756D01*
X104929906Y-76848797D01*
X104815171Y-76734261D01*
X104803760Y-76725249D01*
X104665757Y-76640184D01*
X104652576Y-76634037D01*
X104498290Y-76582862D01*
X104484914Y-76579995D01*
X104390562Y-76570328D01*
X104384145Y-76570000D01*
X104196615Y-76570000D01*
X104181376Y-76574475D01*
X104180171Y-76575865D01*
X104178500Y-76583548D01*
X104178500Y-79367884D01*
X104182975Y-79383123D01*
X104184365Y-79384328D01*
X104192048Y-79385999D01*
X104384095Y-79385999D01*
X104390614Y-79385662D01*
X104486206Y-79375743D01*
X104499600Y-79372851D01*
X104610624Y-79335811D01*
X104681574Y-79333227D01*
X104742658Y-79369411D01*
X104774482Y-79432875D01*
X104776500Y-79455335D01*
X104776500Y-79710500D01*
X104756498Y-79778621D01*
X104702842Y-79825114D01*
X104650500Y-79836500D01*
X102768498Y-79836500D01*
X102766050Y-79836693D01*
X102766042Y-79836693D01*
X102737579Y-79838933D01*
X102737574Y-79838934D01*
X102731169Y-79839438D01*
X102724993Y-79841232D01*
X102724989Y-79841233D01*
X102586398Y-79881497D01*
X102551246Y-79886500D01*
X99944500Y-79886500D01*
X99876379Y-79866498D01*
X99829886Y-79812842D01*
X99818500Y-79760500D01*
X99818500Y-79394307D01*
X99838502Y-79326186D01*
X99892158Y-79279693D01*
X99962432Y-79269589D01*
X100010616Y-79287047D01*
X100057288Y-79315816D01*
X100064262Y-79320115D01*
X100116378Y-79337401D01*
X100225611Y-79373632D01*
X100225613Y-79373632D01*
X100232139Y-79375797D01*
X100238975Y-79376497D01*
X100238978Y-79376498D01*
X100282031Y-79380909D01*
X100336600Y-79386500D01*
X101262400Y-79386500D01*
X101265646Y-79386163D01*
X101265650Y-79386163D01*
X101361308Y-79376238D01*
X101361312Y-79376237D01*
X101368166Y-79375526D01*
X101374702Y-79373345D01*
X101374704Y-79373345D01*
X101514122Y-79326831D01*
X101535946Y-79319550D01*
X101686348Y-79226478D01*
X101811305Y-79101303D01*
X101904115Y-78950738D01*
X101935861Y-78855027D01*
X101957632Y-78789389D01*
X101957632Y-78789387D01*
X101959797Y-78782861D01*
X101961972Y-78761638D01*
X101967842Y-78704338D01*
X101970500Y-78678400D01*
X101970500Y-78675095D01*
X102754001Y-78675095D01*
X102754338Y-78681614D01*
X102764257Y-78777206D01*
X102767149Y-78790600D01*
X102818588Y-78944784D01*
X102824761Y-78957962D01*
X102910063Y-79095807D01*
X102919099Y-79107208D01*
X103033829Y-79221739D01*
X103045240Y-79230751D01*
X103183243Y-79315816D01*
X103196424Y-79321963D01*
X103350710Y-79373138D01*
X103364086Y-79376005D01*
X103458438Y-79385672D01*
X103464854Y-79386000D01*
X103652385Y-79386000D01*
X103667624Y-79381525D01*
X103668829Y-79380135D01*
X103670500Y-79372452D01*
X103670500Y-78250115D01*
X103666025Y-78234876D01*
X103664635Y-78233671D01*
X103656952Y-78232000D01*
X102772116Y-78232000D01*
X102756877Y-78236475D01*
X102755672Y-78237865D01*
X102754001Y-78245548D01*
X102754001Y-78675095D01*
X101970500Y-78675095D01*
X101970500Y-77705885D01*
X102754000Y-77705885D01*
X102758475Y-77721124D01*
X102759865Y-77722329D01*
X102767548Y-77724000D01*
X103652385Y-77724000D01*
X103667624Y-77719525D01*
X103668829Y-77718135D01*
X103670500Y-77710452D01*
X103670500Y-76588116D01*
X103666025Y-76572877D01*
X103664635Y-76571672D01*
X103656952Y-76570001D01*
X103464905Y-76570001D01*
X103458386Y-76570338D01*
X103362794Y-76580257D01*
X103349400Y-76583149D01*
X103195216Y-76634588D01*
X103182038Y-76640761D01*
X103044193Y-76726063D01*
X103032792Y-76735099D01*
X102918261Y-76849829D01*
X102909249Y-76861240D01*
X102824184Y-76999243D01*
X102818037Y-77012424D01*
X102766862Y-77166710D01*
X102763995Y-77180086D01*
X102754328Y-77274438D01*
X102754000Y-77280855D01*
X102754000Y-77705885D01*
X101970500Y-77705885D01*
X101970500Y-77277600D01*
X101970163Y-77274350D01*
X101960238Y-77178692D01*
X101960237Y-77178688D01*
X101959526Y-77171834D01*
X101950855Y-77145842D01*
X101905868Y-77011002D01*
X101903550Y-77004054D01*
X101810478Y-76853652D01*
X101685303Y-76728695D01*
X101617884Y-76687137D01*
X101570390Y-76634364D01*
X101558000Y-76579877D01*
X101558000Y-75901022D01*
X101578002Y-75832901D01*
X101631658Y-75786408D01*
X101667989Y-75776043D01*
X101860415Y-75751393D01*
X101863288Y-75751025D01*
X101863289Y-75751025D01*
X101868416Y-75750368D01*
X101873366Y-75748883D01*
X102077429Y-75687661D01*
X102077434Y-75687659D01*
X102082384Y-75686174D01*
X102282994Y-75587896D01*
X102464860Y-75458173D01*
X102623096Y-75300489D01*
X102675169Y-75228022D01*
X102675203Y-75227974D01*
X102731198Y-75184326D01*
X102777526Y-75175500D01*
X103770821Y-75175500D01*
X103796479Y-75178140D01*
X103810950Y-75181150D01*
X103810953Y-75181150D01*
X103818115Y-75182640D01*
X103827599Y-75182383D01*
X103849962Y-75183771D01*
X103850638Y-75183874D01*
X103852117Y-75184099D01*
X103852120Y-75184099D01*
X103859349Y-75185199D01*
X103866640Y-75184606D01*
X103866643Y-75184606D01*
X103923632Y-75179970D01*
X103930441Y-75179601D01*
X103973792Y-75178428D01*
X103994921Y-75177857D01*
X104004104Y-75175422D01*
X104026172Y-75171630D01*
X104035637Y-75170860D01*
X104097023Y-75150974D01*
X104103498Y-75149068D01*
X104165884Y-75132526D01*
X104174248Y-75128051D01*
X104194865Y-75119278D01*
X104196933Y-75118608D01*
X104196936Y-75118607D01*
X104203899Y-75116351D01*
X104210151Y-75112557D01*
X104210160Y-75112553D01*
X104259054Y-75082883D01*
X104264974Y-75079506D01*
X104270850Y-75076362D01*
X104321834Y-75049082D01*
X104327323Y-75044234D01*
X104327329Y-75044230D01*
X104328957Y-75042793D01*
X104346994Y-75029518D01*
X104355107Y-75024595D01*
X104363484Y-75017197D01*
X104402650Y-74978031D01*
X104408337Y-74972685D01*
X104454404Y-74932000D01*
X104461995Y-74921259D01*
X104475797Y-74904884D01*
X106200276Y-73180405D01*
X106262588Y-73146379D01*
X106289371Y-73143500D01*
X106752491Y-73143500D01*
X106820612Y-73163502D01*
G37*
G04 #@! TD.AperFunction*
M02*
