G04 #@! TF.GenerationSoftware,KiCad,Pcbnew,6.0.8-1.fc36*
G04 #@! TF.CreationDate,2022-11-01T17:46:47+01:00*
G04 #@! TF.ProjectId,avr32dd20_eval,61767233-3264-4643-9230-5f6576616c2e,rev?*
G04 #@! TF.SameCoordinates,Original*
G04 #@! TF.FileFunction,Legend,Top*
G04 #@! TF.FilePolarity,Positive*
%FSLAX46Y46*%
G04 Gerber Fmt 4.6, Leading zero omitted, Abs format (unit mm)*
G04 Created by KiCad (PCBNEW 6.0.8-1.fc36) date 2022-11-01 17:46:47*
%MOMM*%
%LPD*%
G01*
G04 APERTURE LIST*
G04 Aperture macros list*
%AMRoundRect*
0 Rectangle with rounded corners*
0 $1 Rounding radius*
0 $2 $3 $4 $5 $6 $7 $8 $9 X,Y pos of 4 corners*
0 Add a 4 corners polygon primitive as box body*
4,1,4,$2,$3,$4,$5,$6,$7,$8,$9,$2,$3,0*
0 Add four circle primitives for the rounded corners*
1,1,$1+$1,$2,$3*
1,1,$1+$1,$4,$5*
1,1,$1+$1,$6,$7*
1,1,$1+$1,$8,$9*
0 Add four rect primitives between the rounded corners*
20,1,$1+$1,$2,$3,$4,$5,0*
20,1,$1+$1,$4,$5,$6,$7,0*
20,1,$1+$1,$6,$7,$8,$9,0*
20,1,$1+$1,$8,$9,$2,$3,0*%
G04 Aperture macros list end*
%ADD10C,0.150000*%
%ADD11C,0.120000*%
%ADD12R,1.700000X1.700000*%
%ADD13O,1.700000X1.700000*%
%ADD14RoundRect,0.250000X0.412500X0.650000X-0.412500X0.650000X-0.412500X-0.650000X0.412500X-0.650000X0*%
%ADD15RoundRect,0.150000X-0.875000X-0.150000X0.875000X-0.150000X0.875000X0.150000X-0.875000X0.150000X0*%
%ADD16RoundRect,0.250000X-0.412500X-0.650000X0.412500X-0.650000X0.412500X0.650000X-0.412500X0.650000X0*%
G04 APERTURE END LIST*
D10*
X91575000Y-72961428D02*
X91527380Y-73032857D01*
X91527380Y-73140000D01*
X91575000Y-73247142D01*
X91670238Y-73318571D01*
X91765476Y-73354285D01*
X91955952Y-73390000D01*
X92098809Y-73390000D01*
X92289285Y-73354285D01*
X92384523Y-73318571D01*
X92479761Y-73247142D01*
X92527380Y-73140000D01*
X92527380Y-73068571D01*
X92479761Y-72961428D01*
X92432142Y-72925714D01*
X92098809Y-72925714D01*
X92098809Y-73068571D01*
X92527380Y-72604285D02*
X91527380Y-72604285D01*
X92527380Y-72175714D01*
X91527380Y-72175714D01*
X92527380Y-71818571D02*
X91527380Y-71818571D01*
X91527380Y-71640000D01*
X91575000Y-71532857D01*
X91670238Y-71461428D01*
X91765476Y-71425714D01*
X91955952Y-71390000D01*
X92098809Y-71390000D01*
X92289285Y-71425714D01*
X92384523Y-71461428D01*
X92479761Y-71532857D01*
X92527380Y-71640000D01*
X92527380Y-71818571D01*
X105370380Y-73263000D02*
X106370380Y-73013000D01*
X105370380Y-72763000D01*
X106275142Y-72084428D02*
X106322761Y-72120142D01*
X106370380Y-72227285D01*
X106370380Y-72298714D01*
X106322761Y-72405857D01*
X106227523Y-72477285D01*
X106132285Y-72513000D01*
X105941809Y-72548714D01*
X105798952Y-72548714D01*
X105608476Y-72513000D01*
X105513238Y-72477285D01*
X105418000Y-72405857D01*
X105370380Y-72298714D01*
X105370380Y-72227285D01*
X105418000Y-72120142D01*
X105465619Y-72084428D01*
X106275142Y-71334428D02*
X106322761Y-71370142D01*
X106370380Y-71477285D01*
X106370380Y-71548714D01*
X106322761Y-71655857D01*
X106227523Y-71727285D01*
X106132285Y-71763000D01*
X105941809Y-71798714D01*
X105798952Y-71798714D01*
X105608476Y-71763000D01*
X105513238Y-71727285D01*
X105418000Y-71655857D01*
X105370380Y-71548714D01*
X105370380Y-71477285D01*
X105418000Y-71370142D01*
X105465619Y-71334428D01*
X106370380Y-75858571D02*
X105370380Y-75858571D01*
X105370380Y-75572857D01*
X105418000Y-75501428D01*
X105465619Y-75465714D01*
X105560857Y-75430000D01*
X105703714Y-75430000D01*
X105798952Y-75465714D01*
X105846571Y-75501428D01*
X105894190Y-75572857D01*
X105894190Y-75858571D01*
X106370380Y-75108571D02*
X105370380Y-75108571D01*
X105370380Y-74930000D01*
X105418000Y-74822857D01*
X105513238Y-74751428D01*
X105608476Y-74715714D01*
X105798952Y-74680000D01*
X105941809Y-74680000D01*
X106132285Y-74715714D01*
X106227523Y-74751428D01*
X106322761Y-74822857D01*
X106370380Y-74930000D01*
X106370380Y-75108571D01*
X105370380Y-74430000D02*
X105370380Y-73930000D01*
X106370380Y-74251428D01*
X106370380Y-78398571D02*
X105370380Y-78398571D01*
X105370380Y-78112857D01*
X105418000Y-78041428D01*
X105465619Y-78005714D01*
X105560857Y-77970000D01*
X105703714Y-77970000D01*
X105798952Y-78005714D01*
X105846571Y-78041428D01*
X105894190Y-78112857D01*
X105894190Y-78398571D01*
X106370380Y-77648571D02*
X105370380Y-77648571D01*
X105370380Y-77470000D01*
X105418000Y-77362857D01*
X105513238Y-77291428D01*
X105608476Y-77255714D01*
X105798952Y-77220000D01*
X105941809Y-77220000D01*
X106132285Y-77255714D01*
X106227523Y-77291428D01*
X106322761Y-77362857D01*
X106370380Y-77470000D01*
X106370380Y-77648571D01*
X105370380Y-76577142D02*
X105370380Y-76720000D01*
X105418000Y-76791428D01*
X105465619Y-76827142D01*
X105608476Y-76898571D01*
X105798952Y-76934285D01*
X106179904Y-76934285D01*
X106275142Y-76898571D01*
X106322761Y-76862857D01*
X106370380Y-76791428D01*
X106370380Y-76648571D01*
X106322761Y-76577142D01*
X106275142Y-76541428D01*
X106179904Y-76505714D01*
X105941809Y-76505714D01*
X105846571Y-76541428D01*
X105798952Y-76577142D01*
X105751333Y-76648571D01*
X105751333Y-76791428D01*
X105798952Y-76862857D01*
X105846571Y-76898571D01*
X105941809Y-76934285D01*
X106370380Y-80938571D02*
X105370380Y-80938571D01*
X105370380Y-80652857D01*
X105418000Y-80581428D01*
X105465619Y-80545714D01*
X105560857Y-80510000D01*
X105703714Y-80510000D01*
X105798952Y-80545714D01*
X105846571Y-80581428D01*
X105894190Y-80652857D01*
X105894190Y-80938571D01*
X106370380Y-80188571D02*
X105370380Y-80188571D01*
X105370380Y-80010000D01*
X105418000Y-79902857D01*
X105513238Y-79831428D01*
X105608476Y-79795714D01*
X105798952Y-79760000D01*
X105941809Y-79760000D01*
X106132285Y-79795714D01*
X106227523Y-79831428D01*
X106322761Y-79902857D01*
X106370380Y-80010000D01*
X106370380Y-80188571D01*
X105370380Y-79081428D02*
X105370380Y-79438571D01*
X105846571Y-79474285D01*
X105798952Y-79438571D01*
X105751333Y-79367142D01*
X105751333Y-79188571D01*
X105798952Y-79117142D01*
X105846571Y-79081428D01*
X105941809Y-79045714D01*
X106179904Y-79045714D01*
X106275142Y-79081428D01*
X106322761Y-79117142D01*
X106370380Y-79188571D01*
X106370380Y-79367142D01*
X106322761Y-79438571D01*
X106275142Y-79474285D01*
X106370380Y-83478571D02*
X105370380Y-83478571D01*
X105370380Y-83192857D01*
X105418000Y-83121428D01*
X105465619Y-83085714D01*
X105560857Y-83050000D01*
X105703714Y-83050000D01*
X105798952Y-83085714D01*
X105846571Y-83121428D01*
X105894190Y-83192857D01*
X105894190Y-83478571D01*
X106370380Y-82728571D02*
X105370380Y-82728571D01*
X105370380Y-82550000D01*
X105418000Y-82442857D01*
X105513238Y-82371428D01*
X105608476Y-82335714D01*
X105798952Y-82300000D01*
X105941809Y-82300000D01*
X106132285Y-82335714D01*
X106227523Y-82371428D01*
X106322761Y-82442857D01*
X106370380Y-82550000D01*
X106370380Y-82728571D01*
X105703714Y-81657142D02*
X106370380Y-81657142D01*
X105322761Y-81835714D02*
X106037047Y-82014285D01*
X106037047Y-81550000D01*
X105370380Y-85911428D02*
X106370380Y-85661428D01*
X105370380Y-85411428D01*
X106370380Y-85161428D02*
X105370380Y-85161428D01*
X105370380Y-84661428D02*
X105370380Y-84518571D01*
X105418000Y-84447142D01*
X105513238Y-84375714D01*
X105703714Y-84340000D01*
X106037047Y-84340000D01*
X106227523Y-84375714D01*
X106322761Y-84447142D01*
X106370380Y-84518571D01*
X106370380Y-84661428D01*
X106322761Y-84732857D01*
X106227523Y-84804285D01*
X106037047Y-84840000D01*
X105703714Y-84840000D01*
X105513238Y-84804285D01*
X105418000Y-84732857D01*
X105370380Y-84661428D01*
X106370380Y-88558571D02*
X105370380Y-88558571D01*
X105370380Y-88272857D01*
X105418000Y-88201428D01*
X105465619Y-88165714D01*
X105560857Y-88130000D01*
X105703714Y-88130000D01*
X105798952Y-88165714D01*
X105846571Y-88201428D01*
X105894190Y-88272857D01*
X105894190Y-88558571D01*
X106275142Y-87380000D02*
X106322761Y-87415714D01*
X106370380Y-87522857D01*
X106370380Y-87594285D01*
X106322761Y-87701428D01*
X106227523Y-87772857D01*
X106132285Y-87808571D01*
X105941809Y-87844285D01*
X105798952Y-87844285D01*
X105608476Y-87808571D01*
X105513238Y-87772857D01*
X105418000Y-87701428D01*
X105370380Y-87594285D01*
X105370380Y-87522857D01*
X105418000Y-87415714D01*
X105465619Y-87380000D01*
X105370380Y-87130000D02*
X105370380Y-86665714D01*
X105751333Y-86915714D01*
X105751333Y-86808571D01*
X105798952Y-86737142D01*
X105846571Y-86701428D01*
X105941809Y-86665714D01*
X106179904Y-86665714D01*
X106275142Y-86701428D01*
X106322761Y-86737142D01*
X106370380Y-86808571D01*
X106370380Y-87022857D01*
X106322761Y-87094285D01*
X106275142Y-87130000D01*
X106370380Y-91098571D02*
X105370380Y-91098571D01*
X105370380Y-90812857D01*
X105418000Y-90741428D01*
X105465619Y-90705714D01*
X105560857Y-90670000D01*
X105703714Y-90670000D01*
X105798952Y-90705714D01*
X105846571Y-90741428D01*
X105894190Y-90812857D01*
X105894190Y-91098571D01*
X106275142Y-89920000D02*
X106322761Y-89955714D01*
X106370380Y-90062857D01*
X106370380Y-90134285D01*
X106322761Y-90241428D01*
X106227523Y-90312857D01*
X106132285Y-90348571D01*
X105941809Y-90384285D01*
X105798952Y-90384285D01*
X105608476Y-90348571D01*
X105513238Y-90312857D01*
X105418000Y-90241428D01*
X105370380Y-90134285D01*
X105370380Y-90062857D01*
X105418000Y-89955714D01*
X105465619Y-89920000D01*
X105465619Y-89634285D02*
X105418000Y-89598571D01*
X105370380Y-89527142D01*
X105370380Y-89348571D01*
X105418000Y-89277142D01*
X105465619Y-89241428D01*
X105560857Y-89205714D01*
X105656095Y-89205714D01*
X105798952Y-89241428D01*
X106370380Y-89670000D01*
X106370380Y-89205714D01*
X106370380Y-93638571D02*
X105370380Y-93638571D01*
X105370380Y-93352857D01*
X105418000Y-93281428D01*
X105465619Y-93245714D01*
X105560857Y-93210000D01*
X105703714Y-93210000D01*
X105798952Y-93245714D01*
X105846571Y-93281428D01*
X105894190Y-93352857D01*
X105894190Y-93638571D01*
X106275142Y-92460000D02*
X106322761Y-92495714D01*
X106370380Y-92602857D01*
X106370380Y-92674285D01*
X106322761Y-92781428D01*
X106227523Y-92852857D01*
X106132285Y-92888571D01*
X105941809Y-92924285D01*
X105798952Y-92924285D01*
X105608476Y-92888571D01*
X105513238Y-92852857D01*
X105418000Y-92781428D01*
X105370380Y-92674285D01*
X105370380Y-92602857D01*
X105418000Y-92495714D01*
X105465619Y-92460000D01*
X106370380Y-91745714D02*
X106370380Y-92174285D01*
X106370380Y-91960000D02*
X105370380Y-91960000D01*
X105513238Y-92031428D01*
X105608476Y-92102857D01*
X105656095Y-92174285D01*
X106370380Y-96125000D02*
X105370380Y-96125000D01*
X105370380Y-95839285D01*
X105418000Y-95767857D01*
X105465619Y-95732142D01*
X105560857Y-95696428D01*
X105703714Y-95696428D01*
X105798952Y-95732142D01*
X105846571Y-95767857D01*
X105894190Y-95839285D01*
X105894190Y-96125000D01*
X106084666Y-95410714D02*
X106084666Y-95053571D01*
X106370380Y-95482142D02*
X105370380Y-95232142D01*
X106370380Y-94982142D01*
X105370380Y-94803571D02*
X105370380Y-94303571D01*
X106370380Y-94625000D01*
X92654380Y-96125000D02*
X91654380Y-96125000D01*
X91654380Y-95839285D01*
X91702000Y-95767857D01*
X91749619Y-95732142D01*
X91844857Y-95696428D01*
X91987714Y-95696428D01*
X92082952Y-95732142D01*
X92130571Y-95767857D01*
X92178190Y-95839285D01*
X92178190Y-96125000D01*
X92368666Y-95410714D02*
X92368666Y-95053571D01*
X92654380Y-95482142D02*
X91654380Y-95232142D01*
X92654380Y-94982142D01*
X91654380Y-94410714D02*
X91654380Y-94553571D01*
X91702000Y-94625000D01*
X91749619Y-94660714D01*
X91892476Y-94732142D01*
X92082952Y-94767857D01*
X92463904Y-94767857D01*
X92559142Y-94732142D01*
X92606761Y-94696428D01*
X92654380Y-94625000D01*
X92654380Y-94482142D01*
X92606761Y-94410714D01*
X92559142Y-94375000D01*
X92463904Y-94339285D01*
X92225809Y-94339285D01*
X92130571Y-94375000D01*
X92082952Y-94410714D01*
X92035333Y-94482142D01*
X92035333Y-94625000D01*
X92082952Y-94696428D01*
X92130571Y-94732142D01*
X92225809Y-94767857D01*
X92654380Y-93585000D02*
X91654380Y-93585000D01*
X91654380Y-93299285D01*
X91702000Y-93227857D01*
X91749619Y-93192142D01*
X91844857Y-93156428D01*
X91987714Y-93156428D01*
X92082952Y-93192142D01*
X92130571Y-93227857D01*
X92178190Y-93299285D01*
X92178190Y-93585000D01*
X92368666Y-92870714D02*
X92368666Y-92513571D01*
X92654380Y-92942142D02*
X91654380Y-92692142D01*
X92654380Y-92442142D01*
X91654380Y-91835000D02*
X91654380Y-92192142D01*
X92130571Y-92227857D01*
X92082952Y-92192142D01*
X92035333Y-92120714D01*
X92035333Y-91942142D01*
X92082952Y-91870714D01*
X92130571Y-91835000D01*
X92225809Y-91799285D01*
X92463904Y-91799285D01*
X92559142Y-91835000D01*
X92606761Y-91870714D01*
X92654380Y-91942142D01*
X92654380Y-92120714D01*
X92606761Y-92192142D01*
X92559142Y-92227857D01*
X92527380Y-91045000D02*
X91527380Y-91045000D01*
X91527380Y-90759285D01*
X91575000Y-90687857D01*
X91622619Y-90652142D01*
X91717857Y-90616428D01*
X91860714Y-90616428D01*
X91955952Y-90652142D01*
X92003571Y-90687857D01*
X92051190Y-90759285D01*
X92051190Y-91045000D01*
X92241666Y-90330714D02*
X92241666Y-89973571D01*
X92527380Y-90402142D02*
X91527380Y-90152142D01*
X92527380Y-89902142D01*
X91860714Y-89330714D02*
X92527380Y-89330714D01*
X91479761Y-89509285D02*
X92194047Y-89687857D01*
X92194047Y-89223571D01*
X92527380Y-88505000D02*
X91527380Y-88505000D01*
X91527380Y-88219285D01*
X91575000Y-88147857D01*
X91622619Y-88112142D01*
X91717857Y-88076428D01*
X91860714Y-88076428D01*
X91955952Y-88112142D01*
X92003571Y-88147857D01*
X92051190Y-88219285D01*
X92051190Y-88505000D01*
X92241666Y-87790714D02*
X92241666Y-87433571D01*
X92527380Y-87862142D02*
X91527380Y-87612142D01*
X92527380Y-87362142D01*
X91527380Y-87183571D02*
X91527380Y-86719285D01*
X91908333Y-86969285D01*
X91908333Y-86862142D01*
X91955952Y-86790714D01*
X92003571Y-86755000D01*
X92098809Y-86719285D01*
X92336904Y-86719285D01*
X92432142Y-86755000D01*
X92479761Y-86790714D01*
X92527380Y-86862142D01*
X92527380Y-87076428D01*
X92479761Y-87147857D01*
X92432142Y-87183571D01*
X92527380Y-85965000D02*
X91527380Y-85965000D01*
X91527380Y-85679285D01*
X91575000Y-85607857D01*
X91622619Y-85572142D01*
X91717857Y-85536428D01*
X91860714Y-85536428D01*
X91955952Y-85572142D01*
X92003571Y-85607857D01*
X92051190Y-85679285D01*
X92051190Y-85965000D01*
X92241666Y-85250714D02*
X92241666Y-84893571D01*
X92527380Y-85322142D02*
X91527380Y-85072142D01*
X92527380Y-84822142D01*
X91622619Y-84607857D02*
X91575000Y-84572142D01*
X91527380Y-84500714D01*
X91527380Y-84322142D01*
X91575000Y-84250714D01*
X91622619Y-84215000D01*
X91717857Y-84179285D01*
X91813095Y-84179285D01*
X91955952Y-84215000D01*
X92527380Y-84643571D01*
X92527380Y-84179285D01*
X92527380Y-83425000D02*
X91527380Y-83425000D01*
X91527380Y-83139285D01*
X91575000Y-83067857D01*
X91622619Y-83032142D01*
X91717857Y-82996428D01*
X91860714Y-82996428D01*
X91955952Y-83032142D01*
X92003571Y-83067857D01*
X92051190Y-83139285D01*
X92051190Y-83425000D01*
X92241666Y-82710714D02*
X92241666Y-82353571D01*
X92527380Y-82782142D02*
X91527380Y-82532142D01*
X92527380Y-82282142D01*
X92527380Y-81639285D02*
X92527380Y-82067857D01*
X92527380Y-81853571D02*
X91527380Y-81853571D01*
X91670238Y-81925000D01*
X91765476Y-81996428D01*
X91813095Y-82067857D01*
X92527380Y-80885000D02*
X91527380Y-80885000D01*
X91527380Y-80599285D01*
X91575000Y-80527857D01*
X91622619Y-80492142D01*
X91717857Y-80456428D01*
X91860714Y-80456428D01*
X91955952Y-80492142D01*
X92003571Y-80527857D01*
X92051190Y-80599285D01*
X92051190Y-80885000D01*
X92241666Y-80170714D02*
X92241666Y-79813571D01*
X92527380Y-80242142D02*
X91527380Y-79992142D01*
X92527380Y-79742142D01*
X91527380Y-79349285D02*
X91527380Y-79277857D01*
X91575000Y-79206428D01*
X91622619Y-79170714D01*
X91717857Y-79135000D01*
X91908333Y-79099285D01*
X92146428Y-79099285D01*
X92336904Y-79135000D01*
X92432142Y-79170714D01*
X92479761Y-79206428D01*
X92527380Y-79277857D01*
X92527380Y-79349285D01*
X92479761Y-79420714D01*
X92432142Y-79456428D01*
X92336904Y-79492142D01*
X92146428Y-79527857D01*
X91908333Y-79527857D01*
X91717857Y-79492142D01*
X91622619Y-79456428D01*
X91575000Y-79420714D01*
X91527380Y-79349285D01*
X91527380Y-78612857D02*
X92336904Y-78612857D01*
X92432142Y-78577142D01*
X92479761Y-78541428D01*
X92527380Y-78470000D01*
X92527380Y-78327142D01*
X92479761Y-78255714D01*
X92432142Y-78220000D01*
X92336904Y-78184285D01*
X91527380Y-78184285D01*
X92527380Y-77827142D02*
X91527380Y-77827142D01*
X91527380Y-77541428D01*
X91575000Y-77470000D01*
X91622619Y-77434285D01*
X91717857Y-77398571D01*
X91860714Y-77398571D01*
X91955952Y-77434285D01*
X92003571Y-77470000D01*
X92051190Y-77541428D01*
X92051190Y-77827142D01*
X92527380Y-77077142D02*
X91527380Y-77077142D01*
X91527380Y-76898571D01*
X91575000Y-76791428D01*
X91670238Y-76720000D01*
X91765476Y-76684285D01*
X91955952Y-76648571D01*
X92098809Y-76648571D01*
X92289285Y-76684285D01*
X92384523Y-76720000D01*
X92479761Y-76791428D01*
X92527380Y-76898571D01*
X92527380Y-77077142D01*
X92527380Y-76327142D02*
X91527380Y-76327142D01*
X92527380Y-75340714D02*
X92051190Y-75590714D01*
X92527380Y-75769285D02*
X91527380Y-75769285D01*
X91527380Y-75483571D01*
X91575000Y-75412142D01*
X91622619Y-75376428D01*
X91717857Y-75340714D01*
X91860714Y-75340714D01*
X91955952Y-75376428D01*
X92003571Y-75412142D01*
X92051190Y-75483571D01*
X92051190Y-75769285D01*
X92479761Y-75055000D02*
X92527380Y-74947857D01*
X92527380Y-74769285D01*
X92479761Y-74697857D01*
X92432142Y-74662142D01*
X92336904Y-74626428D01*
X92241666Y-74626428D01*
X92146428Y-74662142D01*
X92098809Y-74697857D01*
X92051190Y-74769285D01*
X92003571Y-74912142D01*
X91955952Y-74983571D01*
X91908333Y-75019285D01*
X91813095Y-75055000D01*
X91717857Y-75055000D01*
X91622619Y-75019285D01*
X91575000Y-74983571D01*
X91527380Y-74912142D01*
X91527380Y-74733571D01*
X91575000Y-74626428D01*
X91527380Y-74412142D02*
X91527380Y-73983571D01*
X92527380Y-74197857D02*
X91527380Y-74197857D01*
X103806666Y-72858380D02*
X103806666Y-73572666D01*
X103759047Y-73715523D01*
X103663809Y-73810761D01*
X103520952Y-73858380D01*
X103425714Y-73858380D01*
X104235238Y-72953619D02*
X104282857Y-72906000D01*
X104378095Y-72858380D01*
X104616190Y-72858380D01*
X104711428Y-72906000D01*
X104759047Y-72953619D01*
X104806666Y-73048857D01*
X104806666Y-73144095D01*
X104759047Y-73286952D01*
X104187619Y-73858380D01*
X104806666Y-73858380D01*
X102322333Y-97203142D02*
X102274714Y-97250761D01*
X102131857Y-97298380D01*
X102036619Y-97298380D01*
X101893761Y-97250761D01*
X101798523Y-97155523D01*
X101750904Y-97060285D01*
X101703285Y-96869809D01*
X101703285Y-96726952D01*
X101750904Y-96536476D01*
X101798523Y-96441238D01*
X101893761Y-96346000D01*
X102036619Y-96298380D01*
X102131857Y-96298380D01*
X102274714Y-96346000D01*
X102322333Y-96393619D01*
X102655666Y-96298380D02*
X103274714Y-96298380D01*
X102941380Y-96679333D01*
X103084238Y-96679333D01*
X103179476Y-96726952D01*
X103227095Y-96774571D01*
X103274714Y-96869809D01*
X103274714Y-97107904D01*
X103227095Y-97203142D01*
X103179476Y-97250761D01*
X103084238Y-97298380D01*
X102798523Y-97298380D01*
X102703285Y-97250761D01*
X102655666Y-97203142D01*
X98298095Y-78462380D02*
X98298095Y-79271904D01*
X98345714Y-79367142D01*
X98393333Y-79414761D01*
X98488571Y-79462380D01*
X98679047Y-79462380D01*
X98774285Y-79414761D01*
X98821904Y-79367142D01*
X98869523Y-79271904D01*
X98869523Y-78462380D01*
X99869523Y-79462380D02*
X99298095Y-79462380D01*
X99583809Y-79462380D02*
X99583809Y-78462380D01*
X99488571Y-78605238D01*
X99393333Y-78700476D01*
X99298095Y-78748095D01*
X95464333Y-97131142D02*
X95416714Y-97178761D01*
X95273857Y-97226380D01*
X95178619Y-97226380D01*
X95035761Y-97178761D01*
X94940523Y-97083523D01*
X94892904Y-96988285D01*
X94845285Y-96797809D01*
X94845285Y-96654952D01*
X94892904Y-96464476D01*
X94940523Y-96369238D01*
X95035761Y-96274000D01*
X95178619Y-96226380D01*
X95273857Y-96226380D01*
X95416714Y-96274000D01*
X95464333Y-96321619D01*
X96321476Y-96559714D02*
X96321476Y-97226380D01*
X96083380Y-96178761D02*
X95845285Y-96893047D01*
X96464333Y-96893047D01*
X102195333Y-76811142D02*
X102147714Y-76858761D01*
X102004857Y-76906380D01*
X101909619Y-76906380D01*
X101766761Y-76858761D01*
X101671523Y-76763523D01*
X101623904Y-76668285D01*
X101576285Y-76477809D01*
X101576285Y-76334952D01*
X101623904Y-76144476D01*
X101671523Y-76049238D01*
X101766761Y-75954000D01*
X101909619Y-75906380D01*
X102004857Y-75906380D01*
X102147714Y-75954000D01*
X102195333Y-76001619D01*
X103100095Y-75906380D02*
X102623904Y-75906380D01*
X102576285Y-76382571D01*
X102623904Y-76334952D01*
X102719142Y-76287333D01*
X102957238Y-76287333D01*
X103052476Y-76334952D01*
X103100095Y-76382571D01*
X103147714Y-76477809D01*
X103147714Y-76715904D01*
X103100095Y-76811142D01*
X103052476Y-76858761D01*
X102957238Y-76906380D01*
X102719142Y-76906380D01*
X102623904Y-76858761D01*
X102576285Y-76811142D01*
X95464333Y-76811142D02*
X95416714Y-76858761D01*
X95273857Y-76906380D01*
X95178619Y-76906380D01*
X95035761Y-76858761D01*
X94940523Y-76763523D01*
X94892904Y-76668285D01*
X94845285Y-76477809D01*
X94845285Y-76334952D01*
X94892904Y-76144476D01*
X94940523Y-76049238D01*
X95035761Y-75954000D01*
X95178619Y-75906380D01*
X95273857Y-75906380D01*
X95416714Y-75954000D01*
X95464333Y-76001619D01*
X96321476Y-75906380D02*
X96131000Y-75906380D01*
X96035761Y-75954000D01*
X95988142Y-76001619D01*
X95892904Y-76144476D01*
X95845285Y-76334952D01*
X95845285Y-76715904D01*
X95892904Y-76811142D01*
X95940523Y-76858761D01*
X96035761Y-76906380D01*
X96226238Y-76906380D01*
X96321476Y-76858761D01*
X96369095Y-76811142D01*
X96416714Y-76715904D01*
X96416714Y-76477809D01*
X96369095Y-76382571D01*
X96321476Y-76334952D01*
X96226238Y-76287333D01*
X96035761Y-76287333D01*
X95940523Y-76334952D01*
X95892904Y-76382571D01*
X95845285Y-76477809D01*
D11*
X102915000Y-73147000D02*
X102915000Y-75747000D01*
X100315000Y-73147000D02*
X102915000Y-73147000D01*
X102915000Y-70547000D02*
X102915000Y-71877000D01*
X100315000Y-70547000D02*
X100315000Y-73147000D01*
X101585000Y-70547000D02*
X102915000Y-70547000D01*
X102915000Y-75747000D02*
X95175000Y-75747000D01*
X95175000Y-70547000D02*
X95175000Y-75747000D01*
X100315000Y-70547000D02*
X95175000Y-70547000D01*
X103200252Y-95906000D02*
X101777748Y-95906000D01*
X103200252Y-94086000D02*
X101777748Y-94086000D01*
X95200000Y-92870000D02*
X95200000Y-92635000D01*
X99060000Y-92870000D02*
X102920000Y-92870000D01*
X102920000Y-79850000D02*
X102920000Y-80085000D01*
X95200000Y-79850000D02*
X95200000Y-80085000D01*
X102920000Y-92870000D02*
X102920000Y-92635000D01*
X99060000Y-79850000D02*
X95200000Y-79850000D01*
X99060000Y-79850000D02*
X102920000Y-79850000D01*
X95200000Y-80085000D02*
X93385000Y-80085000D01*
X99060000Y-92870000D02*
X95200000Y-92870000D01*
X94919748Y-95906000D02*
X96342252Y-95906000D01*
X94919748Y-94086000D02*
X96342252Y-94086000D01*
X103073252Y-78888000D02*
X101650748Y-78888000D01*
X103073252Y-77068000D02*
X101650748Y-77068000D01*
X94919748Y-78888000D02*
X96342252Y-78888000D01*
X94919748Y-77068000D02*
X96342252Y-77068000D01*
%LPC*%
D12*
X101585000Y-71877000D03*
D13*
X101585000Y-74417000D03*
X99045000Y-71877000D03*
X99045000Y-74417000D03*
X96505000Y-71877000D03*
X96505000Y-74417000D03*
D14*
X104051500Y-94996000D03*
X100926500Y-94996000D03*
D15*
X94410000Y-80645000D03*
X94410000Y-81915000D03*
X94410000Y-83185000D03*
X94410000Y-84455000D03*
X94410000Y-85725000D03*
X94410000Y-86995000D03*
X94410000Y-88265000D03*
X94410000Y-89535000D03*
X94410000Y-90805000D03*
X94410000Y-92075000D03*
X103710000Y-92075000D03*
X103710000Y-90805000D03*
X103710000Y-89535000D03*
X103710000Y-88265000D03*
X103710000Y-86995000D03*
X103710000Y-85725000D03*
X103710000Y-84455000D03*
X103710000Y-83185000D03*
X103710000Y-81915000D03*
X103710000Y-80645000D03*
D16*
X94068500Y-94996000D03*
X97193500Y-94996000D03*
D14*
X103924500Y-77978000D03*
X100799500Y-77978000D03*
D16*
X94068500Y-77978000D03*
X97193500Y-77978000D03*
D12*
X107950000Y-95245000D03*
D13*
X107950000Y-92705000D03*
X107950000Y-90165000D03*
X107950000Y-87625000D03*
X107950000Y-85085000D03*
X107950000Y-82545000D03*
X107950000Y-80005000D03*
X107950000Y-77465000D03*
X107950000Y-74925000D03*
X107950000Y-72385000D03*
D12*
X90170000Y-72395000D03*
D13*
X90170000Y-74935000D03*
X90170000Y-77475000D03*
X90170000Y-80015000D03*
X90170000Y-82555000D03*
X90170000Y-85095000D03*
X90170000Y-87635000D03*
X90170000Y-90175000D03*
X90170000Y-92715000D03*
X90170000Y-95255000D03*
M02*
