M48
; DRILL file {KiCad 6.0.8-1.fc36} date Tue 01 Nov 2022 17:46:50 CET
; FORMAT={-:-/ absolute / metric / decimal}
; #@! TF.CreationDate,2022-11-01T17:46:50+01:00
; #@! TF.GenerationSoftware,Kicad,Pcbnew,6.0.8-1.fc36
; #@! TF.FileFunction,Plated,1,2,PTH
FMAT,2
METRIC
; #@! TA.AperFunction,Plated,PTH,ViaDrill
T1C0.400
; #@! TA.AperFunction,Plated,PTH,ComponentDrill
T2C1.000
%
G90
G05
T1
X93.98Y-96.901
X94.107Y-71.12
X94.107Y-72.517
X94.107Y-73.914
X94.107Y-75.311
X97.028Y-80.391
X97.282Y-83.82
X97.282Y-86.741
X97.282Y-88.646
X97.282Y-90.17
X97.282Y-91.694
X101.092Y-81.788
X101.092Y-83.312
X101.092Y-85.09
X101.092Y-89.154
X101.092Y-90.678
X101.092Y-92.456
X102.362Y-77.978
X103.505Y-71.755
X104.013Y-96.774
X104.14Y-75.946
X104.775Y-71.12
T2
X90.17Y-72.395
X90.17Y-74.935
X90.17Y-77.475
X90.17Y-80.015
X90.17Y-82.555
X90.17Y-85.095
X90.17Y-87.635
X90.17Y-90.175
X90.17Y-92.715
X90.17Y-95.255
X96.505Y-71.877
X96.505Y-74.417
X99.045Y-71.877
X99.045Y-74.417
X101.585Y-71.877
X101.585Y-74.417
X107.95Y-72.385
X107.95Y-74.925
X107.95Y-77.465
X107.95Y-80.005
X107.95Y-82.545
X107.95Y-85.085
X107.95Y-87.625
X107.95Y-90.165
X107.95Y-92.705
X107.95Y-95.245
T0
M30
