G04 #@! TF.GenerationSoftware,KiCad,Pcbnew,6.0.8-1.fc36*
G04 #@! TF.CreationDate,2022-11-01T17:46:47+01:00*
G04 #@! TF.ProjectId,avr32dd20_eval,61767233-3264-4643-9230-5f6576616c2e,rev?*
G04 #@! TF.SameCoordinates,Original*
G04 #@! TF.FileFunction,Copper,L2,Bot*
G04 #@! TF.FilePolarity,Positive*
%FSLAX46Y46*%
G04 Gerber Fmt 4.6, Leading zero omitted, Abs format (unit mm)*
G04 Created by KiCad (PCBNEW 6.0.8-1.fc36) date 2022-11-01 17:46:47*
%MOMM*%
%LPD*%
G01*
G04 APERTURE LIST*
G04 Aperture macros list*
%AMRoundRect*
0 Rectangle with rounded corners*
0 $1 Rounding radius*
0 $2 $3 $4 $5 $6 $7 $8 $9 X,Y pos of 4 corners*
0 Add a 4 corners polygon primitive as box body*
4,1,4,$2,$3,$4,$5,$6,$7,$8,$9,$2,$3,0*
0 Add four circle primitives for the rounded corners*
1,1,$1+$1,$2,$3*
1,1,$1+$1,$4,$5*
1,1,$1+$1,$6,$7*
1,1,$1+$1,$8,$9*
0 Add four rect primitives between the rounded corners*
20,1,$1+$1,$2,$3,$4,$5,0*
20,1,$1+$1,$4,$5,$6,$7,0*
20,1,$1+$1,$6,$7,$8,$9,0*
20,1,$1+$1,$8,$9,$2,$3,0*%
G04 Aperture macros list end*
G04 #@! TA.AperFunction,ComponentPad*
%ADD10R,1.700000X1.700000*%
G04 #@! TD*
G04 #@! TA.AperFunction,ComponentPad*
%ADD11O,1.700000X1.700000*%
G04 #@! TD*
G04 #@! TA.AperFunction,SMDPad,CuDef*
%ADD12RoundRect,0.250000X-0.475000X0.337500X-0.475000X-0.337500X0.475000X-0.337500X0.475000X0.337500X0*%
G04 #@! TD*
G04 #@! TA.AperFunction,SMDPad,CuDef*
%ADD13R,2.000000X7.875000*%
G04 #@! TD*
G04 #@! TA.AperFunction,SMDPad,CuDef*
%ADD14RoundRect,0.250000X0.475000X-0.337500X0.475000X0.337500X-0.475000X0.337500X-0.475000X-0.337500X0*%
G04 #@! TD*
G04 #@! TA.AperFunction,ViaPad*
%ADD15C,0.800000*%
G04 #@! TD*
G04 #@! TA.AperFunction,Conductor*
%ADD16C,0.250000*%
G04 #@! TD*
G04 APERTURE END LIST*
D10*
X101585000Y-71877000D03*
D11*
X101585000Y-74417000D03*
X99045000Y-71877000D03*
X99045000Y-74417000D03*
X96505000Y-71877000D03*
X96505000Y-74417000D03*
D10*
X107950000Y-95245000D03*
D11*
X107950000Y-92705000D03*
X107950000Y-90165000D03*
X107950000Y-87625000D03*
X107950000Y-85085000D03*
X107950000Y-82545000D03*
X107950000Y-80005000D03*
X107950000Y-77465000D03*
X107950000Y-74925000D03*
X107950000Y-72385000D03*
D12*
X94361000Y-87862500D03*
X94361000Y-89937500D03*
D13*
X99060000Y-92964000D03*
X99060000Y-81089000D03*
D10*
X90170000Y-72395000D03*
D11*
X90170000Y-74935000D03*
X90170000Y-77475000D03*
X90170000Y-80015000D03*
X90170000Y-82555000D03*
X90170000Y-85095000D03*
X90170000Y-87635000D03*
X90170000Y-90175000D03*
X90170000Y-92715000D03*
X90170000Y-95255000D03*
D14*
X94361000Y-82444500D03*
X94361000Y-80369500D03*
D15*
X93980000Y-96901000D03*
X97282000Y-83820000D03*
X104013000Y-96774000D03*
X101092000Y-83312000D03*
X101092000Y-92456000D03*
X103505000Y-71755000D03*
X101092000Y-85090000D03*
X94107000Y-72517000D03*
X94107000Y-75311000D03*
X94107000Y-71120000D03*
X94107000Y-73914000D03*
X97282000Y-90170000D03*
X101092000Y-90678000D03*
X104775000Y-71120000D03*
X101092000Y-81788000D03*
X97028000Y-80391000D03*
X101092000Y-89154000D03*
X102362000Y-77978000D03*
X97282000Y-91694000D03*
X104140000Y-75946000D03*
X97282000Y-88646000D03*
X97282000Y-86741000D03*
D16*
X90170000Y-77475000D02*
X93594000Y-77475000D01*
X93594000Y-77475000D02*
X95377000Y-75692000D01*
X95377000Y-75692000D02*
X99822000Y-75692000D01*
X99822000Y-75692000D02*
X100330000Y-75184000D01*
X100330000Y-75184000D02*
X100330000Y-73132000D01*
X100330000Y-73132000D02*
X101585000Y-71877000D01*
X97282000Y-86741000D02*
X95482500Y-86741000D01*
X95482500Y-86741000D02*
X94361000Y-87862500D01*
X97282000Y-86741000D02*
X99060000Y-88519000D01*
X99060000Y-88519000D02*
X99060000Y-92964000D01*
X97282000Y-83820000D02*
X96774000Y-83312000D01*
X99060000Y-81089000D02*
X97726000Y-82423000D01*
X94382500Y-82423000D02*
X94361000Y-82444500D01*
X96774000Y-82423000D02*
X94382500Y-82423000D01*
X97726000Y-82423000D02*
X96774000Y-82423000D01*
X96774000Y-83312000D02*
X96774000Y-82423000D01*
G04 #@! TA.AperFunction,Conductor*
G36*
X96054965Y-70378502D02*
G01*
X96101458Y-70432158D01*
X96111562Y-70502432D01*
X96082068Y-70567012D01*
X96025991Y-70604265D01*
X95976756Y-70620357D01*
X95778607Y-70723507D01*
X95774474Y-70726610D01*
X95774471Y-70726612D01*
X95604100Y-70854530D01*
X95599965Y-70857635D01*
X95560525Y-70898907D01*
X95506280Y-70955671D01*
X95445629Y-71019138D01*
X95442720Y-71023403D01*
X95442714Y-71023411D01*
X95363243Y-71139912D01*
X95319743Y-71203680D01*
X95279048Y-71291351D01*
X95237129Y-71381658D01*
X95225688Y-71406305D01*
X95165989Y-71621570D01*
X95142251Y-71843695D01*
X95142548Y-71848848D01*
X95142548Y-71848851D01*
X95148422Y-71950720D01*
X95155110Y-72066715D01*
X95156247Y-72071761D01*
X95156248Y-72071767D01*
X95171851Y-72141000D01*
X95204222Y-72284639D01*
X95248980Y-72394865D01*
X95273361Y-72454908D01*
X95288266Y-72491616D01*
X95336022Y-72569547D01*
X95402291Y-72677688D01*
X95404987Y-72682088D01*
X95551250Y-72850938D01*
X95723126Y-72993632D01*
X95740903Y-73004020D01*
X95796955Y-73036774D01*
X95845679Y-73088412D01*
X95858750Y-73158195D01*
X95832019Y-73223967D01*
X95791562Y-73257327D01*
X95783457Y-73261546D01*
X95774738Y-73267036D01*
X95604433Y-73394905D01*
X95596726Y-73401748D01*
X95449590Y-73555717D01*
X95443104Y-73563727D01*
X95323098Y-73739649D01*
X95318000Y-73748623D01*
X95228338Y-73941783D01*
X95224775Y-73951470D01*
X95169389Y-74151183D01*
X95170912Y-74159607D01*
X95183292Y-74163000D01*
X96633000Y-74163000D01*
X96701121Y-74183002D01*
X96747614Y-74236658D01*
X96759000Y-74289000D01*
X96759000Y-74545000D01*
X96738998Y-74613121D01*
X96685342Y-74659614D01*
X96633000Y-74671000D01*
X95188225Y-74671000D01*
X95174694Y-74674973D01*
X95173257Y-74684966D01*
X95203565Y-74819446D01*
X95206645Y-74829275D01*
X95245808Y-74925724D01*
X95252904Y-74996365D01*
X95220682Y-75059629D01*
X95164220Y-75094124D01*
X95123407Y-75105982D01*
X95116581Y-75110019D01*
X95105972Y-75116293D01*
X95088224Y-75124988D01*
X95069383Y-75132448D01*
X95062967Y-75137110D01*
X95062966Y-75137110D01*
X95033613Y-75158436D01*
X95023693Y-75164952D01*
X94992465Y-75183420D01*
X94992462Y-75183422D01*
X94985638Y-75187458D01*
X94971317Y-75201779D01*
X94956284Y-75214619D01*
X94939893Y-75226528D01*
X94934842Y-75232634D01*
X94911702Y-75260605D01*
X94903712Y-75269384D01*
X93368500Y-76804595D01*
X93306188Y-76838621D01*
X93279405Y-76841500D01*
X91446805Y-76841500D01*
X91378684Y-76821498D01*
X91341013Y-76783940D01*
X91252822Y-76647617D01*
X91252820Y-76647614D01*
X91250014Y-76643277D01*
X91099670Y-76478051D01*
X91095619Y-76474852D01*
X91095615Y-76474848D01*
X90928414Y-76342800D01*
X90928410Y-76342798D01*
X90924359Y-76339598D01*
X90883053Y-76316796D01*
X90833084Y-76266364D01*
X90818312Y-76196921D01*
X90843428Y-76130516D01*
X90870780Y-76103909D01*
X90914603Y-76072650D01*
X91049860Y-75976173D01*
X91208096Y-75818489D01*
X91212661Y-75812137D01*
X91335435Y-75641277D01*
X91338453Y-75637077D01*
X91343396Y-75627077D01*
X91435136Y-75441453D01*
X91435137Y-75441451D01*
X91437430Y-75436811D01*
X91502370Y-75223069D01*
X91531529Y-75001590D01*
X91533156Y-74935000D01*
X91514852Y-74712361D01*
X91460431Y-74495702D01*
X91371354Y-74290840D01*
X91305692Y-74189342D01*
X91252822Y-74107617D01*
X91252820Y-74107614D01*
X91250014Y-74103277D01*
X91246540Y-74099459D01*
X91246533Y-74099450D01*
X91102435Y-73941088D01*
X91071383Y-73877242D01*
X91079779Y-73806744D01*
X91124956Y-73751976D01*
X91151400Y-73738307D01*
X91258052Y-73698325D01*
X91273649Y-73689786D01*
X91375724Y-73613285D01*
X91388285Y-73600724D01*
X91464786Y-73498649D01*
X91473324Y-73483054D01*
X91518478Y-73362606D01*
X91522105Y-73347351D01*
X91527631Y-73296486D01*
X91528000Y-73289672D01*
X91528000Y-72667115D01*
X91523525Y-72651876D01*
X91522135Y-72650671D01*
X91514452Y-72649000D01*
X88830116Y-72649000D01*
X88814877Y-72653475D01*
X88813672Y-72654865D01*
X88812001Y-72662548D01*
X88812001Y-73289669D01*
X88812371Y-73296490D01*
X88817895Y-73347352D01*
X88821521Y-73362604D01*
X88866676Y-73483054D01*
X88875214Y-73498649D01*
X88951715Y-73600724D01*
X88964276Y-73613285D01*
X89066351Y-73689786D01*
X89081946Y-73698324D01*
X89190827Y-73739142D01*
X89247591Y-73781784D01*
X89272291Y-73848345D01*
X89257083Y-73917694D01*
X89237691Y-73944175D01*
X89205652Y-73977702D01*
X89110629Y-74077138D01*
X89107715Y-74081410D01*
X89107714Y-74081411D01*
X89099620Y-74093277D01*
X88984743Y-74261680D01*
X88969003Y-74295590D01*
X88893013Y-74459297D01*
X88890688Y-74464305D01*
X88830989Y-74679570D01*
X88807251Y-74901695D01*
X88807548Y-74906848D01*
X88807548Y-74906851D01*
X88818223Y-75091988D01*
X88820110Y-75124715D01*
X88821247Y-75129761D01*
X88821248Y-75129767D01*
X88839058Y-75208793D01*
X88869222Y-75342639D01*
X88930673Y-75493976D01*
X88947262Y-75534829D01*
X88953266Y-75549616D01*
X88983648Y-75599195D01*
X89062005Y-75727062D01*
X89069987Y-75740088D01*
X89216250Y-75908938D01*
X89388126Y-76051632D01*
X89444332Y-76084476D01*
X89461445Y-76094476D01*
X89510169Y-76146114D01*
X89523240Y-76215897D01*
X89496509Y-76281669D01*
X89456055Y-76315027D01*
X89443607Y-76321507D01*
X89439474Y-76324610D01*
X89439471Y-76324612D01*
X89273305Y-76449373D01*
X89264965Y-76455635D01*
X89110629Y-76617138D01*
X89107715Y-76621410D01*
X89107714Y-76621411D01*
X89099620Y-76633277D01*
X88984743Y-76801680D01*
X88967596Y-76838621D01*
X88893013Y-76999297D01*
X88890688Y-77004305D01*
X88830989Y-77219570D01*
X88807251Y-77441695D01*
X88807548Y-77446848D01*
X88807548Y-77446851D01*
X88819235Y-77649547D01*
X88820110Y-77664715D01*
X88821247Y-77669761D01*
X88821248Y-77669767D01*
X88840022Y-77753069D01*
X88869222Y-77882639D01*
X88929014Y-78029890D01*
X88947262Y-78074829D01*
X88953266Y-78089616D01*
X89069987Y-78280088D01*
X89216250Y-78448938D01*
X89388126Y-78591632D01*
X89444332Y-78624476D01*
X89461445Y-78634476D01*
X89510169Y-78686114D01*
X89523240Y-78755897D01*
X89496509Y-78821669D01*
X89456055Y-78855027D01*
X89443607Y-78861507D01*
X89439474Y-78864610D01*
X89439471Y-78864612D01*
X89273305Y-78989373D01*
X89264965Y-78995635D01*
X89110629Y-79157138D01*
X89107715Y-79161410D01*
X89107714Y-79161411D01*
X89099620Y-79173277D01*
X88984743Y-79341680D01*
X88969003Y-79375590D01*
X88893013Y-79539297D01*
X88890688Y-79544305D01*
X88830989Y-79759570D01*
X88807251Y-79981695D01*
X88807548Y-79986848D01*
X88807548Y-79986851D01*
X88814185Y-80101952D01*
X88820110Y-80204715D01*
X88821247Y-80209761D01*
X88821248Y-80209767D01*
X88840022Y-80293069D01*
X88869222Y-80422639D01*
X88907461Y-80516811D01*
X88950783Y-80623500D01*
X88953266Y-80629616D01*
X88960619Y-80641615D01*
X89033510Y-80760562D01*
X89069987Y-80820088D01*
X89216250Y-80988938D01*
X89388126Y-81131632D01*
X89444332Y-81164476D01*
X89461445Y-81174476D01*
X89510169Y-81226114D01*
X89523240Y-81295897D01*
X89496509Y-81361669D01*
X89456055Y-81395027D01*
X89443607Y-81401507D01*
X89439474Y-81404610D01*
X89439471Y-81404612D01*
X89273305Y-81529373D01*
X89264965Y-81535635D01*
X89110629Y-81697138D01*
X89107715Y-81701410D01*
X89107714Y-81701411D01*
X89099620Y-81713277D01*
X88984743Y-81881680D01*
X88969003Y-81915590D01*
X88893013Y-82079297D01*
X88890688Y-82084305D01*
X88830989Y-82299570D01*
X88807251Y-82521695D01*
X88807548Y-82526848D01*
X88807548Y-82526851D01*
X88813011Y-82621590D01*
X88820110Y-82744715D01*
X88821247Y-82749761D01*
X88821248Y-82749767D01*
X88839135Y-82829134D01*
X88869222Y-82962639D01*
X88929942Y-83112176D01*
X88947262Y-83154829D01*
X88953266Y-83169616D01*
X88992250Y-83233233D01*
X89047839Y-83323945D01*
X89069987Y-83360088D01*
X89216250Y-83528938D01*
X89388126Y-83671632D01*
X89430743Y-83696535D01*
X89461445Y-83714476D01*
X89510169Y-83766114D01*
X89523240Y-83835897D01*
X89496509Y-83901669D01*
X89456055Y-83935027D01*
X89443607Y-83941507D01*
X89439474Y-83944610D01*
X89439471Y-83944612D01*
X89273305Y-84069373D01*
X89264965Y-84075635D01*
X89110629Y-84237138D01*
X89107715Y-84241410D01*
X89107714Y-84241411D01*
X89099620Y-84253277D01*
X88984743Y-84421680D01*
X88969003Y-84455590D01*
X88893013Y-84619297D01*
X88890688Y-84624305D01*
X88830989Y-84839570D01*
X88807251Y-85061695D01*
X88807548Y-85066848D01*
X88807548Y-85066851D01*
X88813011Y-85161590D01*
X88820110Y-85284715D01*
X88821247Y-85289761D01*
X88821248Y-85289767D01*
X88840022Y-85373069D01*
X88869222Y-85502639D01*
X88907461Y-85596811D01*
X88947262Y-85694829D01*
X88953266Y-85709616D01*
X89069987Y-85900088D01*
X89216250Y-86068938D01*
X89388126Y-86211632D01*
X89444332Y-86244476D01*
X89461445Y-86254476D01*
X89510169Y-86306114D01*
X89523240Y-86375897D01*
X89496509Y-86441669D01*
X89456055Y-86475027D01*
X89443607Y-86481507D01*
X89439474Y-86484610D01*
X89439471Y-86484612D01*
X89273305Y-86609373D01*
X89264965Y-86615635D01*
X89110629Y-86777138D01*
X89107715Y-86781410D01*
X89107714Y-86781411D01*
X89069585Y-86837306D01*
X88984743Y-86961680D01*
X88969003Y-86995590D01*
X88893013Y-87159297D01*
X88890688Y-87164305D01*
X88830989Y-87379570D01*
X88807251Y-87601695D01*
X88807548Y-87606848D01*
X88807548Y-87606851D01*
X88813011Y-87701590D01*
X88820110Y-87824715D01*
X88821247Y-87829761D01*
X88821248Y-87829767D01*
X88840022Y-87913069D01*
X88869222Y-88042639D01*
X88907461Y-88136811D01*
X88947262Y-88234829D01*
X88953266Y-88249616D01*
X88955965Y-88254020D01*
X89021034Y-88360203D01*
X89069987Y-88440088D01*
X89216250Y-88608938D01*
X89388126Y-88751632D01*
X89444332Y-88784476D01*
X89461445Y-88794476D01*
X89510169Y-88846114D01*
X89523240Y-88915897D01*
X89496509Y-88981669D01*
X89456055Y-89015027D01*
X89443607Y-89021507D01*
X89439474Y-89024610D01*
X89439471Y-89024612D01*
X89273305Y-89149373D01*
X89264965Y-89155635D01*
X89110629Y-89317138D01*
X89107715Y-89321410D01*
X89107714Y-89321411D01*
X89099620Y-89333277D01*
X88984743Y-89501680D01*
X88960965Y-89552905D01*
X88893013Y-89699297D01*
X88890688Y-89704305D01*
X88830989Y-89919570D01*
X88807251Y-90141695D01*
X88807548Y-90146848D01*
X88807548Y-90146851D01*
X88818025Y-90328562D01*
X88820110Y-90364715D01*
X88821247Y-90369761D01*
X88821248Y-90369767D01*
X88840022Y-90453069D01*
X88869222Y-90582639D01*
X88907461Y-90676811D01*
X88947262Y-90774829D01*
X88953266Y-90789616D01*
X88955965Y-90794020D01*
X89063170Y-90968963D01*
X89069987Y-90980088D01*
X89216250Y-91148938D01*
X89388126Y-91291632D01*
X89444332Y-91324476D01*
X89461445Y-91334476D01*
X89510169Y-91386114D01*
X89523240Y-91455897D01*
X89496509Y-91521669D01*
X89456055Y-91555027D01*
X89443607Y-91561507D01*
X89439474Y-91564610D01*
X89439471Y-91564612D01*
X89273305Y-91689373D01*
X89264965Y-91695635D01*
X89110629Y-91857138D01*
X89107715Y-91861410D01*
X89107714Y-91861411D01*
X89099620Y-91873277D01*
X88984743Y-92041680D01*
X88969003Y-92075590D01*
X88893013Y-92239297D01*
X88890688Y-92244305D01*
X88830989Y-92459570D01*
X88807251Y-92681695D01*
X88807548Y-92686848D01*
X88807548Y-92686851D01*
X88813011Y-92781590D01*
X88820110Y-92904715D01*
X88821247Y-92909761D01*
X88821248Y-92909767D01*
X88840022Y-92993069D01*
X88869222Y-93122639D01*
X88907461Y-93216811D01*
X88947262Y-93314829D01*
X88953266Y-93329616D01*
X89069987Y-93520088D01*
X89216250Y-93688938D01*
X89388126Y-93831632D01*
X89432083Y-93857318D01*
X89461445Y-93874476D01*
X89510169Y-93926114D01*
X89523240Y-93995897D01*
X89496509Y-94061669D01*
X89456055Y-94095027D01*
X89443607Y-94101507D01*
X89439474Y-94104610D01*
X89439471Y-94104612D01*
X89269100Y-94232530D01*
X89264965Y-94235635D01*
X89110629Y-94397138D01*
X88984743Y-94581680D01*
X88890688Y-94784305D01*
X88830989Y-94999570D01*
X88807251Y-95221695D01*
X88807548Y-95226848D01*
X88807548Y-95226851D01*
X88813011Y-95321590D01*
X88820110Y-95444715D01*
X88821247Y-95449761D01*
X88821248Y-95449767D01*
X88841119Y-95537939D01*
X88869222Y-95662639D01*
X88953266Y-95869616D01*
X88955965Y-95874020D01*
X89049969Y-96027421D01*
X89069987Y-96060088D01*
X89216250Y-96228938D01*
X89388126Y-96371632D01*
X89581000Y-96484338D01*
X89585825Y-96486180D01*
X89585826Y-96486181D01*
X89658612Y-96513975D01*
X89789692Y-96564030D01*
X89794760Y-96565061D01*
X89794763Y-96565062D01*
X89902017Y-96586883D01*
X90008597Y-96608567D01*
X90013772Y-96608757D01*
X90013774Y-96608757D01*
X90226673Y-96616564D01*
X90226677Y-96616564D01*
X90231837Y-96616753D01*
X90236957Y-96616097D01*
X90236959Y-96616097D01*
X90448288Y-96589025D01*
X90448289Y-96589025D01*
X90453416Y-96588368D01*
X90458366Y-96586883D01*
X90662429Y-96525661D01*
X90662434Y-96525659D01*
X90667384Y-96524174D01*
X90867994Y-96425896D01*
X91049860Y-96296173D01*
X91073500Y-96272616D01*
X91204435Y-96142137D01*
X91208096Y-96138489D01*
X91267594Y-96055689D01*
X91335435Y-95961277D01*
X91338453Y-95957077D01*
X91437430Y-95756811D01*
X91502370Y-95543069D01*
X91531529Y-95321590D01*
X91532736Y-95272204D01*
X91533074Y-95258365D01*
X91533074Y-95258361D01*
X91533156Y-95255000D01*
X91514852Y-95032361D01*
X91460431Y-94815702D01*
X91371354Y-94610840D01*
X91250014Y-94423277D01*
X91099670Y-94258051D01*
X91095619Y-94254852D01*
X91095615Y-94254848D01*
X90928414Y-94122800D01*
X90928410Y-94122798D01*
X90924359Y-94119598D01*
X90883053Y-94096796D01*
X90833084Y-94046364D01*
X90818312Y-93976921D01*
X90843428Y-93910516D01*
X90870780Y-93883909D01*
X90914603Y-93852650D01*
X91049860Y-93756173D01*
X91208096Y-93598489D01*
X91212661Y-93592137D01*
X91335435Y-93421277D01*
X91338453Y-93417077D01*
X91343396Y-93407077D01*
X91435136Y-93221453D01*
X91435137Y-93221451D01*
X91437430Y-93216811D01*
X91502370Y-93003069D01*
X91531529Y-92781590D01*
X91533156Y-92715000D01*
X91514852Y-92492361D01*
X91460431Y-92275702D01*
X91371354Y-92070840D01*
X91250014Y-91883277D01*
X91099670Y-91718051D01*
X91095619Y-91714852D01*
X91095615Y-91714848D01*
X90928414Y-91582800D01*
X90928410Y-91582798D01*
X90924359Y-91579598D01*
X90883053Y-91556796D01*
X90833084Y-91506364D01*
X90818312Y-91436921D01*
X90843428Y-91370516D01*
X90870780Y-91343909D01*
X90914603Y-91312650D01*
X91049860Y-91216173D01*
X91208096Y-91058489D01*
X91212661Y-91052137D01*
X91335435Y-90881277D01*
X91338453Y-90877077D01*
X91343396Y-90867077D01*
X91435136Y-90681453D01*
X91435137Y-90681451D01*
X91437430Y-90676811D01*
X91502370Y-90463069D01*
X91520930Y-90322095D01*
X93128001Y-90322095D01*
X93128338Y-90328614D01*
X93138257Y-90424206D01*
X93141149Y-90437600D01*
X93192588Y-90591784D01*
X93198761Y-90604962D01*
X93284063Y-90742807D01*
X93293099Y-90754208D01*
X93407829Y-90868739D01*
X93419240Y-90877751D01*
X93557243Y-90962816D01*
X93570424Y-90968963D01*
X93724710Y-91020138D01*
X93738086Y-91023005D01*
X93832438Y-91032672D01*
X93838854Y-91033000D01*
X94088885Y-91033000D01*
X94104124Y-91028525D01*
X94105329Y-91027135D01*
X94107000Y-91019452D01*
X94107000Y-91014884D01*
X94615000Y-91014884D01*
X94619475Y-91030123D01*
X94620865Y-91031328D01*
X94628548Y-91032999D01*
X94883095Y-91032999D01*
X94889614Y-91032662D01*
X94985206Y-91022743D01*
X94998600Y-91019851D01*
X95152784Y-90968412D01*
X95165962Y-90962239D01*
X95303807Y-90876937D01*
X95315208Y-90867901D01*
X95429739Y-90753171D01*
X95438751Y-90741760D01*
X95523816Y-90603757D01*
X95529963Y-90590576D01*
X95581138Y-90436290D01*
X95584005Y-90422914D01*
X95593672Y-90328562D01*
X95594000Y-90322146D01*
X95594000Y-90209615D01*
X95589525Y-90194376D01*
X95588135Y-90193171D01*
X95580452Y-90191500D01*
X94633115Y-90191500D01*
X94617876Y-90195975D01*
X94616671Y-90197365D01*
X94615000Y-90205048D01*
X94615000Y-91014884D01*
X94107000Y-91014884D01*
X94107000Y-90209615D01*
X94102525Y-90194376D01*
X94101135Y-90193171D01*
X94093452Y-90191500D01*
X93146116Y-90191500D01*
X93130877Y-90195975D01*
X93129672Y-90197365D01*
X93128001Y-90205048D01*
X93128001Y-90322095D01*
X91520930Y-90322095D01*
X91531529Y-90241590D01*
X91533156Y-90175000D01*
X91514852Y-89952361D01*
X91460431Y-89735702D01*
X91371354Y-89530840D01*
X91250014Y-89343277D01*
X91099670Y-89178051D01*
X91095619Y-89174852D01*
X91095615Y-89174848D01*
X90928414Y-89042800D01*
X90928410Y-89042798D01*
X90924359Y-89039598D01*
X90883053Y-89016796D01*
X90833084Y-88966364D01*
X90818312Y-88896921D01*
X90843428Y-88830516D01*
X90870780Y-88803909D01*
X90914661Y-88772609D01*
X91049860Y-88676173D01*
X91208096Y-88518489D01*
X91212661Y-88512137D01*
X91335435Y-88341277D01*
X91338453Y-88337077D01*
X91343396Y-88327077D01*
X91435136Y-88141453D01*
X91435137Y-88141451D01*
X91437430Y-88136811D01*
X91502370Y-87923069D01*
X91531529Y-87701590D01*
X91533156Y-87635000D01*
X91514852Y-87412361D01*
X91460431Y-87195702D01*
X91371354Y-86990840D01*
X91327252Y-86922668D01*
X91252822Y-86807617D01*
X91252820Y-86807614D01*
X91250014Y-86803277D01*
X91099670Y-86638051D01*
X91095619Y-86634852D01*
X91095615Y-86634848D01*
X90928414Y-86502800D01*
X90928410Y-86502798D01*
X90924359Y-86499598D01*
X90883053Y-86476796D01*
X90833084Y-86426364D01*
X90818312Y-86356921D01*
X90843428Y-86290516D01*
X90870780Y-86263909D01*
X90914923Y-86232422D01*
X91049860Y-86136173D01*
X91075798Y-86110326D01*
X91204435Y-85982137D01*
X91208096Y-85978489D01*
X91212661Y-85972137D01*
X91335435Y-85801277D01*
X91338453Y-85797077D01*
X91343396Y-85787077D01*
X91435136Y-85601453D01*
X91435137Y-85601451D01*
X91437430Y-85596811D01*
X91502370Y-85383069D01*
X91531529Y-85161590D01*
X91533156Y-85095000D01*
X91514852Y-84872361D01*
X91460431Y-84655702D01*
X91371354Y-84450840D01*
X91250014Y-84263277D01*
X91099670Y-84098051D01*
X91095619Y-84094852D01*
X91095615Y-84094848D01*
X90928414Y-83962800D01*
X90928410Y-83962798D01*
X90924359Y-83959598D01*
X90883053Y-83936796D01*
X90833084Y-83886364D01*
X90818312Y-83816921D01*
X90843428Y-83750516D01*
X90870780Y-83723909D01*
X90914603Y-83692650D01*
X91049860Y-83596173D01*
X91208096Y-83438489D01*
X91212661Y-83432137D01*
X91335435Y-83261277D01*
X91338453Y-83257077D01*
X91341892Y-83250120D01*
X91435136Y-83061453D01*
X91435137Y-83061451D01*
X91437430Y-83056811D01*
X91502370Y-82843069D01*
X91503775Y-82832400D01*
X93127500Y-82832400D01*
X93127837Y-82835646D01*
X93127837Y-82835650D01*
X93128075Y-82837939D01*
X93138474Y-82938166D01*
X93140655Y-82944702D01*
X93140655Y-82944704D01*
X93173068Y-83041857D01*
X93194450Y-83105946D01*
X93287522Y-83256348D01*
X93412697Y-83381305D01*
X93418927Y-83385145D01*
X93418928Y-83385146D01*
X93556090Y-83469694D01*
X93563262Y-83474115D01*
X93575488Y-83478170D01*
X93724611Y-83527632D01*
X93724613Y-83527632D01*
X93731139Y-83529797D01*
X93737975Y-83530497D01*
X93737978Y-83530498D01*
X93781031Y-83534909D01*
X93835600Y-83540500D01*
X94886400Y-83540500D01*
X94889646Y-83540163D01*
X94889650Y-83540163D01*
X94985308Y-83530238D01*
X94985312Y-83530237D01*
X94992166Y-83529526D01*
X94998702Y-83527345D01*
X94998704Y-83527345D01*
X95146098Y-83478170D01*
X95159946Y-83473550D01*
X95310348Y-83380478D01*
X95330703Y-83360088D01*
X95430134Y-83260483D01*
X95435305Y-83255303D01*
X95520937Y-83116383D01*
X95573708Y-83068891D01*
X95628196Y-83056500D01*
X96014500Y-83056500D01*
X96082621Y-83076502D01*
X96129114Y-83130158D01*
X96140500Y-83182500D01*
X96140500Y-83233233D01*
X96139973Y-83244416D01*
X96138298Y-83251909D01*
X96138547Y-83259835D01*
X96138547Y-83259836D01*
X96140438Y-83319986D01*
X96140500Y-83323945D01*
X96140500Y-83351856D01*
X96140997Y-83355790D01*
X96140997Y-83355791D01*
X96141005Y-83355856D01*
X96141938Y-83367693D01*
X96143327Y-83411889D01*
X96148150Y-83428489D01*
X96148978Y-83431339D01*
X96152987Y-83450700D01*
X96155526Y-83470797D01*
X96158445Y-83478168D01*
X96158445Y-83478170D01*
X96171804Y-83511912D01*
X96175649Y-83523142D01*
X96177711Y-83530238D01*
X96187982Y-83565593D01*
X96192015Y-83572412D01*
X96192017Y-83572417D01*
X96198293Y-83583028D01*
X96206988Y-83600776D01*
X96214448Y-83619617D01*
X96219110Y-83626033D01*
X96219110Y-83626034D01*
X96240436Y-83655387D01*
X96246952Y-83665307D01*
X96269458Y-83703362D01*
X96283779Y-83717683D01*
X96296619Y-83732716D01*
X96308528Y-83749107D01*
X96314632Y-83754156D01*
X96314636Y-83754161D01*
X96326425Y-83763913D01*
X96366164Y-83822747D01*
X96371421Y-83847828D01*
X96388458Y-84009928D01*
X96447473Y-84191556D01*
X96542960Y-84356944D01*
X96547378Y-84361851D01*
X96547379Y-84361852D01*
X96592244Y-84411680D01*
X96670747Y-84498866D01*
X96825248Y-84611118D01*
X96831276Y-84613802D01*
X96831278Y-84613803D01*
X96936656Y-84660720D01*
X96999712Y-84688794D01*
X97093113Y-84708647D01*
X97180056Y-84727128D01*
X97180061Y-84727128D01*
X97186513Y-84728500D01*
X97377487Y-84728500D01*
X97386594Y-84726564D01*
X97399304Y-84723863D01*
X97470095Y-84729266D01*
X97526727Y-84772083D01*
X97551220Y-84838720D01*
X97551500Y-84847110D01*
X97551500Y-85074634D01*
X97558255Y-85136816D01*
X97609385Y-85273205D01*
X97696739Y-85389761D01*
X97813295Y-85477115D01*
X97949684Y-85528245D01*
X98011866Y-85535000D01*
X100108134Y-85535000D01*
X100170316Y-85528245D01*
X100306705Y-85477115D01*
X100423261Y-85389761D01*
X100510615Y-85273205D01*
X100561745Y-85136816D01*
X100568500Y-85074634D01*
X100568500Y-77103366D01*
X100561745Y-77041184D01*
X100510615Y-76904795D01*
X100423261Y-76788239D01*
X100306705Y-76700885D01*
X100170316Y-76649755D01*
X100108134Y-76643000D01*
X98011866Y-76643000D01*
X97949684Y-76649755D01*
X97813295Y-76700885D01*
X97696739Y-76788239D01*
X97609385Y-76904795D01*
X97558255Y-77041184D01*
X97551500Y-77103366D01*
X97551500Y-81649405D01*
X97531498Y-81717526D01*
X97514595Y-81738500D01*
X97500500Y-81752595D01*
X97438188Y-81786621D01*
X97411405Y-81789500D01*
X96845793Y-81789500D01*
X96822184Y-81787268D01*
X96821881Y-81787210D01*
X96821877Y-81787210D01*
X96814094Y-81785725D01*
X96758049Y-81789251D01*
X96750138Y-81789500D01*
X95601741Y-81789500D01*
X95533620Y-81769498D01*
X95494597Y-81729803D01*
X95482007Y-81709457D01*
X95434478Y-81632652D01*
X95309303Y-81507695D01*
X95304765Y-81504898D01*
X95264176Y-81447647D01*
X95260946Y-81376724D01*
X95296572Y-81315313D01*
X95305068Y-81307938D01*
X95315207Y-81299902D01*
X95429739Y-81185171D01*
X95438751Y-81173760D01*
X95523816Y-81035757D01*
X95529963Y-81022576D01*
X95581138Y-80868290D01*
X95584005Y-80854914D01*
X95593672Y-80760562D01*
X95594000Y-80754146D01*
X95594000Y-80641615D01*
X95589525Y-80626376D01*
X95588135Y-80625171D01*
X95580452Y-80623500D01*
X93146116Y-80623500D01*
X93130877Y-80627975D01*
X93129672Y-80629365D01*
X93128001Y-80637048D01*
X93128001Y-80754095D01*
X93128338Y-80760614D01*
X93138257Y-80856206D01*
X93141149Y-80869600D01*
X93192588Y-81023784D01*
X93198761Y-81036962D01*
X93284063Y-81174807D01*
X93293099Y-81186208D01*
X93407828Y-81300738D01*
X93416762Y-81307794D01*
X93457823Y-81365712D01*
X93461053Y-81436635D01*
X93425426Y-81498046D01*
X93417593Y-81504846D01*
X93411652Y-81508522D01*
X93286695Y-81633697D01*
X93282855Y-81639927D01*
X93282854Y-81639928D01*
X93202986Y-81769498D01*
X93193885Y-81784262D01*
X93191581Y-81791209D01*
X93153643Y-81905590D01*
X93138203Y-81952139D01*
X93127500Y-82056600D01*
X93127500Y-82832400D01*
X91503775Y-82832400D01*
X91531529Y-82621590D01*
X91533156Y-82555000D01*
X91514852Y-82332361D01*
X91460431Y-82115702D01*
X91371354Y-81910840D01*
X91290736Y-81786223D01*
X91252822Y-81727617D01*
X91252820Y-81727614D01*
X91250014Y-81723277D01*
X91099670Y-81558051D01*
X91095619Y-81554852D01*
X91095615Y-81554848D01*
X90928414Y-81422800D01*
X90928410Y-81422798D01*
X90924359Y-81419598D01*
X90883053Y-81396796D01*
X90833084Y-81346364D01*
X90818312Y-81276921D01*
X90843428Y-81210516D01*
X90870780Y-81183909D01*
X90914603Y-81152650D01*
X91049860Y-81056173D01*
X91070348Y-81035757D01*
X91204435Y-80902137D01*
X91208096Y-80898489D01*
X91212661Y-80892137D01*
X91335435Y-80721277D01*
X91338453Y-80717077D01*
X91343396Y-80707077D01*
X91435136Y-80521453D01*
X91435137Y-80521451D01*
X91437430Y-80516811D01*
X91502370Y-80303069D01*
X91529449Y-80097385D01*
X93128000Y-80097385D01*
X93132475Y-80112624D01*
X93133865Y-80113829D01*
X93141548Y-80115500D01*
X94088885Y-80115500D01*
X94104124Y-80111025D01*
X94105329Y-80109635D01*
X94107000Y-80101952D01*
X94107000Y-80097385D01*
X94615000Y-80097385D01*
X94619475Y-80112624D01*
X94620865Y-80113829D01*
X94628548Y-80115500D01*
X95575884Y-80115500D01*
X95591123Y-80111025D01*
X95592328Y-80109635D01*
X95593999Y-80101952D01*
X95593999Y-79984905D01*
X95593662Y-79978386D01*
X95583743Y-79882794D01*
X95580851Y-79869400D01*
X95529412Y-79715216D01*
X95523239Y-79702038D01*
X95437937Y-79564193D01*
X95428901Y-79552792D01*
X95314171Y-79438261D01*
X95302760Y-79429249D01*
X95164757Y-79344184D01*
X95151576Y-79338037D01*
X94997290Y-79286862D01*
X94983914Y-79283995D01*
X94889562Y-79274328D01*
X94883145Y-79274000D01*
X94633115Y-79274000D01*
X94617876Y-79278475D01*
X94616671Y-79279865D01*
X94615000Y-79287548D01*
X94615000Y-80097385D01*
X94107000Y-80097385D01*
X94107000Y-79292116D01*
X94102525Y-79276877D01*
X94101135Y-79275672D01*
X94093452Y-79274001D01*
X93838905Y-79274001D01*
X93832386Y-79274338D01*
X93736794Y-79284257D01*
X93723400Y-79287149D01*
X93569216Y-79338588D01*
X93556038Y-79344761D01*
X93418193Y-79430063D01*
X93406792Y-79439099D01*
X93292261Y-79553829D01*
X93283249Y-79565240D01*
X93198184Y-79703243D01*
X93192037Y-79716424D01*
X93140862Y-79870710D01*
X93137995Y-79884086D01*
X93128328Y-79978438D01*
X93128000Y-79984855D01*
X93128000Y-80097385D01*
X91529449Y-80097385D01*
X91531529Y-80081590D01*
X91533156Y-80015000D01*
X91514852Y-79792361D01*
X91460431Y-79575702D01*
X91371354Y-79370840D01*
X91250014Y-79183277D01*
X91099670Y-79018051D01*
X91095619Y-79014852D01*
X91095615Y-79014848D01*
X90928414Y-78882800D01*
X90928410Y-78882798D01*
X90924359Y-78879598D01*
X90883053Y-78856796D01*
X90833084Y-78806364D01*
X90818312Y-78736921D01*
X90843428Y-78670516D01*
X90870780Y-78643909D01*
X90914603Y-78612650D01*
X91049860Y-78516173D01*
X91208096Y-78358489D01*
X91212661Y-78352137D01*
X91335435Y-78181277D01*
X91338453Y-78177077D01*
X91340746Y-78172437D01*
X91342446Y-78169608D01*
X91394674Y-78121518D01*
X91450451Y-78108500D01*
X93515233Y-78108500D01*
X93526416Y-78109027D01*
X93533909Y-78110702D01*
X93541835Y-78110453D01*
X93541836Y-78110453D01*
X93601986Y-78108562D01*
X93605945Y-78108500D01*
X93633856Y-78108500D01*
X93637791Y-78108003D01*
X93637856Y-78107995D01*
X93649693Y-78107062D01*
X93681951Y-78106048D01*
X93685970Y-78105922D01*
X93693889Y-78105673D01*
X93713343Y-78100021D01*
X93732700Y-78096013D01*
X93744930Y-78094468D01*
X93744931Y-78094468D01*
X93752797Y-78093474D01*
X93760168Y-78090555D01*
X93760170Y-78090555D01*
X93793912Y-78077196D01*
X93805142Y-78073351D01*
X93839983Y-78063229D01*
X93839984Y-78063229D01*
X93847593Y-78061018D01*
X93854412Y-78056985D01*
X93854417Y-78056983D01*
X93865028Y-78050707D01*
X93882776Y-78042012D01*
X93901617Y-78034552D01*
X93937387Y-78008564D01*
X93947307Y-78002048D01*
X93978535Y-77983580D01*
X93978538Y-77983578D01*
X93985362Y-77979542D01*
X93999683Y-77965221D01*
X94014717Y-77952380D01*
X94024694Y-77945131D01*
X94031107Y-77940472D01*
X94059298Y-77906395D01*
X94067288Y-77897616D01*
X95602500Y-76362405D01*
X95664812Y-76328379D01*
X95691595Y-76325500D01*
X99743233Y-76325500D01*
X99754416Y-76326027D01*
X99761909Y-76327702D01*
X99769835Y-76327453D01*
X99769836Y-76327453D01*
X99829986Y-76325562D01*
X99833945Y-76325500D01*
X99861856Y-76325500D01*
X99865791Y-76325003D01*
X99865856Y-76324995D01*
X99877693Y-76324062D01*
X99909951Y-76323048D01*
X99913970Y-76322922D01*
X99921889Y-76322673D01*
X99941343Y-76317021D01*
X99960700Y-76313013D01*
X99972930Y-76311468D01*
X99972931Y-76311468D01*
X99980797Y-76310474D01*
X99988168Y-76307555D01*
X99988170Y-76307555D01*
X100021912Y-76294196D01*
X100033142Y-76290351D01*
X100067983Y-76280229D01*
X100067984Y-76280229D01*
X100075593Y-76278018D01*
X100082412Y-76273985D01*
X100082417Y-76273983D01*
X100093028Y-76267707D01*
X100110776Y-76259012D01*
X100129617Y-76251552D01*
X100165387Y-76225564D01*
X100175307Y-76219048D01*
X100206535Y-76200580D01*
X100206538Y-76200578D01*
X100213362Y-76196542D01*
X100227683Y-76182221D01*
X100242717Y-76169380D01*
X100259107Y-76157472D01*
X100287298Y-76123395D01*
X100295288Y-76114616D01*
X100722247Y-75687657D01*
X100730537Y-75680113D01*
X100737018Y-75676000D01*
X100778032Y-75632324D01*
X100839245Y-75596358D01*
X100910185Y-75599195D01*
X100933453Y-75609788D01*
X100996000Y-75646338D01*
X101204692Y-75726030D01*
X101209760Y-75727061D01*
X101209763Y-75727062D01*
X101317017Y-75748883D01*
X101423597Y-75770567D01*
X101428772Y-75770757D01*
X101428774Y-75770757D01*
X101641673Y-75778564D01*
X101641677Y-75778564D01*
X101646837Y-75778753D01*
X101651957Y-75778097D01*
X101651959Y-75778097D01*
X101863288Y-75751025D01*
X101863289Y-75751025D01*
X101868416Y-75750368D01*
X101902681Y-75740088D01*
X102077429Y-75687661D01*
X102077434Y-75687659D01*
X102082384Y-75686174D01*
X102282994Y-75587896D01*
X102464860Y-75458173D01*
X102623096Y-75300489D01*
X102651756Y-75260605D01*
X102750435Y-75123277D01*
X102753453Y-75119077D01*
X102765786Y-75094124D01*
X102850136Y-74923453D01*
X102850137Y-74923451D01*
X102852430Y-74918811D01*
X102884900Y-74811940D01*
X102915865Y-74710023D01*
X102915865Y-74710021D01*
X102917370Y-74705069D01*
X102946529Y-74483590D01*
X102948156Y-74417000D01*
X102929852Y-74194361D01*
X102875431Y-73977702D01*
X102786354Y-73772840D01*
X102718761Y-73668357D01*
X102667822Y-73589617D01*
X102667820Y-73589614D01*
X102665014Y-73585277D01*
X102645405Y-73563727D01*
X102517798Y-73423488D01*
X102486746Y-73359642D01*
X102495141Y-73289143D01*
X102540317Y-73234375D01*
X102566761Y-73220706D01*
X102673297Y-73180767D01*
X102681705Y-73177615D01*
X102798261Y-73090261D01*
X102885615Y-72973705D01*
X102936745Y-72837316D01*
X102943500Y-72775134D01*
X102943500Y-70978866D01*
X102936745Y-70916684D01*
X102885615Y-70780295D01*
X102798261Y-70663739D01*
X102693635Y-70585326D01*
X102651120Y-70528467D01*
X102646094Y-70457648D01*
X102680154Y-70395355D01*
X102742485Y-70361365D01*
X102769200Y-70358500D01*
X107900633Y-70358500D01*
X107920018Y-70360000D01*
X107934851Y-70362310D01*
X107934855Y-70362310D01*
X107943724Y-70363691D01*
X107952626Y-70362527D01*
X107952629Y-70362527D01*
X107960012Y-70361561D01*
X107984591Y-70360767D01*
X108011442Y-70362527D01*
X108206922Y-70375340D01*
X108223262Y-70377491D01*
X108313071Y-70395355D01*
X108467696Y-70426112D01*
X108483606Y-70430375D01*
X108719600Y-70510484D01*
X108734826Y-70516791D01*
X108958342Y-70627016D01*
X108972616Y-70635257D01*
X109179829Y-70773713D01*
X109192905Y-70783746D01*
X109380278Y-70948068D01*
X109391932Y-70959722D01*
X109556254Y-71147095D01*
X109566287Y-71160171D01*
X109704743Y-71367384D01*
X109712984Y-71381658D01*
X109823209Y-71605174D01*
X109829515Y-71620398D01*
X109909625Y-71856394D01*
X109913889Y-71872307D01*
X109962509Y-72116738D01*
X109964660Y-72133078D01*
X109978763Y-72348236D01*
X109977733Y-72371350D01*
X109977690Y-72374854D01*
X109976309Y-72383724D01*
X109977473Y-72392626D01*
X109977473Y-72392628D01*
X109980436Y-72415283D01*
X109981500Y-72431621D01*
X109981500Y-95200633D01*
X109980000Y-95220018D01*
X109977690Y-95234851D01*
X109977690Y-95234855D01*
X109976309Y-95243724D01*
X109977473Y-95252626D01*
X109977473Y-95252629D01*
X109978439Y-95260012D01*
X109979233Y-95284591D01*
X109964660Y-95506922D01*
X109962509Y-95523262D01*
X109916054Y-95756811D01*
X109913889Y-95767693D01*
X109909625Y-95783606D01*
X109850740Y-95957077D01*
X109829516Y-96019600D01*
X109823209Y-96034826D01*
X109712984Y-96258342D01*
X109704743Y-96272616D01*
X109566287Y-96479829D01*
X109556254Y-96492905D01*
X109391932Y-96680278D01*
X109380278Y-96691932D01*
X109192905Y-96856254D01*
X109179829Y-96866287D01*
X108972616Y-97004743D01*
X108958342Y-97012984D01*
X108734826Y-97123209D01*
X108719602Y-97129515D01*
X108483606Y-97209625D01*
X108467696Y-97213888D01*
X108345477Y-97238199D01*
X108223262Y-97262509D01*
X108206922Y-97264660D01*
X108058134Y-97274413D01*
X107991763Y-97278763D01*
X107968650Y-97277733D01*
X107965146Y-97277690D01*
X107956276Y-97276309D01*
X107947374Y-97277473D01*
X107947372Y-97277473D01*
X107933915Y-97279233D01*
X107924714Y-97280436D01*
X107908379Y-97281500D01*
X100642443Y-97281500D01*
X100574322Y-97261498D01*
X100527829Y-97207842D01*
X100517725Y-97137568D01*
X100524461Y-97111270D01*
X100549559Y-97044323D01*
X100561745Y-97011816D01*
X100568500Y-96949634D01*
X100568500Y-92671695D01*
X106587251Y-92671695D01*
X106587548Y-92676848D01*
X106587548Y-92676851D01*
X106593011Y-92771590D01*
X106600110Y-92894715D01*
X106601247Y-92899761D01*
X106601248Y-92899767D01*
X106603502Y-92909767D01*
X106649222Y-93112639D01*
X106733266Y-93319616D01*
X106849987Y-93510088D01*
X106996250Y-93678938D01*
X107000230Y-93682242D01*
X107004981Y-93686187D01*
X107044616Y-93745090D01*
X107046113Y-93816071D01*
X107008997Y-93876593D01*
X106968724Y-93901112D01*
X106853295Y-93944385D01*
X106736739Y-94031739D01*
X106649385Y-94148295D01*
X106598255Y-94284684D01*
X106591500Y-94346866D01*
X106591500Y-96143134D01*
X106598255Y-96205316D01*
X106649385Y-96341705D01*
X106736739Y-96458261D01*
X106853295Y-96545615D01*
X106989684Y-96596745D01*
X107051866Y-96603500D01*
X108848134Y-96603500D01*
X108910316Y-96596745D01*
X109046705Y-96545615D01*
X109163261Y-96458261D01*
X109250615Y-96341705D01*
X109301745Y-96205316D01*
X109308500Y-96143134D01*
X109308500Y-94346866D01*
X109301745Y-94284684D01*
X109250615Y-94148295D01*
X109163261Y-94031739D01*
X109046705Y-93944385D01*
X109034132Y-93939672D01*
X108928203Y-93899960D01*
X108871439Y-93857318D01*
X108846739Y-93790756D01*
X108861947Y-93721408D01*
X108883493Y-93692727D01*
X108978061Y-93598489D01*
X108988096Y-93588489D01*
X109047594Y-93505689D01*
X109115435Y-93411277D01*
X109118453Y-93407077D01*
X109156737Y-93329616D01*
X109215136Y-93211453D01*
X109215137Y-93211451D01*
X109217430Y-93206811D01*
X109282370Y-92993069D01*
X109311529Y-92771590D01*
X109311611Y-92768240D01*
X109313074Y-92708365D01*
X109313074Y-92708361D01*
X109313156Y-92705000D01*
X109294852Y-92482361D01*
X109240431Y-92265702D01*
X109151354Y-92060840D01*
X109039291Y-91887617D01*
X109032822Y-91877617D01*
X109032820Y-91877614D01*
X109030014Y-91873277D01*
X108879670Y-91708051D01*
X108875619Y-91704852D01*
X108875615Y-91704848D01*
X108708414Y-91572800D01*
X108708410Y-91572798D01*
X108704359Y-91569598D01*
X108663053Y-91546796D01*
X108613084Y-91496364D01*
X108598312Y-91426921D01*
X108623428Y-91360516D01*
X108650780Y-91333909D01*
X108714684Y-91288327D01*
X108829860Y-91206173D01*
X108988096Y-91048489D01*
X109000428Y-91031328D01*
X109115435Y-90871277D01*
X109118453Y-90867077D01*
X109156737Y-90789616D01*
X109215136Y-90671453D01*
X109215137Y-90671451D01*
X109217430Y-90666811D01*
X109282370Y-90453069D01*
X109311529Y-90231590D01*
X109312509Y-90191500D01*
X109313074Y-90168365D01*
X109313074Y-90168361D01*
X109313156Y-90165000D01*
X109294852Y-89942361D01*
X109240431Y-89725702D01*
X109151354Y-89520840D01*
X109039291Y-89347617D01*
X109032822Y-89337617D01*
X109032820Y-89337614D01*
X109030014Y-89333277D01*
X108879670Y-89168051D01*
X108875619Y-89164852D01*
X108875615Y-89164848D01*
X108708414Y-89032800D01*
X108708410Y-89032798D01*
X108704359Y-89029598D01*
X108663053Y-89006796D01*
X108613084Y-88956364D01*
X108598312Y-88886921D01*
X108623428Y-88820516D01*
X108650780Y-88793909D01*
X108714684Y-88748327D01*
X108829860Y-88666173D01*
X108988096Y-88508489D01*
X109009183Y-88479144D01*
X109115435Y-88331277D01*
X109118453Y-88327077D01*
X109122400Y-88319092D01*
X109215136Y-88131453D01*
X109215137Y-88131451D01*
X109217430Y-88126811D01*
X109282370Y-87913069D01*
X109311529Y-87691590D01*
X109312069Y-87669502D01*
X109313074Y-87628365D01*
X109313074Y-87628361D01*
X109313156Y-87625000D01*
X109294852Y-87402361D01*
X109240431Y-87185702D01*
X109151354Y-86980840D01*
X109039291Y-86807617D01*
X109032822Y-86797617D01*
X109032820Y-86797614D01*
X109030014Y-86793277D01*
X108879670Y-86628051D01*
X108875619Y-86624852D01*
X108875615Y-86624848D01*
X108708414Y-86492800D01*
X108708410Y-86492798D01*
X108704359Y-86489598D01*
X108663053Y-86466796D01*
X108613084Y-86416364D01*
X108598312Y-86346921D01*
X108623428Y-86280516D01*
X108650780Y-86253909D01*
X108715931Y-86207437D01*
X108829860Y-86126173D01*
X108845763Y-86110326D01*
X108978061Y-85978489D01*
X108988096Y-85968489D01*
X109001467Y-85949882D01*
X109115435Y-85791277D01*
X109118453Y-85787077D01*
X109156737Y-85709616D01*
X109215136Y-85591453D01*
X109215137Y-85591451D01*
X109217430Y-85586811D01*
X109282370Y-85373069D01*
X109311529Y-85151590D01*
X109312082Y-85128960D01*
X109313074Y-85088365D01*
X109313074Y-85088361D01*
X109313156Y-85085000D01*
X109294852Y-84862361D01*
X109240431Y-84645702D01*
X109151354Y-84440840D01*
X109039291Y-84267617D01*
X109032822Y-84257617D01*
X109032820Y-84257614D01*
X109030014Y-84253277D01*
X108879670Y-84088051D01*
X108875619Y-84084852D01*
X108875615Y-84084848D01*
X108708414Y-83952800D01*
X108708410Y-83952798D01*
X108704359Y-83949598D01*
X108663053Y-83926796D01*
X108613084Y-83876364D01*
X108598312Y-83806921D01*
X108623428Y-83740516D01*
X108650780Y-83713909D01*
X108714684Y-83668327D01*
X108829860Y-83586173D01*
X108988096Y-83428489D01*
X108994558Y-83419497D01*
X109115435Y-83251277D01*
X109118453Y-83247077D01*
X109156737Y-83169616D01*
X109215136Y-83051453D01*
X109215137Y-83051451D01*
X109217430Y-83046811D01*
X109282370Y-82833069D01*
X109311529Y-82611590D01*
X109311611Y-82608240D01*
X109313074Y-82548365D01*
X109313074Y-82548361D01*
X109313156Y-82545000D01*
X109294852Y-82322361D01*
X109240431Y-82105702D01*
X109151354Y-81900840D01*
X109111906Y-81839862D01*
X109032822Y-81717617D01*
X109032820Y-81717614D01*
X109030014Y-81713277D01*
X108879670Y-81548051D01*
X108875619Y-81544852D01*
X108875615Y-81544848D01*
X108708414Y-81412800D01*
X108708410Y-81412798D01*
X108704359Y-81409598D01*
X108663053Y-81386796D01*
X108613084Y-81336364D01*
X108598312Y-81266921D01*
X108623428Y-81200516D01*
X108650780Y-81173909D01*
X108714684Y-81128327D01*
X108829860Y-81046173D01*
X108840313Y-81035757D01*
X108978061Y-80898489D01*
X108988096Y-80888489D01*
X109002611Y-80868290D01*
X109115435Y-80711277D01*
X109118453Y-80707077D01*
X109153064Y-80637048D01*
X109215136Y-80511453D01*
X109215137Y-80511451D01*
X109217430Y-80506811D01*
X109282370Y-80293069D01*
X109311529Y-80071590D01*
X109311611Y-80068240D01*
X109313074Y-80008365D01*
X109313074Y-80008361D01*
X109313156Y-80005000D01*
X109294852Y-79782361D01*
X109240431Y-79565702D01*
X109151354Y-79360840D01*
X109039291Y-79187617D01*
X109032822Y-79177617D01*
X109032820Y-79177614D01*
X109030014Y-79173277D01*
X108879670Y-79008051D01*
X108875619Y-79004852D01*
X108875615Y-79004848D01*
X108708414Y-78872800D01*
X108708410Y-78872798D01*
X108704359Y-78869598D01*
X108663053Y-78846796D01*
X108613084Y-78796364D01*
X108598312Y-78726921D01*
X108623428Y-78660516D01*
X108650780Y-78633909D01*
X108714684Y-78588327D01*
X108829860Y-78506173D01*
X108988096Y-78348489D01*
X109047594Y-78265689D01*
X109115435Y-78171277D01*
X109118453Y-78167077D01*
X109147404Y-78108500D01*
X109215136Y-77971453D01*
X109215137Y-77971451D01*
X109217430Y-77966811D01*
X109282370Y-77753069D01*
X109311529Y-77531590D01*
X109313156Y-77465000D01*
X109294852Y-77242361D01*
X109240431Y-77025702D01*
X109151354Y-76820840D01*
X109073752Y-76700885D01*
X109032822Y-76637617D01*
X109032820Y-76637614D01*
X109030014Y-76633277D01*
X108879670Y-76468051D01*
X108875619Y-76464852D01*
X108875615Y-76464848D01*
X108708414Y-76332800D01*
X108708410Y-76332798D01*
X108704359Y-76329598D01*
X108663053Y-76306796D01*
X108613084Y-76256364D01*
X108598312Y-76186921D01*
X108623428Y-76120516D01*
X108650780Y-76093909D01*
X108714684Y-76048327D01*
X108829860Y-75966173D01*
X108988096Y-75808489D01*
X109009464Y-75778753D01*
X109115435Y-75631277D01*
X109118453Y-75627077D01*
X109133869Y-75595886D01*
X109215136Y-75431453D01*
X109215137Y-75431451D01*
X109217430Y-75426811D01*
X109282370Y-75213069D01*
X109311529Y-74991590D01*
X109311611Y-74988240D01*
X109313074Y-74928365D01*
X109313074Y-74928361D01*
X109313156Y-74925000D01*
X109294852Y-74702361D01*
X109240431Y-74485702D01*
X109151354Y-74280840D01*
X109039291Y-74107617D01*
X109032822Y-74097617D01*
X109032820Y-74097614D01*
X109030014Y-74093277D01*
X108879670Y-73928051D01*
X108875619Y-73924852D01*
X108875615Y-73924848D01*
X108708414Y-73792800D01*
X108708410Y-73792798D01*
X108704359Y-73789598D01*
X108663053Y-73766796D01*
X108613084Y-73716364D01*
X108598312Y-73646921D01*
X108623428Y-73580516D01*
X108650780Y-73553909D01*
X108694603Y-73522650D01*
X108829860Y-73426173D01*
X108836004Y-73420051D01*
X108984435Y-73272137D01*
X108988096Y-73268489D01*
X109009464Y-73238753D01*
X109115435Y-73091277D01*
X109118453Y-73087077D01*
X109126561Y-73070673D01*
X109215136Y-72891453D01*
X109215137Y-72891451D01*
X109217430Y-72886811D01*
X109282370Y-72673069D01*
X109311529Y-72451590D01*
X109313156Y-72385000D01*
X109294852Y-72162361D01*
X109240431Y-71945702D01*
X109151354Y-71740840D01*
X109030014Y-71553277D01*
X108879670Y-71388051D01*
X108875619Y-71384852D01*
X108875615Y-71384848D01*
X108708414Y-71252800D01*
X108708410Y-71252798D01*
X108704359Y-71249598D01*
X108508789Y-71141638D01*
X108503920Y-71139914D01*
X108503916Y-71139912D01*
X108303087Y-71068795D01*
X108303083Y-71068794D01*
X108298212Y-71067069D01*
X108293119Y-71066162D01*
X108293116Y-71066161D01*
X108083373Y-71028800D01*
X108083367Y-71028799D01*
X108078284Y-71027894D01*
X108004452Y-71026992D01*
X107860081Y-71025228D01*
X107860079Y-71025228D01*
X107854911Y-71025165D01*
X107634091Y-71058955D01*
X107421756Y-71128357D01*
X107223607Y-71231507D01*
X107219474Y-71234610D01*
X107219471Y-71234612D01*
X107049100Y-71362530D01*
X107044965Y-71365635D01*
X106890629Y-71527138D01*
X106764743Y-71711680D01*
X106749003Y-71745590D01*
X106701071Y-71848851D01*
X106670688Y-71914305D01*
X106610989Y-72129570D01*
X106610440Y-72134707D01*
X106609456Y-72143913D01*
X106587251Y-72351695D01*
X106587548Y-72356848D01*
X106587548Y-72356851D01*
X106597222Y-72524625D01*
X106600110Y-72574715D01*
X106601247Y-72579761D01*
X106601248Y-72579767D01*
X106623392Y-72678023D01*
X106649222Y-72792639D01*
X106687461Y-72886811D01*
X106725663Y-72980891D01*
X106733266Y-72999616D01*
X106761832Y-73046232D01*
X106842344Y-73177615D01*
X106849987Y-73190088D01*
X106996250Y-73358938D01*
X107168126Y-73501632D01*
X107238595Y-73542811D01*
X107241445Y-73544476D01*
X107290169Y-73596114D01*
X107303240Y-73665897D01*
X107276509Y-73731669D01*
X107236055Y-73765027D01*
X107223607Y-73771507D01*
X107219474Y-73774610D01*
X107219471Y-73774612D01*
X107049100Y-73902530D01*
X107044965Y-73905635D01*
X106890629Y-74067138D01*
X106887715Y-74071410D01*
X106887714Y-74071411D01*
X106875404Y-74089457D01*
X106764743Y-74251680D01*
X106670688Y-74454305D01*
X106610989Y-74669570D01*
X106587251Y-74891695D01*
X106587548Y-74896848D01*
X106587548Y-74896851D01*
X106593011Y-74991590D01*
X106600110Y-75114715D01*
X106601247Y-75119761D01*
X106601248Y-75119767D01*
X106617768Y-75193069D01*
X106649222Y-75332639D01*
X106733266Y-75539616D01*
X106776268Y-75609789D01*
X106846370Y-75724185D01*
X106849987Y-75730088D01*
X106996250Y-75898938D01*
X107168126Y-76041632D01*
X107185239Y-76051632D01*
X107241445Y-76084476D01*
X107290169Y-76136114D01*
X107303240Y-76205897D01*
X107276509Y-76271669D01*
X107236055Y-76305027D01*
X107223607Y-76311507D01*
X107219474Y-76314610D01*
X107219471Y-76314612D01*
X107155817Y-76362405D01*
X107044965Y-76445635D01*
X106890629Y-76607138D01*
X106887715Y-76611410D01*
X106887714Y-76611411D01*
X106861558Y-76649755D01*
X106764743Y-76791680D01*
X106670688Y-76994305D01*
X106610989Y-77209570D01*
X106587251Y-77431695D01*
X106587548Y-77436848D01*
X106587548Y-77436851D01*
X106593011Y-77531590D01*
X106600110Y-77654715D01*
X106601247Y-77659761D01*
X106601248Y-77659767D01*
X106603502Y-77669767D01*
X106649222Y-77872639D01*
X106704415Y-78008564D01*
X106713075Y-78029890D01*
X106733266Y-78079616D01*
X106849987Y-78270088D01*
X106996250Y-78438938D01*
X107168126Y-78581632D01*
X107185239Y-78591632D01*
X107241445Y-78624476D01*
X107290169Y-78676114D01*
X107303240Y-78745897D01*
X107276509Y-78811669D01*
X107236055Y-78845027D01*
X107223607Y-78851507D01*
X107219474Y-78854610D01*
X107219471Y-78854612D01*
X107049100Y-78982530D01*
X107044965Y-78985635D01*
X106890629Y-79147138D01*
X106887715Y-79151410D01*
X106887714Y-79151411D01*
X106875404Y-79169457D01*
X106764743Y-79331680D01*
X106670688Y-79534305D01*
X106610989Y-79749570D01*
X106587251Y-79971695D01*
X106587548Y-79976848D01*
X106587548Y-79976851D01*
X106599812Y-80189547D01*
X106600110Y-80194715D01*
X106601247Y-80199761D01*
X106601248Y-80199767D01*
X106603502Y-80209767D01*
X106649222Y-80412639D01*
X106733266Y-80619616D01*
X106746747Y-80641615D01*
X106819638Y-80760562D01*
X106849987Y-80810088D01*
X106996250Y-80978938D01*
X107168126Y-81121632D01*
X107185239Y-81131632D01*
X107241445Y-81164476D01*
X107290169Y-81216114D01*
X107303240Y-81285897D01*
X107276509Y-81351669D01*
X107236055Y-81385027D01*
X107223607Y-81391507D01*
X107219474Y-81394610D01*
X107219471Y-81394612D01*
X107049100Y-81522530D01*
X107044965Y-81525635D01*
X107041393Y-81529373D01*
X106926688Y-81649405D01*
X106890629Y-81687138D01*
X106887715Y-81691410D01*
X106887714Y-81691411D01*
X106822325Y-81787268D01*
X106764743Y-81871680D01*
X106670688Y-82074305D01*
X106610989Y-82289570D01*
X106587251Y-82511695D01*
X106587548Y-82516848D01*
X106587548Y-82516851D01*
X106593011Y-82611590D01*
X106600110Y-82734715D01*
X106601247Y-82739761D01*
X106601248Y-82739767D01*
X106622125Y-82832400D01*
X106649222Y-82952639D01*
X106733266Y-83159616D01*
X106735965Y-83164020D01*
X106833967Y-83323945D01*
X106849987Y-83350088D01*
X106996250Y-83518938D01*
X107168126Y-83661632D01*
X107185239Y-83671632D01*
X107241445Y-83704476D01*
X107290169Y-83756114D01*
X107303240Y-83825897D01*
X107276509Y-83891669D01*
X107236055Y-83925027D01*
X107223607Y-83931507D01*
X107219474Y-83934610D01*
X107219471Y-83934612D01*
X107110798Y-84016206D01*
X107044965Y-84065635D01*
X106890629Y-84227138D01*
X106887715Y-84231410D01*
X106887714Y-84231411D01*
X106875404Y-84249457D01*
X106764743Y-84411680D01*
X106670688Y-84614305D01*
X106610989Y-84829570D01*
X106587251Y-85051695D01*
X106587548Y-85056848D01*
X106587548Y-85056851D01*
X106593011Y-85151590D01*
X106600110Y-85274715D01*
X106601247Y-85279761D01*
X106601248Y-85279767D01*
X106603502Y-85289767D01*
X106649222Y-85492639D01*
X106733266Y-85699616D01*
X106849987Y-85890088D01*
X106996250Y-86058938D01*
X107168126Y-86201632D01*
X107238595Y-86242811D01*
X107241445Y-86244476D01*
X107290169Y-86296114D01*
X107303240Y-86365897D01*
X107276509Y-86431669D01*
X107236055Y-86465027D01*
X107223607Y-86471507D01*
X107219474Y-86474610D01*
X107219471Y-86474612D01*
X107117636Y-86551072D01*
X107044965Y-86605635D01*
X106890629Y-86767138D01*
X106887715Y-86771410D01*
X106887714Y-86771411D01*
X106875404Y-86789457D01*
X106764743Y-86951680D01*
X106670688Y-87154305D01*
X106610989Y-87369570D01*
X106587251Y-87591695D01*
X106587548Y-87596848D01*
X106587548Y-87596851D01*
X106593011Y-87691590D01*
X106600110Y-87814715D01*
X106601247Y-87819761D01*
X106601248Y-87819767D01*
X106603502Y-87829767D01*
X106649222Y-88032639D01*
X106733266Y-88239616D01*
X106741834Y-88253598D01*
X106807162Y-88360203D01*
X106849987Y-88430088D01*
X106996250Y-88598938D01*
X107168126Y-88741632D01*
X107185239Y-88751632D01*
X107241445Y-88784476D01*
X107290169Y-88836114D01*
X107303240Y-88905897D01*
X107276509Y-88971669D01*
X107236055Y-89005027D01*
X107223607Y-89011507D01*
X107219474Y-89014610D01*
X107219471Y-89014612D01*
X107049100Y-89142530D01*
X107044965Y-89145635D01*
X106890629Y-89307138D01*
X106887715Y-89311410D01*
X106887714Y-89311411D01*
X106875404Y-89329457D01*
X106764743Y-89491680D01*
X106717715Y-89592993D01*
X106677781Y-89679025D01*
X106670688Y-89694305D01*
X106610989Y-89909570D01*
X106587251Y-90131695D01*
X106587548Y-90136848D01*
X106587548Y-90136851D01*
X106593011Y-90231590D01*
X106600110Y-90354715D01*
X106601247Y-90359761D01*
X106601248Y-90359767D01*
X106618494Y-90436290D01*
X106649222Y-90572639D01*
X106710673Y-90723976D01*
X106718320Y-90742807D01*
X106733266Y-90779616D01*
X106735965Y-90784020D01*
X106845531Y-90962816D01*
X106849987Y-90970088D01*
X106996250Y-91138938D01*
X107168126Y-91281632D01*
X107185239Y-91291632D01*
X107241445Y-91324476D01*
X107290169Y-91376114D01*
X107303240Y-91445897D01*
X107276509Y-91511669D01*
X107236055Y-91545027D01*
X107223607Y-91551507D01*
X107219474Y-91554610D01*
X107219471Y-91554612D01*
X107049100Y-91682530D01*
X107044965Y-91685635D01*
X106890629Y-91847138D01*
X106887715Y-91851410D01*
X106887714Y-91851411D01*
X106875404Y-91869457D01*
X106764743Y-92031680D01*
X106670688Y-92234305D01*
X106610989Y-92449570D01*
X106587251Y-92671695D01*
X100568500Y-92671695D01*
X100568500Y-88978366D01*
X100561745Y-88916184D01*
X100510615Y-88779795D01*
X100423261Y-88663239D01*
X100306705Y-88575885D01*
X100170316Y-88524755D01*
X100114440Y-88518685D01*
X100111531Y-88518369D01*
X100108134Y-88518000D01*
X99812945Y-88518000D01*
X99744824Y-88497998D01*
X99698331Y-88444342D01*
X99690723Y-88419098D01*
X99690675Y-88419112D01*
X99689275Y-88414293D01*
X99689252Y-88414217D01*
X99688463Y-88411500D01*
X99685023Y-88399659D01*
X99681012Y-88380295D01*
X99679467Y-88368064D01*
X99678474Y-88360203D01*
X99675557Y-88352836D01*
X99675556Y-88352831D01*
X99662198Y-88319092D01*
X99658354Y-88307865D01*
X99648230Y-88273022D01*
X99646018Y-88265407D01*
X99635707Y-88247972D01*
X99627012Y-88230224D01*
X99619552Y-88211383D01*
X99593564Y-88175613D01*
X99587048Y-88165693D01*
X99568580Y-88134465D01*
X99568578Y-88134462D01*
X99564542Y-88127638D01*
X99550221Y-88113317D01*
X99537380Y-88098283D01*
X99530131Y-88088306D01*
X99525472Y-88081893D01*
X99491395Y-88053702D01*
X99482616Y-88045712D01*
X98229122Y-86792217D01*
X98195096Y-86729905D01*
X98192907Y-86716292D01*
X98176232Y-86557635D01*
X98176232Y-86557633D01*
X98175542Y-86551072D01*
X98116527Y-86369444D01*
X98084712Y-86314338D01*
X98062304Y-86275528D01*
X98021040Y-86204056D01*
X98004881Y-86186109D01*
X97897675Y-86067045D01*
X97897674Y-86067044D01*
X97893253Y-86062134D01*
X97738752Y-85949882D01*
X97732724Y-85947198D01*
X97732722Y-85947197D01*
X97570319Y-85874891D01*
X97570318Y-85874891D01*
X97564288Y-85872206D01*
X97470888Y-85852353D01*
X97383944Y-85833872D01*
X97383939Y-85833872D01*
X97377487Y-85832500D01*
X97186513Y-85832500D01*
X97180061Y-85833872D01*
X97180056Y-85833872D01*
X97093112Y-85852353D01*
X96999712Y-85872206D01*
X96993682Y-85874891D01*
X96993681Y-85874891D01*
X96831278Y-85947197D01*
X96831276Y-85947198D01*
X96825248Y-85949882D01*
X96819907Y-85953762D01*
X96819906Y-85953763D01*
X96785874Y-85978489D01*
X96670747Y-86062134D01*
X96666332Y-86067037D01*
X96661420Y-86071460D01*
X96660295Y-86070211D01*
X96606986Y-86103051D01*
X96573800Y-86107500D01*
X95561268Y-86107500D01*
X95550085Y-86106973D01*
X95542592Y-86105298D01*
X95534666Y-86105547D01*
X95534665Y-86105547D01*
X95474502Y-86107438D01*
X95470544Y-86107500D01*
X95442644Y-86107500D01*
X95438654Y-86108004D01*
X95426820Y-86108936D01*
X95382611Y-86110326D01*
X95374995Y-86112539D01*
X95374993Y-86112539D01*
X95363152Y-86115979D01*
X95343793Y-86119988D01*
X95342483Y-86120154D01*
X95323703Y-86122526D01*
X95316337Y-86125442D01*
X95316331Y-86125444D01*
X95282598Y-86138800D01*
X95271368Y-86142645D01*
X95236517Y-86152770D01*
X95228907Y-86154981D01*
X95222084Y-86159016D01*
X95211466Y-86165295D01*
X95193713Y-86173992D01*
X95186068Y-86177019D01*
X95174883Y-86181448D01*
X95168468Y-86186109D01*
X95139112Y-86207437D01*
X95129195Y-86213951D01*
X95091138Y-86236458D01*
X95076817Y-86250779D01*
X95061784Y-86263619D01*
X95045393Y-86275528D01*
X95040342Y-86281634D01*
X95017202Y-86309605D01*
X95009212Y-86318384D01*
X94598001Y-86729595D01*
X94535689Y-86763621D01*
X94508906Y-86766500D01*
X93835600Y-86766500D01*
X93832354Y-86766837D01*
X93832350Y-86766837D01*
X93736692Y-86776762D01*
X93736688Y-86776763D01*
X93729834Y-86777474D01*
X93723298Y-86779655D01*
X93723296Y-86779655D01*
X93591194Y-86823728D01*
X93562054Y-86833450D01*
X93411652Y-86926522D01*
X93286695Y-87051697D01*
X93282855Y-87057927D01*
X93282854Y-87057928D01*
X93197929Y-87195702D01*
X93193885Y-87202262D01*
X93138203Y-87370139D01*
X93137503Y-87376975D01*
X93137502Y-87376978D01*
X93134032Y-87410843D01*
X93127500Y-87474600D01*
X93127500Y-88250400D01*
X93127837Y-88253646D01*
X93127837Y-88253650D01*
X93135892Y-88331277D01*
X93138474Y-88356166D01*
X93140655Y-88362702D01*
X93140655Y-88362704D01*
X93161669Y-88425689D01*
X93194450Y-88523946D01*
X93287522Y-88674348D01*
X93412697Y-88799305D01*
X93417235Y-88802102D01*
X93457824Y-88859353D01*
X93461054Y-88930276D01*
X93425428Y-88991687D01*
X93416932Y-88999062D01*
X93406793Y-89007098D01*
X93292261Y-89121829D01*
X93283249Y-89133240D01*
X93198184Y-89271243D01*
X93192037Y-89284424D01*
X93140862Y-89438710D01*
X93137995Y-89452086D01*
X93128328Y-89546438D01*
X93128000Y-89552855D01*
X93128000Y-89665385D01*
X93132475Y-89680624D01*
X93133865Y-89681829D01*
X93141548Y-89683500D01*
X95575884Y-89683500D01*
X95591123Y-89679025D01*
X95592328Y-89677635D01*
X95593999Y-89669952D01*
X95593999Y-89552905D01*
X95593662Y-89546386D01*
X95583743Y-89450794D01*
X95580851Y-89437400D01*
X95529412Y-89283216D01*
X95523239Y-89270038D01*
X95437937Y-89132193D01*
X95428901Y-89120792D01*
X95314172Y-89006262D01*
X95305238Y-88999206D01*
X95264177Y-88941288D01*
X95260947Y-88870365D01*
X95296574Y-88808954D01*
X95304407Y-88802154D01*
X95310348Y-88798478D01*
X95435305Y-88673303D01*
X95441946Y-88662529D01*
X95524275Y-88528968D01*
X95524276Y-88528966D01*
X95528115Y-88522738D01*
X95564084Y-88414293D01*
X95581632Y-88361389D01*
X95581632Y-88361387D01*
X95583797Y-88354861D01*
X95586095Y-88332438D01*
X95592962Y-88265407D01*
X95594500Y-88250400D01*
X95594500Y-87577094D01*
X95614502Y-87508973D01*
X95631405Y-87487999D01*
X95707999Y-87411405D01*
X95770311Y-87377379D01*
X95797094Y-87374500D01*
X96573800Y-87374500D01*
X96641921Y-87394502D01*
X96661147Y-87410843D01*
X96661420Y-87410540D01*
X96666332Y-87414963D01*
X96670747Y-87419866D01*
X96676086Y-87423745D01*
X96764524Y-87487999D01*
X96825248Y-87532118D01*
X96831276Y-87534802D01*
X96831278Y-87534803D01*
X96969992Y-87596562D01*
X96999712Y-87609794D01*
X97087081Y-87628365D01*
X97180056Y-87648128D01*
X97180061Y-87648128D01*
X97186513Y-87649500D01*
X97242406Y-87649500D01*
X97310527Y-87669502D01*
X97331501Y-87686405D01*
X97971438Y-88326342D01*
X98005464Y-88388654D01*
X98000399Y-88459469D01*
X97957852Y-88516305D01*
X97926572Y-88533419D01*
X97821705Y-88572732D01*
X97821704Y-88572733D01*
X97813295Y-88575885D01*
X97696739Y-88663239D01*
X97609385Y-88779795D01*
X97558255Y-88916184D01*
X97551500Y-88978366D01*
X97551500Y-96949634D01*
X97558255Y-97011816D01*
X97570442Y-97044323D01*
X97595539Y-97111270D01*
X97600722Y-97182077D01*
X97566801Y-97244446D01*
X97504546Y-97278576D01*
X97477557Y-97281500D01*
X90219367Y-97281500D01*
X90199982Y-97280000D01*
X90185149Y-97277690D01*
X90185145Y-97277690D01*
X90176276Y-97276309D01*
X90167374Y-97277473D01*
X90167371Y-97277473D01*
X90159988Y-97278439D01*
X90135409Y-97279233D01*
X90090799Y-97276309D01*
X89913078Y-97264660D01*
X89896738Y-97262509D01*
X89774523Y-97238199D01*
X89652304Y-97213888D01*
X89636394Y-97209625D01*
X89400398Y-97129515D01*
X89385174Y-97123209D01*
X89161658Y-97012984D01*
X89147384Y-97004743D01*
X88940171Y-96866287D01*
X88927095Y-96856254D01*
X88739722Y-96691932D01*
X88728068Y-96680278D01*
X88563746Y-96492905D01*
X88553713Y-96479829D01*
X88415257Y-96272616D01*
X88407016Y-96258342D01*
X88296791Y-96034826D01*
X88290484Y-96019600D01*
X88269260Y-95957077D01*
X88210375Y-95783606D01*
X88206111Y-95767693D01*
X88203947Y-95756811D01*
X88157491Y-95523262D01*
X88155340Y-95506922D01*
X88141476Y-95295407D01*
X88142650Y-95272232D01*
X88142334Y-95272204D01*
X88142770Y-95267344D01*
X88143576Y-95262552D01*
X88143729Y-95250000D01*
X88139773Y-95222376D01*
X88138500Y-95204514D01*
X88138500Y-72443250D01*
X88140246Y-72422345D01*
X88142770Y-72407344D01*
X88142770Y-72407341D01*
X88143576Y-72402552D01*
X88143729Y-72390000D01*
X88142003Y-72377947D01*
X88141001Y-72351845D01*
X88155340Y-72133078D01*
X88156682Y-72122885D01*
X88812000Y-72122885D01*
X88816475Y-72138124D01*
X88817865Y-72139329D01*
X88825548Y-72141000D01*
X89897885Y-72141000D01*
X89913124Y-72136525D01*
X89914329Y-72135135D01*
X89916000Y-72127452D01*
X89916000Y-72122885D01*
X90424000Y-72122885D01*
X90428475Y-72138124D01*
X90429865Y-72139329D01*
X90437548Y-72141000D01*
X91509884Y-72141000D01*
X91525123Y-72136525D01*
X91526328Y-72135135D01*
X91527999Y-72127452D01*
X91527999Y-71500331D01*
X91527629Y-71493510D01*
X91522105Y-71442648D01*
X91518479Y-71427396D01*
X91473324Y-71306946D01*
X91464786Y-71291351D01*
X91388285Y-71189276D01*
X91375724Y-71176715D01*
X91273649Y-71100214D01*
X91258054Y-71091676D01*
X91137606Y-71046522D01*
X91122351Y-71042895D01*
X91071486Y-71037369D01*
X91064672Y-71037000D01*
X90442115Y-71037000D01*
X90426876Y-71041475D01*
X90425671Y-71042865D01*
X90424000Y-71050548D01*
X90424000Y-72122885D01*
X89916000Y-72122885D01*
X89916000Y-71055116D01*
X89911525Y-71039877D01*
X89910135Y-71038672D01*
X89902452Y-71037001D01*
X89275331Y-71037001D01*
X89268510Y-71037371D01*
X89217648Y-71042895D01*
X89202396Y-71046521D01*
X89081946Y-71091676D01*
X89066351Y-71100214D01*
X88964276Y-71176715D01*
X88951715Y-71189276D01*
X88875214Y-71291351D01*
X88866676Y-71306946D01*
X88821522Y-71427394D01*
X88817895Y-71442649D01*
X88812369Y-71493514D01*
X88812000Y-71500328D01*
X88812000Y-72122885D01*
X88156682Y-72122885D01*
X88157491Y-72116738D01*
X88206111Y-71872307D01*
X88210375Y-71856394D01*
X88290485Y-71620398D01*
X88296791Y-71605174D01*
X88407016Y-71381658D01*
X88415257Y-71367384D01*
X88553713Y-71160171D01*
X88563746Y-71147095D01*
X88728068Y-70959722D01*
X88739722Y-70948068D01*
X88927095Y-70783746D01*
X88940171Y-70773713D01*
X89147384Y-70635257D01*
X89161658Y-70627016D01*
X89385174Y-70516791D01*
X89400400Y-70510484D01*
X89636394Y-70430375D01*
X89652304Y-70426112D01*
X89806929Y-70395355D01*
X89896738Y-70377491D01*
X89913078Y-70375340D01*
X90061866Y-70365587D01*
X90128237Y-70361237D01*
X90151350Y-70362267D01*
X90154854Y-70362310D01*
X90163724Y-70363691D01*
X90172626Y-70362527D01*
X90172628Y-70362527D01*
X90189449Y-70360327D01*
X90195286Y-70359564D01*
X90211621Y-70358500D01*
X95986844Y-70358500D01*
X96054965Y-70378502D01*
G37*
G04 #@! TD.AperFunction*
M02*
