%TF.GenerationSoftware,KiCad,Pcbnew,6.0.8-1.fc36*%
%TF.CreationDate,2022-11-01T17:46:50+01:00*%
%TF.ProjectId,avr32dd20_eval,61767233-3264-4643-9230-5f6576616c2e,rev?*%
%TF.SameCoordinates,Original*%
%TF.FileFunction,Drillmap*%
%TF.FilePolarity,Positive*%
%FSLAX45Y45*%
G04 Gerber Fmt 4.5, Leading zero omitted, Abs format (unit mm)*
G04 Created by KiCad (PCBNEW 6.0.8-1.fc36) date 2022-11-01 17:46:50*
%MOMM*%
%LPD*%
G01*
G04 APERTURE LIST*
%ADD10C,0.100000*%
%ADD11C,0.200000*%
%ADD12C,0.040000*%
G04 APERTURE END LIST*
D10*
X8763000Y-9525000D02*
X8763000Y-7239000D01*
X10795000Y-9779000D02*
X9017000Y-9779000D01*
X11049000Y-7239000D02*
X11049000Y-9525000D01*
X9017000Y-6985000D02*
X10795000Y-6985000D01*
X11049000Y-7239000D02*
G75*
G03*
X10795000Y-6985000I-254000J0D01*
G01*
X9017000Y-6985000D02*
G75*
G03*
X8763000Y-7239000I0J-254000D01*
G01*
X8763000Y-9525000D02*
G75*
G03*
X9017000Y-9779000I254000J0D01*
G01*
X10795000Y-9779000D02*
G75*
G03*
X11049000Y-9525000I0J254000D01*
G01*
D11*
D12*
X9378000Y-9670100D02*
X9418000Y-9710100D01*
X9418000Y-9670100D02*
X9378000Y-9710100D01*
X9390700Y-7092000D02*
X9430700Y-7132000D01*
X9430700Y-7092000D02*
X9390700Y-7132000D01*
X9390700Y-7231700D02*
X9430700Y-7271700D01*
X9430700Y-7231700D02*
X9390700Y-7271700D01*
X9390700Y-7371400D02*
X9430700Y-7411400D01*
X9430700Y-7371400D02*
X9390700Y-7411400D01*
X9390700Y-7511100D02*
X9430700Y-7551100D01*
X9430700Y-7511100D02*
X9390700Y-7551100D01*
X9682800Y-8019100D02*
X9722800Y-8059100D01*
X9722800Y-8019100D02*
X9682800Y-8059100D01*
X9708200Y-8362000D02*
X9748200Y-8402000D01*
X9748200Y-8362000D02*
X9708200Y-8402000D01*
X9708200Y-8654100D02*
X9748200Y-8694100D01*
X9748200Y-8654100D02*
X9708200Y-8694100D01*
X9708200Y-8844600D02*
X9748200Y-8884600D01*
X9748200Y-8844600D02*
X9708200Y-8884600D01*
X9708200Y-8997000D02*
X9748200Y-9037000D01*
X9748200Y-8997000D02*
X9708200Y-9037000D01*
X9708200Y-9149400D02*
X9748200Y-9189400D01*
X9748200Y-9149400D02*
X9708200Y-9189400D01*
X10089200Y-8158800D02*
X10129200Y-8198800D01*
X10129200Y-8158800D02*
X10089200Y-8198800D01*
X10089200Y-8311200D02*
X10129200Y-8351200D01*
X10129200Y-8311200D02*
X10089200Y-8351200D01*
X10089200Y-8489000D02*
X10129200Y-8529000D01*
X10129200Y-8489000D02*
X10089200Y-8529000D01*
X10089200Y-8895400D02*
X10129200Y-8935400D01*
X10129200Y-8895400D02*
X10089200Y-8935400D01*
X10089200Y-9047800D02*
X10129200Y-9087800D01*
X10129200Y-9047800D02*
X10089200Y-9087800D01*
X10089200Y-9225600D02*
X10129200Y-9265600D01*
X10129200Y-9225600D02*
X10089200Y-9265600D01*
X10216200Y-7777800D02*
X10256200Y-7817800D01*
X10256200Y-7777800D02*
X10216200Y-7817800D01*
X10330500Y-7155500D02*
X10370500Y-7195500D01*
X10370500Y-7155500D02*
X10330500Y-7195500D01*
X10381300Y-9657400D02*
X10421300Y-9697400D01*
X10421300Y-9657400D02*
X10381300Y-9697400D01*
X10394000Y-7574600D02*
X10434000Y-7614600D01*
X10434000Y-7574600D02*
X10394000Y-7614600D01*
X10457500Y-7092000D02*
X10497500Y-7132000D01*
X10497500Y-7092000D02*
X10457500Y-7132000D01*
D10*
X9067000Y-7239500D02*
G75*
G03*
X9067000Y-7239500I-50000J0D01*
G01*
X9067000Y-7493500D02*
G75*
G03*
X9067000Y-7493500I-50000J0D01*
G01*
X9067000Y-7747500D02*
G75*
G03*
X9067000Y-7747500I-50000J0D01*
G01*
X9067000Y-8001500D02*
G75*
G03*
X9067000Y-8001500I-50000J0D01*
G01*
X9067000Y-8255500D02*
G75*
G03*
X9067000Y-8255500I-50000J0D01*
G01*
X9067000Y-8509500D02*
G75*
G03*
X9067000Y-8509500I-50000J0D01*
G01*
X9067000Y-8763500D02*
G75*
G03*
X9067000Y-8763500I-50000J0D01*
G01*
X9067000Y-9017500D02*
G75*
G03*
X9067000Y-9017500I-50000J0D01*
G01*
X9067000Y-9271500D02*
G75*
G03*
X9067000Y-9271500I-50000J0D01*
G01*
X9067000Y-9525500D02*
G75*
G03*
X9067000Y-9525500I-50000J0D01*
G01*
X9700500Y-7187700D02*
G75*
G03*
X9700500Y-7187700I-50000J0D01*
G01*
X9700500Y-7441700D02*
G75*
G03*
X9700500Y-7441700I-50000J0D01*
G01*
X9954500Y-7187700D02*
G75*
G03*
X9954500Y-7187700I-50000J0D01*
G01*
X9954500Y-7441700D02*
G75*
G03*
X9954500Y-7441700I-50000J0D01*
G01*
X10208500Y-7187700D02*
G75*
G03*
X10208500Y-7187700I-50000J0D01*
G01*
X10208500Y-7441700D02*
G75*
G03*
X10208500Y-7441700I-50000J0D01*
G01*
X10845000Y-7238500D02*
G75*
G03*
X10845000Y-7238500I-50000J0D01*
G01*
X10845000Y-7492500D02*
G75*
G03*
X10845000Y-7492500I-50000J0D01*
G01*
X10845000Y-7746500D02*
G75*
G03*
X10845000Y-7746500I-50000J0D01*
G01*
X10845000Y-8000500D02*
G75*
G03*
X10845000Y-8000500I-50000J0D01*
G01*
X10845000Y-8254500D02*
G75*
G03*
X10845000Y-8254500I-50000J0D01*
G01*
X10845000Y-8508500D02*
G75*
G03*
X10845000Y-8508500I-50000J0D01*
G01*
X10845000Y-8762500D02*
G75*
G03*
X10845000Y-8762500I-50000J0D01*
G01*
X10845000Y-9016500D02*
G75*
G03*
X10845000Y-9016500I-50000J0D01*
G01*
X10845000Y-9270500D02*
G75*
G03*
X10845000Y-9270500I-50000J0D01*
G01*
X10845000Y-9524500D02*
G75*
G03*
X10845000Y-9524500I-50000J0D01*
G01*
D11*
X9015619Y-10094476D02*
X9015619Y-9894476D01*
X9063238Y-9894476D01*
X9091810Y-9904000D01*
X9110857Y-9923048D01*
X9120381Y-9942095D01*
X9129905Y-9980190D01*
X9129905Y-10008762D01*
X9120381Y-10046857D01*
X9110857Y-10065905D01*
X9091810Y-10084952D01*
X9063238Y-10094476D01*
X9015619Y-10094476D01*
X9215619Y-10094476D02*
X9215619Y-9961143D01*
X9215619Y-9999238D02*
X9225143Y-9980190D01*
X9234667Y-9970667D01*
X9253714Y-9961143D01*
X9272762Y-9961143D01*
X9339429Y-10094476D02*
X9339429Y-9961143D01*
X9339429Y-9894476D02*
X9329905Y-9904000D01*
X9339429Y-9913524D01*
X9348952Y-9904000D01*
X9339429Y-9894476D01*
X9339429Y-9913524D01*
X9463238Y-10094476D02*
X9444190Y-10084952D01*
X9434667Y-10065905D01*
X9434667Y-9894476D01*
X9568000Y-10094476D02*
X9548952Y-10084952D01*
X9539429Y-10065905D01*
X9539429Y-9894476D01*
X9796571Y-10094476D02*
X9796571Y-9894476D01*
X9863238Y-10037333D01*
X9929905Y-9894476D01*
X9929905Y-10094476D01*
X10110857Y-10094476D02*
X10110857Y-9989714D01*
X10101333Y-9970667D01*
X10082286Y-9961143D01*
X10044190Y-9961143D01*
X10025143Y-9970667D01*
X10110857Y-10084952D02*
X10091810Y-10094476D01*
X10044190Y-10094476D01*
X10025143Y-10084952D01*
X10015619Y-10065905D01*
X10015619Y-10046857D01*
X10025143Y-10027810D01*
X10044190Y-10018286D01*
X10091810Y-10018286D01*
X10110857Y-10008762D01*
X10206095Y-9961143D02*
X10206095Y-10161143D01*
X10206095Y-9970667D02*
X10225143Y-9961143D01*
X10263238Y-9961143D01*
X10282286Y-9970667D01*
X10291810Y-9980190D01*
X10301333Y-9999238D01*
X10301333Y-10056381D01*
X10291810Y-10075429D01*
X10282286Y-10084952D01*
X10263238Y-10094476D01*
X10225143Y-10094476D01*
X10206095Y-10084952D01*
X10387048Y-10075429D02*
X10396571Y-10084952D01*
X10387048Y-10094476D01*
X10377524Y-10084952D01*
X10387048Y-10075429D01*
X10387048Y-10094476D01*
X10387048Y-9970667D02*
X10396571Y-9980190D01*
X10387048Y-9989714D01*
X10377524Y-9980190D01*
X10387048Y-9970667D01*
X10387048Y-9989714D01*
D12*
X8718000Y-10404000D02*
X8758000Y-10444000D01*
X8758000Y-10404000D02*
X8718000Y-10444000D01*
D11*
X9053714Y-10314476D02*
X9072762Y-10314476D01*
X9091810Y-10324000D01*
X9101333Y-10333524D01*
X9110857Y-10352571D01*
X9120381Y-10390667D01*
X9120381Y-10438286D01*
X9110857Y-10476381D01*
X9101333Y-10495429D01*
X9091810Y-10504952D01*
X9072762Y-10514476D01*
X9053714Y-10514476D01*
X9034667Y-10504952D01*
X9025143Y-10495429D01*
X9015619Y-10476381D01*
X9006095Y-10438286D01*
X9006095Y-10390667D01*
X9015619Y-10352571D01*
X9025143Y-10333524D01*
X9034667Y-10324000D01*
X9053714Y-10314476D01*
X9206095Y-10495429D02*
X9215619Y-10504952D01*
X9206095Y-10514476D01*
X9196571Y-10504952D01*
X9206095Y-10495429D01*
X9206095Y-10514476D01*
X9387048Y-10381143D02*
X9387048Y-10514476D01*
X9339429Y-10304952D02*
X9291810Y-10447810D01*
X9415619Y-10447810D01*
X9529905Y-10314476D02*
X9548952Y-10314476D01*
X9568000Y-10324000D01*
X9577524Y-10333524D01*
X9587048Y-10352571D01*
X9596571Y-10390667D01*
X9596571Y-10438286D01*
X9587048Y-10476381D01*
X9577524Y-10495429D01*
X9568000Y-10504952D01*
X9548952Y-10514476D01*
X9529905Y-10514476D01*
X9510857Y-10504952D01*
X9501333Y-10495429D01*
X9491810Y-10476381D01*
X9482286Y-10438286D01*
X9482286Y-10390667D01*
X9491810Y-10352571D01*
X9501333Y-10333524D01*
X9510857Y-10324000D01*
X9529905Y-10314476D01*
X9720381Y-10314476D02*
X9739429Y-10314476D01*
X9758476Y-10324000D01*
X9768000Y-10333524D01*
X9777524Y-10352571D01*
X9787048Y-10390667D01*
X9787048Y-10438286D01*
X9777524Y-10476381D01*
X9768000Y-10495429D01*
X9758476Y-10504952D01*
X9739429Y-10514476D01*
X9720381Y-10514476D01*
X9701333Y-10504952D01*
X9691810Y-10495429D01*
X9682286Y-10476381D01*
X9672762Y-10438286D01*
X9672762Y-10390667D01*
X9682286Y-10352571D01*
X9691810Y-10333524D01*
X9701333Y-10324000D01*
X9720381Y-10314476D01*
X9872762Y-10514476D02*
X9872762Y-10381143D01*
X9872762Y-10400190D02*
X9882286Y-10390667D01*
X9901333Y-10381143D01*
X9929905Y-10381143D01*
X9948952Y-10390667D01*
X9958476Y-10409714D01*
X9958476Y-10514476D01*
X9958476Y-10409714D02*
X9968000Y-10390667D01*
X9987048Y-10381143D01*
X10015619Y-10381143D01*
X10034667Y-10390667D01*
X10044190Y-10409714D01*
X10044190Y-10514476D01*
X10139429Y-10514476D02*
X10139429Y-10381143D01*
X10139429Y-10400190D02*
X10148952Y-10390667D01*
X10168000Y-10381143D01*
X10196571Y-10381143D01*
X10215619Y-10390667D01*
X10225143Y-10409714D01*
X10225143Y-10514476D01*
X10225143Y-10409714D02*
X10234667Y-10390667D01*
X10253714Y-10381143D01*
X10282286Y-10381143D01*
X10301333Y-10390667D01*
X10310857Y-10409714D01*
X10310857Y-10514476D01*
X10701333Y-10304952D02*
X10529905Y-10562095D01*
X10958476Y-10314476D02*
X10977524Y-10314476D01*
X10996571Y-10324000D01*
X11006095Y-10333524D01*
X11015619Y-10352571D01*
X11025143Y-10390667D01*
X11025143Y-10438286D01*
X11015619Y-10476381D01*
X11006095Y-10495429D01*
X10996571Y-10504952D01*
X10977524Y-10514476D01*
X10958476Y-10514476D01*
X10939429Y-10504952D01*
X10929905Y-10495429D01*
X10920381Y-10476381D01*
X10910857Y-10438286D01*
X10910857Y-10390667D01*
X10920381Y-10352571D01*
X10929905Y-10333524D01*
X10939429Y-10324000D01*
X10958476Y-10314476D01*
X11110857Y-10495429D02*
X11120381Y-10504952D01*
X11110857Y-10514476D01*
X11101333Y-10504952D01*
X11110857Y-10495429D01*
X11110857Y-10514476D01*
X11244190Y-10314476D02*
X11263238Y-10314476D01*
X11282286Y-10324000D01*
X11291809Y-10333524D01*
X11301333Y-10352571D01*
X11310857Y-10390667D01*
X11310857Y-10438286D01*
X11301333Y-10476381D01*
X11291809Y-10495429D01*
X11282286Y-10504952D01*
X11263238Y-10514476D01*
X11244190Y-10514476D01*
X11225143Y-10504952D01*
X11215619Y-10495429D01*
X11206095Y-10476381D01*
X11196571Y-10438286D01*
X11196571Y-10390667D01*
X11206095Y-10352571D01*
X11215619Y-10333524D01*
X11225143Y-10324000D01*
X11244190Y-10314476D01*
X11501333Y-10514476D02*
X11387048Y-10514476D01*
X11444190Y-10514476D02*
X11444190Y-10314476D01*
X11425143Y-10343048D01*
X11406095Y-10362095D01*
X11387048Y-10371619D01*
X11682286Y-10314476D02*
X11587048Y-10314476D01*
X11577524Y-10409714D01*
X11587048Y-10400190D01*
X11606095Y-10390667D01*
X11653714Y-10390667D01*
X11672762Y-10400190D01*
X11682286Y-10409714D01*
X11691809Y-10428762D01*
X11691809Y-10476381D01*
X11682286Y-10495429D01*
X11672762Y-10504952D01*
X11653714Y-10514476D01*
X11606095Y-10514476D01*
X11587048Y-10504952D01*
X11577524Y-10495429D01*
X11758476Y-10314476D02*
X11891809Y-10314476D01*
X11806095Y-10514476D01*
X11958476Y-10314476D02*
X11958476Y-10352571D01*
X12034667Y-10314476D02*
X12034667Y-10352571D01*
X12329905Y-10590667D02*
X12320381Y-10581143D01*
X12301333Y-10552571D01*
X12291809Y-10533524D01*
X12282286Y-10504952D01*
X12272762Y-10457333D01*
X12272762Y-10419238D01*
X12282286Y-10371619D01*
X12291809Y-10343048D01*
X12301333Y-10324000D01*
X12320381Y-10295429D01*
X12329905Y-10285905D01*
X12396571Y-10333524D02*
X12406095Y-10324000D01*
X12425143Y-10314476D01*
X12472762Y-10314476D01*
X12491809Y-10324000D01*
X12501333Y-10333524D01*
X12510857Y-10352571D01*
X12510857Y-10371619D01*
X12501333Y-10400190D01*
X12387048Y-10514476D01*
X12510857Y-10514476D01*
X12587048Y-10333524D02*
X12596571Y-10324000D01*
X12615619Y-10314476D01*
X12663238Y-10314476D01*
X12682286Y-10324000D01*
X12691809Y-10333524D01*
X12701333Y-10352571D01*
X12701333Y-10371619D01*
X12691809Y-10400190D01*
X12577524Y-10514476D01*
X12701333Y-10514476D01*
X12939428Y-10514476D02*
X12939428Y-10314476D01*
X13025143Y-10514476D02*
X13025143Y-10409714D01*
X13015619Y-10390667D01*
X12996571Y-10381143D01*
X12968000Y-10381143D01*
X12948952Y-10390667D01*
X12939428Y-10400190D01*
X13148952Y-10514476D02*
X13129905Y-10504952D01*
X13120381Y-10495429D01*
X13110857Y-10476381D01*
X13110857Y-10419238D01*
X13120381Y-10400190D01*
X13129905Y-10390667D01*
X13148952Y-10381143D01*
X13177524Y-10381143D01*
X13196571Y-10390667D01*
X13206095Y-10400190D01*
X13215619Y-10419238D01*
X13215619Y-10476381D01*
X13206095Y-10495429D01*
X13196571Y-10504952D01*
X13177524Y-10514476D01*
X13148952Y-10514476D01*
X13329905Y-10514476D02*
X13310857Y-10504952D01*
X13301333Y-10485905D01*
X13301333Y-10314476D01*
X13482286Y-10504952D02*
X13463238Y-10514476D01*
X13425143Y-10514476D01*
X13406095Y-10504952D01*
X13396571Y-10485905D01*
X13396571Y-10409714D01*
X13406095Y-10390667D01*
X13425143Y-10381143D01*
X13463238Y-10381143D01*
X13482286Y-10390667D01*
X13491809Y-10409714D01*
X13491809Y-10428762D01*
X13396571Y-10447810D01*
X13568000Y-10504952D02*
X13587048Y-10514476D01*
X13625143Y-10514476D01*
X13644190Y-10504952D01*
X13653714Y-10485905D01*
X13653714Y-10476381D01*
X13644190Y-10457333D01*
X13625143Y-10447810D01*
X13596571Y-10447810D01*
X13577524Y-10438286D01*
X13568000Y-10419238D01*
X13568000Y-10409714D01*
X13577524Y-10390667D01*
X13596571Y-10381143D01*
X13625143Y-10381143D01*
X13644190Y-10390667D01*
X13720381Y-10590667D02*
X13729905Y-10581143D01*
X13748952Y-10552571D01*
X13758476Y-10533524D01*
X13768000Y-10504952D01*
X13777524Y-10457333D01*
X13777524Y-10419238D01*
X13768000Y-10371619D01*
X13758476Y-10343048D01*
X13748952Y-10324000D01*
X13729905Y-10295429D01*
X13720381Y-10285905D01*
D10*
X8758000Y-10688000D02*
G75*
G03*
X8758000Y-10688000I-50000J0D01*
G01*
D11*
X9120381Y-10778476D02*
X9006095Y-10778476D01*
X9063238Y-10778476D02*
X9063238Y-10578476D01*
X9044190Y-10607048D01*
X9025143Y-10626095D01*
X9006095Y-10635619D01*
X9206095Y-10759429D02*
X9215619Y-10768952D01*
X9206095Y-10778476D01*
X9196571Y-10768952D01*
X9206095Y-10759429D01*
X9206095Y-10778476D01*
X9339429Y-10578476D02*
X9358476Y-10578476D01*
X9377524Y-10588000D01*
X9387048Y-10597524D01*
X9396571Y-10616571D01*
X9406095Y-10654667D01*
X9406095Y-10702286D01*
X9396571Y-10740381D01*
X9387048Y-10759429D01*
X9377524Y-10768952D01*
X9358476Y-10778476D01*
X9339429Y-10778476D01*
X9320381Y-10768952D01*
X9310857Y-10759429D01*
X9301333Y-10740381D01*
X9291810Y-10702286D01*
X9291810Y-10654667D01*
X9301333Y-10616571D01*
X9310857Y-10597524D01*
X9320381Y-10588000D01*
X9339429Y-10578476D01*
X9529905Y-10578476D02*
X9548952Y-10578476D01*
X9568000Y-10588000D01*
X9577524Y-10597524D01*
X9587048Y-10616571D01*
X9596571Y-10654667D01*
X9596571Y-10702286D01*
X9587048Y-10740381D01*
X9577524Y-10759429D01*
X9568000Y-10768952D01*
X9548952Y-10778476D01*
X9529905Y-10778476D01*
X9510857Y-10768952D01*
X9501333Y-10759429D01*
X9491810Y-10740381D01*
X9482286Y-10702286D01*
X9482286Y-10654667D01*
X9491810Y-10616571D01*
X9501333Y-10597524D01*
X9510857Y-10588000D01*
X9529905Y-10578476D01*
X9720381Y-10578476D02*
X9739429Y-10578476D01*
X9758476Y-10588000D01*
X9768000Y-10597524D01*
X9777524Y-10616571D01*
X9787048Y-10654667D01*
X9787048Y-10702286D01*
X9777524Y-10740381D01*
X9768000Y-10759429D01*
X9758476Y-10768952D01*
X9739429Y-10778476D01*
X9720381Y-10778476D01*
X9701333Y-10768952D01*
X9691810Y-10759429D01*
X9682286Y-10740381D01*
X9672762Y-10702286D01*
X9672762Y-10654667D01*
X9682286Y-10616571D01*
X9691810Y-10597524D01*
X9701333Y-10588000D01*
X9720381Y-10578476D01*
X9872762Y-10778476D02*
X9872762Y-10645143D01*
X9872762Y-10664190D02*
X9882286Y-10654667D01*
X9901333Y-10645143D01*
X9929905Y-10645143D01*
X9948952Y-10654667D01*
X9958476Y-10673714D01*
X9958476Y-10778476D01*
X9958476Y-10673714D02*
X9968000Y-10654667D01*
X9987048Y-10645143D01*
X10015619Y-10645143D01*
X10034667Y-10654667D01*
X10044190Y-10673714D01*
X10044190Y-10778476D01*
X10139429Y-10778476D02*
X10139429Y-10645143D01*
X10139429Y-10664190D02*
X10148952Y-10654667D01*
X10168000Y-10645143D01*
X10196571Y-10645143D01*
X10215619Y-10654667D01*
X10225143Y-10673714D01*
X10225143Y-10778476D01*
X10225143Y-10673714D02*
X10234667Y-10654667D01*
X10253714Y-10645143D01*
X10282286Y-10645143D01*
X10301333Y-10654667D01*
X10310857Y-10673714D01*
X10310857Y-10778476D01*
X10701333Y-10568952D02*
X10529905Y-10826095D01*
X10958476Y-10578476D02*
X10977524Y-10578476D01*
X10996571Y-10588000D01*
X11006095Y-10597524D01*
X11015619Y-10616571D01*
X11025143Y-10654667D01*
X11025143Y-10702286D01*
X11015619Y-10740381D01*
X11006095Y-10759429D01*
X10996571Y-10768952D01*
X10977524Y-10778476D01*
X10958476Y-10778476D01*
X10939429Y-10768952D01*
X10929905Y-10759429D01*
X10920381Y-10740381D01*
X10910857Y-10702286D01*
X10910857Y-10654667D01*
X10920381Y-10616571D01*
X10929905Y-10597524D01*
X10939429Y-10588000D01*
X10958476Y-10578476D01*
X11110857Y-10759429D02*
X11120381Y-10768952D01*
X11110857Y-10778476D01*
X11101333Y-10768952D01*
X11110857Y-10759429D01*
X11110857Y-10778476D01*
X11244190Y-10578476D02*
X11263238Y-10578476D01*
X11282286Y-10588000D01*
X11291809Y-10597524D01*
X11301333Y-10616571D01*
X11310857Y-10654667D01*
X11310857Y-10702286D01*
X11301333Y-10740381D01*
X11291809Y-10759429D01*
X11282286Y-10768952D01*
X11263238Y-10778476D01*
X11244190Y-10778476D01*
X11225143Y-10768952D01*
X11215619Y-10759429D01*
X11206095Y-10740381D01*
X11196571Y-10702286D01*
X11196571Y-10654667D01*
X11206095Y-10616571D01*
X11215619Y-10597524D01*
X11225143Y-10588000D01*
X11244190Y-10578476D01*
X11377524Y-10578476D02*
X11501333Y-10578476D01*
X11434667Y-10654667D01*
X11463238Y-10654667D01*
X11482286Y-10664190D01*
X11491809Y-10673714D01*
X11501333Y-10692762D01*
X11501333Y-10740381D01*
X11491809Y-10759429D01*
X11482286Y-10768952D01*
X11463238Y-10778476D01*
X11406095Y-10778476D01*
X11387048Y-10768952D01*
X11377524Y-10759429D01*
X11596571Y-10778476D02*
X11634667Y-10778476D01*
X11653714Y-10768952D01*
X11663238Y-10759429D01*
X11682286Y-10730857D01*
X11691809Y-10692762D01*
X11691809Y-10616571D01*
X11682286Y-10597524D01*
X11672762Y-10588000D01*
X11653714Y-10578476D01*
X11615619Y-10578476D01*
X11596571Y-10588000D01*
X11587048Y-10597524D01*
X11577524Y-10616571D01*
X11577524Y-10664190D01*
X11587048Y-10683238D01*
X11596571Y-10692762D01*
X11615619Y-10702286D01*
X11653714Y-10702286D01*
X11672762Y-10692762D01*
X11682286Y-10683238D01*
X11691809Y-10664190D01*
X11863238Y-10645143D02*
X11863238Y-10778476D01*
X11815619Y-10568952D02*
X11768000Y-10711810D01*
X11891809Y-10711810D01*
X11958476Y-10578476D02*
X11958476Y-10616571D01*
X12034667Y-10578476D02*
X12034667Y-10616571D01*
X12329905Y-10854667D02*
X12320381Y-10845143D01*
X12301333Y-10816571D01*
X12291809Y-10797524D01*
X12282286Y-10768952D01*
X12272762Y-10721333D01*
X12272762Y-10683238D01*
X12282286Y-10635619D01*
X12291809Y-10607048D01*
X12301333Y-10588000D01*
X12320381Y-10559429D01*
X12329905Y-10549905D01*
X12396571Y-10597524D02*
X12406095Y-10588000D01*
X12425143Y-10578476D01*
X12472762Y-10578476D01*
X12491809Y-10588000D01*
X12501333Y-10597524D01*
X12510857Y-10616571D01*
X12510857Y-10635619D01*
X12501333Y-10664190D01*
X12387048Y-10778476D01*
X12510857Y-10778476D01*
X12682286Y-10578476D02*
X12644190Y-10578476D01*
X12625143Y-10588000D01*
X12615619Y-10597524D01*
X12596571Y-10626095D01*
X12587048Y-10664190D01*
X12587048Y-10740381D01*
X12596571Y-10759429D01*
X12606095Y-10768952D01*
X12625143Y-10778476D01*
X12663238Y-10778476D01*
X12682286Y-10768952D01*
X12691809Y-10759429D01*
X12701333Y-10740381D01*
X12701333Y-10692762D01*
X12691809Y-10673714D01*
X12682286Y-10664190D01*
X12663238Y-10654667D01*
X12625143Y-10654667D01*
X12606095Y-10664190D01*
X12596571Y-10673714D01*
X12587048Y-10692762D01*
X12939428Y-10778476D02*
X12939428Y-10578476D01*
X13025143Y-10778476D02*
X13025143Y-10673714D01*
X13015619Y-10654667D01*
X12996571Y-10645143D01*
X12968000Y-10645143D01*
X12948952Y-10654667D01*
X12939428Y-10664190D01*
X13148952Y-10778476D02*
X13129905Y-10768952D01*
X13120381Y-10759429D01*
X13110857Y-10740381D01*
X13110857Y-10683238D01*
X13120381Y-10664190D01*
X13129905Y-10654667D01*
X13148952Y-10645143D01*
X13177524Y-10645143D01*
X13196571Y-10654667D01*
X13206095Y-10664190D01*
X13215619Y-10683238D01*
X13215619Y-10740381D01*
X13206095Y-10759429D01*
X13196571Y-10768952D01*
X13177524Y-10778476D01*
X13148952Y-10778476D01*
X13329905Y-10778476D02*
X13310857Y-10768952D01*
X13301333Y-10749905D01*
X13301333Y-10578476D01*
X13482286Y-10768952D02*
X13463238Y-10778476D01*
X13425143Y-10778476D01*
X13406095Y-10768952D01*
X13396571Y-10749905D01*
X13396571Y-10673714D01*
X13406095Y-10654667D01*
X13425143Y-10645143D01*
X13463238Y-10645143D01*
X13482286Y-10654667D01*
X13491809Y-10673714D01*
X13491809Y-10692762D01*
X13396571Y-10711810D01*
X13568000Y-10768952D02*
X13587048Y-10778476D01*
X13625143Y-10778476D01*
X13644190Y-10768952D01*
X13653714Y-10749905D01*
X13653714Y-10740381D01*
X13644190Y-10721333D01*
X13625143Y-10711810D01*
X13596571Y-10711810D01*
X13577524Y-10702286D01*
X13568000Y-10683238D01*
X13568000Y-10673714D01*
X13577524Y-10654667D01*
X13596571Y-10645143D01*
X13625143Y-10645143D01*
X13644190Y-10654667D01*
X13720381Y-10854667D02*
X13729905Y-10845143D01*
X13748952Y-10816571D01*
X13758476Y-10797524D01*
X13768000Y-10768952D01*
X13777524Y-10721333D01*
X13777524Y-10683238D01*
X13768000Y-10635619D01*
X13758476Y-10607048D01*
X13748952Y-10588000D01*
X13729905Y-10559429D01*
X13720381Y-10549905D01*
M02*
